<svg xmlns="http://www.w3.org/2000/svg" width="214" height="92" fill="none"><path fill="#000014" d="M12.805 19.336a.7.7 0 0 0 .48-.192.7.7 0 0 0 .216-.504v-3.936a.62.62 0 0 0-.216-.48.67.67 0 0 0-.48-.216h-3.96a.67.67 0 0 0-.48.216.62.62 0 0 0-.216.48v3.936q0 .288.216.504a.7.7 0 0 0 .48.192zm0-7.992a.67.67 0 0 0 .48-.216.67.67 0 0 0 .216-.48V9.352a.67.67 0 0 0-.216-.48.67.67 0 0 0-.48-.216h-3.96a.67.67 0 0 0-.48.216.67.67 0 0 0-.216.48v1.296q0 .264.216.48a.67.67 0 0 0 .48.216zM3.517 22a.74.74 0 0 1-.504-.192.74.74 0 0 1-.192-.504V6.688q0-.264.192-.48a.7.7 0 0 1 .504-.216h11.952q.264 0 .48.216a.67.67 0 0 1 .216.48v1.296q0 .264.192.48a.74.74 0 0 0 .503.192h1.273q.263 0 .48.216a.67.67 0 0 1 .215.48v1.296a.67.67 0 0 1-.215.48.67.67 0 0 1-.48.216H16.86a.7.7 0 0 0-.503.216.62.62 0 0 0-.192.456v1.296q0 .264.192.48a.7.7 0 0 0 .503.216h1.273q.263 0 .48.216a.62.62 0 0 1 .215.48v3.936a.7.7 0 0 1-.215.504.7.7 0 0 1-.48.192H16.86a.7.7 0 0 0-.503.216.65.65 0 0 0-.192.48v1.272a.7.7 0 0 1-.216.504.7.7 0 0 1-.48.192zM24.845 5.992a.74.74 0 0 1-.504-.192.74.74 0 0 1-.192-.504V4.024q0-.264.192-.48a.7.7 0 0 1 .504-.216h3.936q.288 0 .48.216a.67.67 0 0 1 .216.48v1.272a.7.7 0 0 1-.216.504.65.65 0 0 1-.48.192zm0 16.008a.74.74 0 0 1-.504-.192.74.74 0 0 1-.192-.504V9.352q0-.264.192-.48a.7.7 0 0 1 .504-.216h3.936q.288 0 .48.216a.67.67 0 0 1 .216.48v11.952a.7.7 0 0 1-.216.504.65.65 0 0 1-.48.192zm13.328 0a.7.7 0 0 1-.48-.192.7.7 0 0 1-.216-.504v-1.272a.62.62 0 0 0-.216-.48.62.62 0 0 0-.48-.216h-1.272a.74.74 0 0 1-.504-.192.74.74 0 0 1-.192-.504v-6.624a.6.6 0 0 0-.216-.456.62.62 0 0 0-.48-.216h-1.272a.7.7 0 0 1-.504-.216.7.7 0 0 1-.192-.48V9.352q0-.264.192-.48a.7.7 0 0 1 .504-.216h1.272a.65.65 0 0 0 .48-.192.67.67 0 0 0 .216-.48V6.688q0-.264.192-.48a.7.7 0 0 1 .504-.216h3.936q.288 0 .48.216a.67.67 0 0 1 .216.48v1.296q0 .264.216.48a.7.7 0 0 0 .48.192h3.96q.264 0 .48.216a.67.67 0 0 1 .216.48v1.296a.67.67 0 0 1-.216.48.67.67 0 0 1-.48.216h-3.96a.67.67 0 0 0-.48.216.6.6 0 0 0-.216.456v6.624q0 .288.216.504a.7.7 0 0 0 .48.192h3.96q.264 0 .48.216a.62.62 0 0 1 .216.48v1.272a.7.7 0 0 1-.216.504.7.7 0 0 1-.48.192zm16.008 0a.7.7 0 0 1-.48-.192.7.7 0 0 1-.217-.504v-1.272a.62.62 0 0 0-.215-.48.62.62 0 0 0-.48-.216h-1.273a.74.74 0 0 1-.503-.192.74.74 0 0 1-.192-.504v-6.624a.6.6 0 0 0-.216-.456.62.62 0 0 0-.48-.216h-1.273a.7.7 0 0 1-.503-.216.7.7 0 0 1-.192-.48V9.352q0-.264.192-.48a.7.7 0 0 1 .504-.216h1.271a.65.65 0 0 0 .48-.192.67.67 0 0 0 .217-.48V6.688q0-.264.192-.48a.7.7 0 0 1 .504-.216h3.935q.289 0 .48.216a.67.67 0 0 1 .216.48v1.296q0 .264.216.48a.7.7 0 0 0 .48.192h3.96q.265 0 .48.216a.67.67 0 0 1 .217.48v1.296a.67.67 0 0 1-.216.48.67.67 0 0 1-.48.216h-3.96a.67.67 0 0 0-.48.216.6.6 0 0 0-.217.456v6.624q0 .288.216.504a.7.7 0 0 0 .48.192h3.96q.265 0 .48.216a.62.62 0 0 1 .217.48v1.272a.7.7 0 0 1-.216.504.7.7 0 0 1-.48.192zm16.007 0a.7.7 0 0 1-.48-.192.7.7 0 0 1-.216-.504v-1.272a.62.62 0 0 0-.216-.48.62.62 0 0 0-.48-.216h-1.272a.74.74 0 0 1-.504-.192.74.74 0 0 1-.192-.504v-6.624q0-.264.192-.456a.7.7 0 0 1 .504-.216h1.272a.62.62 0 0 0 .48-.216.67.67 0 0 0 .216-.48V9.352q0-.264.216-.48a.67.67 0 0 1 .48-.216h9.288q.264 0 .48.216a.67.67 0 0 1 .216.48v1.296q0 .264.192.48a.7.7 0 0 0 .504.216h1.272q.264 0 .48.216.216.192.216.456v3.96a.67.67 0 0 1-.216.48.67.67 0 0 1-.48.216h-9.288a.67.67 0 0 0-.48.216.62.62 0 0 0-.216.48v1.272q0 .288.216.504a.7.7 0 0 0 .48.192h6.624q.264 0 .48.216a.62.62 0 0 1 .216.48v1.272a.7.7 0 0 1-.216.504.7.7 0 0 1-.48.192zm6.624-7.992a.67.67 0 0 0 .48-.216.67.67 0 0 0 .216-.48v-1.296a.6.6 0 0 0-.216-.456.67.67 0 0 0-.48-.216h-3.96a.67.67 0 0 0-.48.216.6.6 0 0 0-.216.456v1.296q0 .264.216.48a.67.67 0 0 0 .48.216zM88.852 22a.74.74 0 0 1-.504-.192.74.74 0 0 1-.192-.504V9.352q0-.264.192-.48a.7.7 0 0 1 .505-.216h1.272q.288 0 .48.216a.67.67 0 0 1 .215.48v1.296q0 .264.217.48a.67.67 0 0 0 .48.216h1.272a.62.62 0 0 0 .48-.216.67.67 0 0 0 .215-.48V9.352q0-.264.217-.48a.67.67 0 0 1 .48-.216h3.96q.262 0 .48.216a.67.67 0 0 1 .216.48v3.96a.67.67 0 0 1-.216.48.67.67 0 0 1-.48.216h-1.297a.67.67 0 0 1-.48-.216.67.67 0 0 1-.216-.48v-1.296a.6.6 0 0 0-.215-.456.6.6 0 0 0-.457-.216H94.18a.67.67 0 0 0-.48.216.6.6 0 0 0-.216.456v9.288a.7.7 0 0 1-.215.504.65.65 0 0 1-.48.192zm16.008 0a.74.74 0 0 1-.504-.192.74.74 0 0 1-.192-.504v-1.272q0-.288.192-.48a.7.7 0 0 1 .504-.216h6.624a.62.62 0 0 0 .456-.192.7.7 0 0 0 .216-.504v-1.272a.62.62 0 0 0-.216-.48.6.6 0 0 0-.456-.216h-6.624a.7.7 0 0 1-.504-.216.7.7 0 0 1-.192-.48v-3.96q0-.264.192-.456a.7.7 0 0 1 .504-.216h1.272a.62.62 0 0 0 .48-.216.67.67 0 0 0 .216-.48V9.352q0-.264.216-.48a.67.67 0 0 1 .48-.216h9.288q.264 0 .48.216a.67.67 0 0 1 .216.48v1.296a.67.67 0 0 1-.216.48.67.67 0 0 1-.48.216h-6.624a.67.67 0 0 0-.48.216.6.6 0 0 0-.216.456v1.296q0 .264.216.48a.67.67 0 0 0 .48.216h6.624q.264 0 .48.216a.62.62 0 0 1 .216.48v3.936a.7.7 0 0 1-.216.504.7.7 0 0 1-.48.192h-1.296a.67.67 0 0 0-.48.216.65.65 0 0 0-.192.48v1.272a.7.7 0 0 1-.216.504.7.7 0 0 1-.48.192zm21.344 0a.7.7 0 0 1-.48-.192.7.7 0 0 1-.216-.504v-3.936a.62.62 0 0 0-.216-.48.62.62 0 0 0-.48-.216h-1.272a.7.7 0 0 1-.504-.216.7.7 0 0 1-.192-.48v-3.96a.6.6 0 0 0-.216-.456.62.62 0 0 0-.48-.216h-1.272a.7.7 0 0 1-.504-.216.7.7 0 0 1-.192-.48V9.352q0-.264.192-.48a.7.7 0 0 1 .504-.216h6.6q.288 0 .48.216a.67.67 0 0 1 .216.48v6.624q0 .264.216.48a.67.67 0 0 0 .48.216h1.296a.6.6 0 0 0 .456-.216.67.67 0 0 0 .216-.48V9.352q0-.264.216-.48a.67.67 0 0 1 .48-.216h3.96q.264 0 .48.216a.67.67 0 0 1 .216.48v6.624q0 .264.192.48a.7.7 0 0 0 .504.216h1.272a.67.67 0 0 0 .48-.216.67.67 0 0 0 .216-.48V9.352q0-.264.192-.48a.7.7 0 0 1 .504-.216h3.936q.288 0 .48.216a.67.67 0 0 1 .216.48v1.296a.67.67 0 0 1-.216.48.62.62 0 0 1-.48.216h-1.272a.7.7 0 0 0-.504.216.62.62 0 0 0-.192.456v3.96a.67.67 0 0 1-.216.48.62.62 0 0 1-.48.216h-1.272a.7.7 0 0 0-.504.216.65.65 0 0 0-.192.48v3.936a.7.7 0 0 1-.216.504.7.7 0 0 1-.48.192h-3.96a.7.7 0 0 1-.48-.192.74.74 0 0 1-.192-.504v-3.936a.62.62 0 0 0-.216-.48.67.67 0 0 0-.48-.216h-1.296a.67.67 0 0 0-.48.216.62.62 0 0 0-.216.48v3.936a.7.7 0 0 1-.216.504.62.62 0 0 1-.456.192zm24 0a.7.7 0 0 1-.48-.192.7.7 0 0 1-.216-.504v-1.272a.62.62 0 0 0-.216-.48.62.62 0 0 0-.48-.216h-1.272a.74.74 0 0 1-.504-.192.74.74 0 0 1-.192-.504v-6.624q0-.264.192-.456a.7.7 0 0 1 .504-.216h1.272a.62.62 0 0 0 .48-.216.67.67 0 0 0 .216-.48V9.352q0-.264.216-.48a.67.67 0 0 1 .48-.216h9.288q.264 0 .48.216a.67.67 0 0 1 .216.48v1.296q0 .264.192.48a.7.7 0 0 0 .504.216h1.272q.264 0 .48.216.216.192.216.456v3.96a.67.67 0 0 1-.216.48.67.67 0 0 1-.48.216h-9.288a.67.67 0 0 0-.48.216.62.62 0 0 0-.216.48v1.272q0 .288.216.504a.7.7 0 0 0 .48.192h6.624q.264 0 .48.216a.62.62 0 0 1 .216.48v1.272a.7.7 0 0 1-.216.504.7.7 0 0 1-.48.192zm6.624-7.992a.67.67 0 0 0 .48-.216.67.67 0 0 0 .216-.48v-1.296a.6.6 0 0 0-.216-.456.67.67 0 0 0-.48-.216h-3.96a.67.67 0 0 0-.48.216.6.6 0 0 0-.216.456v1.296q0 .264.216.48a.67.67 0 0 0 .48.216zM171.532 22a.7.7 0 0 1-.48-.192.7.7 0 0 1-.216-.504v-1.272a.62.62 0 0 0-.216-.48.62.62 0 0 0-.48-.216h-1.272a.74.74 0 0 1-.504-.192.74.74 0 0 1-.192-.504v-6.624q0-.264.192-.456a.7.7 0 0 1 .504-.216h1.272a.62.62 0 0 0 .48-.216.67.67 0 0 0 .216-.48V9.352q0-.264.216-.48a.67.67 0 0 1 .48-.216h9.288q.264 0 .48.216a.67.67 0 0 1 .216.48v1.296q0 .264.192.48a.7.7 0 0 0 .504.216h1.272q.264 0 .48.216.216.192.216.456v3.96a.67.67 0 0 1-.216.48.67.67 0 0 1-.48.216h-9.288a.67.67 0 0 0-.48.216.62.62 0 0 0-.216.48v1.272q0 .288.216.504a.7.7 0 0 0 .48.192h6.624q.264 0 .48.216a.62.62 0 0 1 .216.48v1.272a.7.7 0 0 1-.216.504.7.7 0 0 1-.48.192zm6.624-7.992a.67.67 0 0 0 .48-.216.67.67 0 0 0 .216-.48v-1.296a.6.6 0 0 0-.216-.456.67.67 0 0 0-.48-.216h-3.96a.67.67 0 0 0-.48.216.6.6 0 0 0-.216.456v1.296q0 .264.216.48a.67.67 0 0 0 .48.216zM192.86 22a.7.7 0 0 1-.48-.192.7.7 0 0 1-.216-.504v-1.272a.62.62 0 0 0-.216-.48.62.62 0 0 0-.48-.216h-1.272a.74.74 0 0 1-.504-.192.74.74 0 0 1-.192-.504v-6.624a.6.6 0 0 0-.216-.456.62.62 0 0 0-.48-.216h-1.272a.7.7 0 0 1-.504-.216.7.7 0 0 1-.192-.48V9.352q0-.264.192-.48a.7.7 0 0 1 .504-.216h1.272a.65.65 0 0 0 .48-.192.67.67 0 0 0 .216-.48V6.688q0-.264.192-.48a.7.7 0 0 1 .504-.216h3.936q.288 0 .48.216a.67.67 0 0 1 .216.48v1.296q0 .264.216.48a.7.7 0 0 0 .48.192h3.96q.264 0 .48.216a.67.67 0 0 1 .216.48v1.296a.67.67 0 0 1-.216.48.67.67 0 0 1-.48.216h-3.96a.67.67 0 0 0-.48.216.6.6 0 0 0-.216.456v6.624q0 .288.216.504a.7.7 0 0 0 .48.192h3.96q.264 0 .48.216a.62.62 0 0 1 .216.48v1.272a.7.7 0 0 1-.216.504.7.7 0 0 1-.48.192zM1.057 59v-8.727h2.949q1.023 0 1.679.35.655.344.972.95.315.605.315 1.376t-.315 1.368-.968.937q-.652.337-1.666.337H1.637v-.955h2.352q.698 0 1.125-.204.43-.205.622-.58.196-.38.196-.903 0-.525-.196-.916a1.34 1.34 0 0 0-.626-.605q-.431-.218-1.138-.218H2.114V59zm4.108-3.92L7.313 59H6.086l-2.114-3.92zM14.7 53a3 3 0 0 0-.37-.771 2.4 2.4 0 0 0-.542-.588 2.3 2.3 0 0 0-.708-.371 2.8 2.8 0 0 0-.869-.128 2.6 2.6 0 0 0-1.41.4q-.635.402-1.01 1.181-.375.78-.375 1.913t.379 1.914 1.027 1.18 1.457.4q.75 0 1.321-.319.576-.324.895-.912.324-.593.324-1.393l.324.068h-2.625v-.938h3.324v.938q0 1.078-.46 1.875a3.2 3.2 0 0 1-1.262 1.236q-.8.435-1.84.434-1.16 0-2.038-.545-.873-.545-1.363-1.551-.486-1.005-.486-2.387 0-1.035.277-1.862a4.1 4.1 0 0 1 .793-1.415q.51-.583 1.21-.895a3.7 3.7 0 0 1 1.538-.31q.69 0 1.287.208a3.46 3.46 0 0 1 1.858 1.483q.315.52.435 1.155zm2.952 6v-8.727h3.051q.913 0 1.504.315.593.31.882.84.29.524.29 1.163 0 .563-.2.929-.195.366-.52.58a2.4 2.4 0 0 1-.695.315v.085q.4.025.806.281.405.255.677.733.273.478.273 1.168 0 .655-.298 1.18-.3.525-.942.831-.643.307-1.675.307zm1.057-.937h2.096q1.035 0 1.47-.401.44-.405.44-.98 0-.444-.226-.818a1.64 1.64 0 0 0-.644-.605q-.417-.23-.989-.23h-2.147zm0-3.955h1.96q.477 0 .86-.187.39-.189.614-.529.23-.34.23-.801 0-.576-.4-.976-.4-.405-1.27-.405h-1.994zm7.344 3.776a.74.74 0 0 1-.541-.226.74.74 0 0 1-.226-.541q0-.315.226-.542a.74.74 0 0 1 .541-.226q.315 0 .541.226.225.226.226.541 0 .21-.106.384a.8.8 0 0 1-.277.281.73.73 0 0 1-.384.102m0-4.415a.74.74 0 0 1-.541-.226.74.74 0 0 1-.226-.541q0-.315.226-.541a.74.74 0 0 1 .541-.226q.315 0 .541.225.225.227.226.542 0 .209-.106.383a.8.8 0 0 1-.277.282.73.73 0 0 1-.384.102M31.982 59v-.767l2.88-3.153q.508-.554.836-.963.327-.414.486-.776.162-.366.162-.767 0-.46-.222-.797a1.44 1.44 0 0 0-.597-.52 1.9 1.9 0 0 0-.852-.183q-.503 0-.878.209a1.44 1.44 0 0 0-.575.575 1.8 1.8 0 0 0-.2.87h-1.006q0-.767.354-1.347.352-.58.963-.904.614-.324 1.376-.324.767 0 1.36.324.591.324.928.874t.337 1.223q0 .48-.175.942-.17.456-.596 1.018-.422.558-1.172 1.364l-1.96 2.096v.069h4.057V59zm9.993.12q-.75 0-1.351-.299a2.5 2.5 0 0 1-.963-.818 2.23 2.23 0 0 1-.397-1.185h1.023q.06.593.537.98a1.8 1.8 0 0 0 1.15.384q.538 0 .955-.252.423-.25.66-.69a2.05 2.05 0 0 0 .244-1.001q0-.571-.252-1.019a1.84 1.84 0 0 0-.682-.712 1.93 1.93 0 0 0-.992-.264 2.7 2.7 0 0 0-.823.124 2.3 2.3 0 0 0-.695.32l-.988-.12.528-4.295h4.534v.937h-3.647l-.307 2.574h.05q.27-.213.674-.354.405-.14.844-.14.801 0 1.428.383.63.38.988 1.04.363.66.362 1.509 0 .835-.375 1.491a2.74 2.74 0 0 1-1.022 1.031 2.9 2.9 0 0 1-1.483.375m4.369-1.91v-.87l3.835-6.067h.63v1.346h-.426l-2.897 4.586v.068h5.165v.937zM50.452 59v-8.727h1.005V59zm4.902-1.193-.068.46q-.072.486-.221 1.04-.146.554-.303 1.044-.158.49-.26.78h-.767l.145-.72q.09-.449.179-1.002.094-.549.153-1.125l.051-.477zm8.29-7.534V59h-1.057v-7.62h-.051l-2.13 1.415v-1.073l2.18-1.45zM69 59.119q-.963 0-1.64-.524-.678-.528-1.036-1.53-.358-1.005-.358-2.429 0-1.414.358-2.416.362-1.006 1.04-1.534.681-.533 1.636-.533t1.632.533q.682.529 1.04 1.534.363 1.002.362 2.416 0 1.424-.358 2.43-.357 1-1.035 1.53-.678.523-1.64.523m0-.937q.955 0 1.483-.92.528-.922.529-2.626 0-1.133-.243-1.93-.24-.797-.69-1.215a1.52 1.52 0 0 0-1.08-.416q-.945 0-1.478.933-.534.93-.533 2.63 0 1.133.239 1.925.238.793.686 1.207.45.413 1.086.413m7.551.937a3.3 3.3 0 0 1-1.073-.204 2.6 2.6 0 0 1-.98-.66q-.444-.47-.712-1.266-.27-.801-.269-2.012 0-1.158.218-2.054.217-.899.63-1.513.414-.617.998-.937a2.7 2.7 0 0 1 1.325-.32q.732 0 1.304.294.575.29.937.81t.469 1.198h-1.04a1.93 1.93 0 0 0-.562-.976q-.418-.388-1.108-.388-1.014 0-1.598.882-.58.882-.584 2.476h.068a2.57 2.57 0 0 1 1.3-1.019q.4-.14.848-.14.75 0 1.372.375.622.371.997 1.027.375.651.375 1.495 0 .81-.362 1.483a2.76 2.76 0 0 1-1.019 1.066q-.65.392-1.534.383m0-.937q.538 0 .963-.269a1.9 1.9 0 0 0 .678-.72q.252-.45.252-1.005 0-.542-.243-.985a1.85 1.85 0 0 0-.66-.712 1.75 1.75 0 0 0-.956-.264q-.404 0-.754.162-.35.157-.613.435a2.1 2.1 0 0 0-.41.635 2.02 2.02 0 0 0 .767 2.446q.431.276.976.277m5.698-.375-.068.46q-.074.486-.222 1.04-.145.554-.303 1.044-.157.49-.26.78h-.767l.145-.72q.09-.449.18-1.002.093-.549.153-1.125l.051-.477zm8-7.654q.537.004 1.073.205.537.2.98.665.444.46.712 1.257.27.797.269 1.998 0 1.164-.222 2.067-.218.9-.63 1.517a2.8 2.8 0 0 1-.998.938q-.584.32-1.32.32a2.9 2.9 0 0 1-1.31-.29 2.6 2.6 0 0 1-.937-.814 2.8 2.8 0 0 1-.464-1.215h1.04q.14.6.558.993.422.388 1.112.388 1.01 0 1.594-.882.588-.883.588-2.493h-.068q-.24.357-.567.618a2.5 2.5 0 0 1-1.58.54q-.75 0-1.377-.37a2.8 2.8 0 0 1-.998-1.027q-.37-.655-.37-1.5 0-.801.358-1.466.362-.668 1.014-1.065.656-.396 1.543-.384m0 .938q-.536 0-.968.268-.426.264-.677.716-.248.449-.248.993 0 .546.24.993.242.442.66.708.42.26.958.26.405 0 .755-.158.35-.162.61-.44.263-.28.412-.634.15-.358.15-.746 0-.51-.248-.959a1.96 1.96 0 0 0-.673-.724 1.74 1.74 0 0 0-.971-.277m7.556 8.028q-.963 0-1.64-.524-.678-.528-1.036-1.53-.358-1.005-.358-2.429 0-1.414.358-2.416.362-1.006 1.04-1.534.681-.533 1.636-.533t1.632.533q.682.529 1.04 1.534.362 1.002.362 2.416 0 1.424-.358 2.43-.358 1-1.035 1.53-.678.523-1.641.523m0-.937q.954 0 1.483-.92.528-.922.528-2.626 0-1.133-.243-1.93-.238-.797-.69-1.215a1.52 1.52 0 0 0-1.078-.417q-.946 0-1.479.933-.532.93-.532 2.63 0 1.133.238 1.925.24.793.686 1.207.452.413 1.087.413m7.924.818v-8.727h1.057v3.886h4.653v-3.886h1.057V59h-1.057v-3.903h-4.653V59zm8.883 0v-8.727h5.267v.937h-4.21v2.95h3.937v.937h-3.937v2.965h4.278V59zm7.683-8.727 2.25 3.63h.068l2.25-3.63h1.245l-2.745 4.363L128.108 59h-1.245l-2.25-3.562h-.068L122.295 59h-1.244l2.812-4.364-2.812-4.363zm7.784 7.61a.74.74 0 0 1-.541-.225.74.74 0 0 1-.226-.541q0-.315.226-.542a.74.74 0 0 1 .541-.226.74.74 0 0 1 .542.226.74.74 0 0 1 .226.541q0 .21-.107.384a.8.8 0 0 1-.277.281.73.73 0 0 1-.384.102m0-4.414a.74.74 0 0 1-.541-.226.74.74 0 0 1-.226-.541q0-.315.226-.541a.74.74 0 0 1 .541-.226.74.74 0 0 1 .542.225.74.74 0 0 1 .226.542q0 .209-.107.383a.8.8 0 0 1-.277.282.73.73 0 0 1-.384.102m6.084 5.53v-8.727h5.233v.937h-4.177v2.95h3.784v.937h-3.784V59zm7.043 0v-8.727h5.267v.937h-4.211v2.95h3.938v.937h-3.938v2.965h4.279V59zm9.916.12a3.3 3.3 0 0 1-1.074-.205 2.6 2.6 0 0 1-.98-.66q-.444-.47-.712-1.266-.268-.801-.268-2.012 0-1.158.217-2.054.217-.899.631-1.513a2.84 2.84 0 0 1 .997-.937 2.7 2.7 0 0 1 1.325-.32q.733 0 1.304.294.575.29.938.81.362.52.468 1.198h-1.039a1.93 1.93 0 0 0-.563-.976q-.417-.388-1.108-.388-1.014 0-1.598.882-.58.882-.584 2.476h.068a2.58 2.58 0 0 1 1.3-1.019q.4-.14.848-.14.75 0 1.372.375.623.371.998 1.027.375.651.375 1.495 0 .81-.363 1.483a2.76 2.76 0 0 1-1.018 1.066q-.652.392-1.534.383m0-.938q.537 0 .963-.269.43-.268.677-.72.252-.452.252-1.005 0-.542-.243-.985a1.85 1.85 0 0 0-.661-.712 1.74 1.74 0 0 0-.954-.264q-.405 0-.754.162-.35.157-.614.435-.26.276-.409.635a2.02 2.02 0 0 0 .767 2.446q.43.276.976.277m5.102.818h-1.108l3.204-8.727h1.091L164.616 59h-1.108l-2.608-7.347h-.068zm.409-3.41h4.466v.938h-4.466zm9.916 3.53q-.75 0-1.351-.299a2.5 2.5 0 0 1-.963-.818 2.23 2.23 0 0 1-.396-1.185h1.022q.06.593.537.98.482.384 1.151.384.537 0 .954-.252a1.77 1.77 0 0 0 .661-.69q.243-.444.243-1.001 0-.571-.252-1.019a1.84 1.84 0 0 0-.681-.712 1.93 1.93 0 0 0-.993-.264 2.7 2.7 0 0 0-.823.124 2.3 2.3 0 0 0-.694.32l-.989-.12.528-4.295h4.535v.937h-3.648l-.307 2.574h.051q.269-.213.673-.354.405-.14.844-.14a2.68 2.68 0 0 1 2.416 1.423q.363.66.363 1.509 0 .835-.375 1.491a2.75 2.75 0 0 1-1.023 1.031q-.652.375-1.483.375m5.085-.12h-1.108l3.204-8.727h1.091L180.026 59h-1.108l-2.608-7.347h-.068zm.409-3.41h4.466v.938h-4.466zM8.08 68H7.023a2.2 2.2 0 0 0-.89-1.38 2.4 2.4 0 0 0-.73-.359 3 3 0 0 0-.835-.119q-.792 0-1.436.4-.639.401-1.018 1.181-.375.78-.375 1.913t.375 1.914q.38.78 1.018 1.18.645.4 1.436.4.435 0 .836-.119.4-.12.728-.353a2.25 2.25 0 0 0 .891-1.385H8.08a3.5 3.5 0 0 1-.435 1.197 3.27 3.27 0 0 1-1.836 1.458q-.58.19-1.24.191-1.118 0-1.986-.545-.87-.545-1.368-1.551-.5-1.005-.499-2.387 0-1.38.499-2.386.498-1.005 1.368-1.551t1.985-.546q.66 0 1.24.192.584.192 1.053.563.47.366.784.895.315.523.435 1.197m1.708-2.727h1.26l2.967 7.244h.102l2.966-7.244h1.261V74h-.988v-6.63h-.086L14.543 74h-.954l-2.728-6.63h-.085V74h-.988zm9.925 0h1.21l2.421 4.074h.102l2.42-4.074h1.211l-3.153 5.13V74h-1.057v-3.597zM28.443 74v-8.727h1.058v4.33h.102l3.92-4.33h1.381l-3.665 3.937L34.904 74h-1.278l-3.034-4.057-1.091 1.228V74zm8.425-1.117a.74.74 0 0 1-.54-.225.74.74 0 0 1-.227-.541q0-.315.226-.542a.74.74 0 0 1 .541-.226q.315 0 .542.226.225.226.226.541 0 .21-.107.384a.8.8 0 0 1-.277.281.73.73 0 0 1-.384.102m0-4.414a.74.74 0 0 1-.54-.226.74.74 0 0 1-.227-.541q0-.315.226-.541a.74.74 0 0 1 .541-.226q.315 0 .542.225.225.227.226.542 0 .209-.107.383a.8.8 0 0 1-.277.282.73.73 0 0 1-.384.102m8.777 5.65q-.964 0-1.64-.524-.68-.528-1.036-1.53-.358-1.005-.358-2.429 0-1.414.358-2.416.362-1.006 1.04-1.534.682-.533 1.636-.533t1.632.533q.681.529 1.04 1.534.362 1.002.362 2.416 0 1.424-.358 2.43-.358 1-1.036 1.53-.677.523-1.64.523m0-.937q.954 0 1.483-.92.528-.921.528-2.626 0-1.133-.243-1.93-.238-.797-.69-1.215a1.52 1.52 0 0 0-1.078-.417q-.946 0-1.479.933-.533.93-.533 2.63 0 1.133.24 1.925.238.793.685 1.207.451.413 1.087.413m5.866-.375-.069.46q-.072.486-.221 1.04-.145.554-.303 1.044-.157.49-.26.78h-.767l.145-.72a27 27 0 0 0 .332-2.127l.052-.477zM57.004 74l3.904-7.722v-.068h-4.5v-.937h5.59v.988L58.113 74zm9.333.12q-.844 0-1.504-.29a2.6 2.6 0 0 1-1.044-.806 2.17 2.17 0 0 1-.418-1.206h1.074q.035.422.29.729.255.303.669.469.412.165.916.166.562 0 .997-.196t.682-.546.247-.81q0-.48-.239-.847a1.6 1.6 0 0 0-.699-.58q-.459-.21-1.125-.209h-.698v-.937h.698q.52 0 .912-.188.397-.187.618-.528.226-.34.226-.801 0-.444-.196-.772a1.34 1.34 0 0 0-.554-.51 1.8 1.8 0 0 0-.835-.184q-.451 0-.852.166-.396.162-.648.473a1.23 1.23 0 0 0-.273.742h-1.023q.026-.686.414-1.202a2.6 2.6 0 0 1 1.014-.81q.63-.29 1.385-.29.81 0 1.39.328.58.324.89.857t.31 1.15q0 .738-.387 1.258a1.97 1.97 0 0 1-1.044.72v.068q.827.136 1.291.703.465.563.465 1.394 0 .711-.388 1.278-.384.562-1.048.886-.666.324-1.513.324m5.94-1.313-.069.46q-.072.486-.222 1.04-.144.554-.302 1.044t-.26.78h-.767l.145-.72a28 28 0 0 0 .332-2.127l.051-.477zm8.118 1.312a3.3 3.3 0 0 1-1.074-.204 2.6 2.6 0 0 1-.98-.66q-.442-.47-.712-1.266-.267-.801-.268-2.012 0-1.158.217-2.054.217-.899.631-1.513.414-.617.997-.937a2.7 2.7 0 0 1 1.325-.32q.734 0 1.304.294.576.29.938.81.363.52.469 1.198h-1.04a1.93 1.93 0 0 0-.562-.976q-.418-.388-1.109-.388-1.014 0-1.598.882-.579.882-.583 2.476h.068a2.56 2.56 0 0 1 1.3-1.019q.4-.14.848-.14.75 0 1.372.375.622.371.997 1.027.375.651.375 1.496 0 .81-.362 1.483-.362.667-1.019 1.065-.651.392-1.534.383m0-.937q.538 0 .963-.269a1.9 1.9 0 0 0 .678-.72q.25-.45.251-1.005 0-.542-.243-.985a1.85 1.85 0 0 0-.66-.712 1.75 1.75 0 0 0-.955-.264q-.405 0-.754.162-.349.157-.614.435-.26.276-.409.635-.15.354-.149.746a2.02 2.02 0 0 0 .916 1.7q.43.276.976.277m4.59.818v-.767l2.881-3.153q.507-.554.836-.963.327-.414.485-.776.162-.366.162-.767 0-.46-.221-.797a1.44 1.44 0 0 0-.597-.52 1.9 1.9 0 0 0-.852-.183q-.503 0-.878.209a1.44 1.44 0 0 0-.575.575q-.2.37-.2.87H85.02q0-.767.354-1.347.352-.58.963-.904.613-.324 1.376-.324.767 0 1.36.324.591.324.928.874t.337 1.223q0 .48-.175.942-.17.456-.596 1.018-.422.558-1.172 1.364l-1.96 2.096v.069h4.056V74zm8.783-1.193-.068.46q-.072.486-.221 1.04-.145.554-.303 1.044t-.26.78h-.767l.145-.72a28 28 0 0 0 .332-2.127l.051-.477zm8.068 1.312q-.963 0-1.64-.524-.678-.528-1.036-1.53-.358-1.005-.358-2.429 0-1.414.358-2.416.362-1.006 1.04-1.534.681-.533 1.636-.533t1.632.533q.682.529 1.04 1.534.362 1.002.362 2.416 0 1.424-.358 2.43-.357 1-1.035 1.53-.678.523-1.641.523m0-.937q.955 0 1.483-.92.528-.921.529-2.626 0-1.133-.243-1.93-.239-.797-.691-1.215a1.52 1.52 0 0 0-1.078-.417q-.945 0-1.478.933-.533.93-.533 2.63 0 1.133.238 1.925.24.793.687 1.207.451.413 1.086.413m11.299.818v-8.727h2.949q1.027 0 1.679.37.656.367.972.993.315.627.315 1.398 0 .772-.315 1.402-.312.63-.963 1.006-.652.37-1.671.37h-2.114v-.937h2.08q.703 0 1.129-.243.426-.242.618-.656.196-.419.196-.942 0-.525-.196-.937a1.4 1.4 0 0 0-.622-.648q-.43-.24-1.142-.239h-1.858V74zm9.407.153q-.622 0-1.129-.234a1.93 1.93 0 0 1-.805-.686q-.299-.452-.299-1.09 0-.564.222-.913.222-.353.592-.554.37-.2.818-.298.452-.102.908-.162.597-.077.967-.115.375-.043.546-.14.174-.099.175-.342v-.034q0-.63-.346-.98-.34-.35-1.035-.35-.72 0-1.129.316-.41.315-.576.673l-.954-.34q.255-.597.682-.93.43-.336.937-.468.511-.137 1.006-.137.315 0 .724.077.413.073.797.303.388.23.644.694.255.465.255 1.245V74h-1.005v-.886h-.052a1.8 1.8 0 0 1-.341.456q-.238.243-.634.413-.397.17-.968.17m.154-.903q.596 0 1.005-.234a1.6 1.6 0 0 0 .622-.606q.214-.37.214-.78v-.92q-.065.077-.282.14-.213.06-.494.107a23 23 0 0 1-.963.128q-.392.052-.733.166a1.3 1.3 0 0 0-.546.337q-.204.222-.204.605 0 .525.388.793.391.264.993.264m5.687-3.187V74h-1.005v-6.545h.971v1.022h.086q.23-.499.698-.8.469-.308 1.211-.308.665 0 1.163.273.498.269.776.818.276.546.277 1.38V74h-1.006v-4.09q0-.772-.401-1.203-.4-.434-1.099-.434-.482 0-.861.209-.375.209-.592.609-.218.4-.218.972m8.861-2.608v.852h-3.392v-.852zm-2.404-1.569h1.006v6.239q0 .426.124.64.128.208.324.28.2.069.421.069.166 0 .273-.017l.171-.034.204.903a2 2 0 0 1-.285.077 2 2 0 0 1-.465.042q-.426 0-.835-.183a1.66 1.66 0 0 1-.673-.558q-.264-.376-.265-.946zm6.505 8.25q-.886 0-1.555-.421a2.87 2.87 0 0 1-1.04-1.18q-.37-.76-.37-1.774 0-1.022.37-1.785.375-.763 1.04-1.185.67-.422 1.555-.422.886 0 1.552.422.669.422 1.039 1.185.375.763.375 1.785 0 1.015-.375 1.773-.37.76-1.039 1.18-.666.422-1.552.422m0-.903q.674 0 1.108-.345t.644-.908a3.5 3.5 0 0 0 .209-1.219q0-.656-.209-1.223a2.06 2.06 0 0 0-.644-.916q-.434-.35-1.108-.35-.673 0-1.108.35a2.06 2.06 0 0 0-.643.916 3.5 3.5 0 0 0-.209 1.223q0 .656.209 1.22.209.561.643.907.435.345 1.108.345m5.507-3.17V74h-1.005v-6.546h.971v1.023h.085q.231-.499.699-.8.47-.308 1.21-.308.665 0 1.164.273.499.269.775.818.277.546.277 1.38V74h-1.005v-4.09q0-.772-.401-1.203-.4-.434-1.099-.434-.482 0-.861.209-.376.209-.592.609-.218.4-.218.972m8.758 4.073q-.945 0-1.632-.417a2.8 2.8 0 0 1-1.052-1.176q-.367-.759-.367-1.765t.367-1.772a2.9 2.9 0 0 1 1.031-1.202q.665-.435 1.551-.435a3.1 3.1 0 0 1 1.01.17q.498.172.908.555.409.38.652 1.005.243.627.243 1.543v.426h-5.046v-.87h4.023q0-.552-.222-.988a1.67 1.67 0 0 0-.622-.686 1.74 1.74 0 0 0-.946-.251q-.6 0-1.04.298a2 2 0 0 0-.669.767 2.26 2.26 0 0 0-.234 1.014v.58q0 .741.256 1.257.26.51.72.78a2.1 2.1 0 0 0 1.069.264q.397 0 .716-.11.324-.116.559-.342a1.55 1.55 0 0 0 .362-.57l.971.272q-.153.495-.515.87a2.5 2.5 0 0 1-.895.579 3.3 3.3 0 0 1-1.198.204m4.973-.068a.74.74 0 0 1-.541-.226.74.74 0 0 1-.226-.54q0-.317.226-.542a.74.74 0 0 1 .541-.226.74.74 0 0 1 .542.226.74.74 0 0 1 .225.541q0 .21-.106.384a.8.8 0 0 1-.277.28.73.73 0 0 1-.384.103m0-4.858a.74.74 0 0 1-.541-.226.74.74 0 0 1-.226-.54q0-.316.226-.542a.74.74 0 0 1 .541-.226.74.74 0 0 1 .542.226.74.74 0 0 1 .225.541q0 .21-.106.384a.8.8 0 0 1-.277.281.73.73 0 0 1-.384.102m5.93 4.79v-.767l2.881-3.154q.507-.554.835-.962.328-.414.486-.776.162-.366.162-.767 0-.46-.222-.797a1.44 1.44 0 0 0-.596-.52 1.9 1.9 0 0 0-.853-.183q-.503 0-.878.209a1.44 1.44 0 0 0-.575.575q-.2.37-.2.87h-1.006q0-.768.354-1.347a2.46 2.46 0 0 1 .963-.904 2.9 2.9 0 0 1 1.376-.324q.768 0 1.36.324t.929.874.336 1.223q0 .48-.174.942-.171.456-.597 1.018-.422.558-1.172 1.364l-1.96 2.096v.069h4.057V74zm10.215.12q-.844 0-1.505-.29a2.6 2.6 0 0 1-1.044-.806 2.16 2.16 0 0 1-.417-1.206h1.074q.034.422.289.729.256.303.669.469t.917.166q.562 0 .997-.196t.681-.546q.248-.349.248-.81 0-.48-.239-.847a1.6 1.6 0 0 0-.699-.58q-.46-.21-1.125-.209h-.699v-.937h.699q.52 0 .912-.188.396-.187.618-.528.226-.34.226-.801 0-.444-.196-.772a1.35 1.35 0 0 0-.554-.51 1.8 1.8 0 0 0-.835-.184q-.453 0-.853.166-.396.162-.647.473a1.23 1.23 0 0 0-.273.742h-1.023q.026-.686.413-1.202a2.6 2.6 0 0 1 1.015-.81q.63-.29 1.385-.29.809 0 1.389.328.58.324.89.857.312.533.312 1.15 0 .738-.388 1.258a1.97 1.97 0 0 1-1.044.72v.068q.826.136 1.291.703.465.563.464 1.394 0 .711-.387 1.278-.383.562-1.049.886t-1.512.324m4.487-1.91v-.87l3.835-6.067h.631v1.346h-.426l-2.898 4.585v.069h5.165v.937zm4.108 1.79v-8.727h1.005V74zm6.523.12q-.75 0-1.351-.299a2.5 2.5 0 0 1-.963-.818 2.2 2.2 0 0 1-.396-1.185h1.022q.06.593.537.98.482.384 1.151.384.537 0 .954-.252a1.77 1.77 0 0 0 .661-.69q.243-.444.243-1.001 0-.571-.252-1.019a1.84 1.84 0 0 0-.681-.712 1.93 1.93 0 0 0-.993-.264 2.7 2.7 0 0 0-.823.124 2.3 2.3 0 0 0-.694.32l-.989-.12.528-4.295h4.534v.937h-3.647l-.307 2.574h.051q.268-.213.673-.354t.844-.14a2.68 2.68 0 0 1 2.416 1.423q.362.66.362 1.509 0 .835-.375 1.491a2.74 2.74 0 0 1-1.022 1.031q-.652.375-1.483.375M206.97 68h-1.056a2.2 2.2 0 0 0-.891-1.38 2.4 2.4 0 0 0-.729-.359 3 3 0 0 0-.835-.119q-.792 0-1.436.4-.64.401-1.018 1.181-.375.78-.375 1.913t.375 1.914q.379.78 1.018 1.18.644.4 1.436.4.435 0 .835-.119.4-.12.729-.353a2.3 2.3 0 0 0 .563-.584q.234-.35.328-.801h1.056a3.5 3.5 0 0 1-.434 1.197q-.316.528-.784.9-.47.366-1.053.558-.58.19-1.24.191-1.116 0-1.986-.545-.868-.545-1.368-1.551-.498-1.005-.498-2.387 0-1.38.498-2.386.5-1.005 1.368-1.551.87-.546 1.986-.546.66 0 1.24.192.584.192 1.053.563.469.366.784.895.315.523.434 1.197M4.006 79.864 1.193 90.312h-.92l2.813-10.448zM10.295 89l-2.387-8.727h1.074l1.824 7.108h.085l1.858-7.108h1.193L15.8 87.38h.086l1.823-7.108h1.074L16.397 89h-1.091l-1.926-6.954h-.068L11.386 89zm10.986.153a2.7 2.7 0 0 1-1.13-.234 1.94 1.94 0 0 1-.805-.686q-.3-.452-.299-1.09 0-.564.222-.913.222-.353.592-.554.371-.2.819-.298.45-.102.907-.162.596-.077.968-.115.375-.043.545-.14.174-.099.175-.342v-.034q0-.63-.345-.98-.342-.35-1.036-.35-.72 0-1.13.316-.408.315-.574.673l-.955-.34q.256-.597.682-.93.431-.336.937-.468.512-.137 1.006-.137.316 0 .724.077.414.073.797.303.388.23.644.694.256.465.256 1.245V89h-1.006v-.886h-.051a1.8 1.8 0 0 1-.341.456q-.24.243-.635.413-.396.17-.968.17m.153-.903q.597 0 1.006-.234a1.6 1.6 0 0 0 .835-1.385v-.92q-.065.075-.281.14-.213.06-.495.106a22 22 0 0 1-.963.128q-.392.052-.733.166a1.26 1.26 0 0 0-.545.337q-.205.222-.205.605 0 .525.388.793.391.264.993.264m4.682.75v-6.545h.972v.988h.068q.18-.486.648-.788a1.9 1.9 0 0 1 1.056-.303q.112 0 .277.004.166.005.252.013v1.023a3 3 0 0 0-.235-.038q-.178-.03-.379-.03a1.8 1.8 0 0 0-.852.2 1.47 1.47 0 0 0-.801 1.334V89zm4.465 0v-6.545h.971v1.022h.086q.204-.524.66-.814.457-.294 1.095-.294.648 0 1.078.294.435.29.678.814h.068q.252-.507.755-.805.503-.303 1.206-.303.877 0 1.436.55.558.546.558 1.7V89h-1.006v-4.38q0-.726-.396-1.036a1.47 1.47 0 0 0-.933-.311q-.69 0-1.07.417-.38.413-.38 1.049V89h-1.022v-4.483q0-.558-.362-.9-.363-.345-.934-.344-.39 0-.732.209-.337.208-.546.58a1.7 1.7 0 0 0-.204.847V89zm13.94 0v-8.727h2.95q1.023 0 1.679.35.656.345.971.95.316.605.316 1.376t-.316 1.368-.967.937q-.652.337-1.666.337h-2.386v-.955h2.352q.698 0 1.125-.204.43-.204.622-.58.196-.38.196-.903 0-.525-.196-.916a1.34 1.34 0 0 0-.626-.605q-.431-.218-1.138-.218h-1.858V89zm4.109-3.92L50.778 89H49.55l-2.113-3.92zm6.105 4.056q-.945 0-1.632-.417a2.8 2.8 0 0 1-1.052-1.176q-.367-.759-.367-1.765t.367-1.772a2.9 2.9 0 0 1 1.031-1.202q.664-.435 1.551-.435.512 0 1.01.17.498.172.908.555.408.38.652 1.005.243.627.243 1.543v.426H52.4v-.87h4.023q0-.552-.222-.988a1.67 1.67 0 0 0-.622-.686 1.74 1.74 0 0 0-.946-.251q-.6 0-1.04.298-.435.294-.669.767a2.25 2.25 0 0 0-.234 1.014v.58q0 .741.256 1.257.26.51.72.78a2.1 2.1 0 0 0 1.07.264q.396 0 .715-.11.324-.116.559-.342.233-.23.362-.57l.971.272q-.153.495-.515.87-.363.37-.895.579a3.3 3.3 0 0 1-1.198.204m6.712 0a2.56 2.56 0 0 1-1.445-.413q-.626-.417-.98-1.176-.353-.763-.353-1.803 0-1.03.353-1.79.354-.758.985-1.171.63-.414 1.457-.414.64 0 1.01.213.375.21.571.478.2.263.311.434h.085v-3.221h1.006V89h-.972v-1.006h-.119q-.111.18-.315.452-.205.269-.584.482-.38.208-1.01.208m.136-.903q.606 0 1.023-.315.418-.32.635-.883.217-.566.217-1.308 0-.733-.213-1.282a1.87 1.87 0 0 0-.63-.861q-.419-.311-1.032-.311-.638 0-1.065.328-.422.324-.635.882-.21.555-.209 1.244 0 .7.213 1.27.217.567.64.904.426.332 1.056.332m14.084-7.96h1.057v5.778q0 .896-.422 1.598a2.95 2.95 0 0 1-1.18 1.104q-.763.4-1.79.4t-1.79-.4a3 3 0 0 1-1.184-1.104 3.07 3.07 0 0 1-.418-1.598v-5.778h1.057v5.693q0 .639.281 1.138.281.495.801.78.525.28 1.253.28.729 0 1.253-.28.524-.285.8-.78.282-.5.282-1.138z"/></svg>