<svg xmlns="http://www.w3.org/2000/svg" width="214" height="92" fill="none"><path fill="#000014" d="M7.524 22a.74.74 0 0 1-.504-.192.74.74 0 0 1-.192-.504V6.688q0-.264.192-.48a.7.7 0 0 1 .504-.216h3.936q.288 0 .48.216a.67.67 0 0 1 .216.48V18.64q0 .288.216.504a.7.7 0 0 0 .48.192h6.624q.264 0 .48.216a.62.62 0 0 1 .216.48v1.272a.7.7 0 0 1-.216.504.7.7 0 0 1-.48.192zm25.296-2.664a.7.7 0 0 0 .48-.192.7.7 0 0 0 .216-.504v-6.624a.6.6 0 0 0-.216-.456.67.67 0 0 0-.48-.216h-3.96a.67.67 0 0 0-.48.216.6.6 0 0 0-.216.456v6.624q0 .288.216.504a.7.7 0 0 0 .48.192zM26.196 22a.7.7 0 0 1-.48-.192.7.7 0 0 1-.216-.504v-1.272a.62.62 0 0 0-.216-.48.62.62 0 0 0-.48-.216h-1.272a.74.74 0 0 1-.504-.192.74.74 0 0 1-.192-.504v-6.624q0-.264.192-.456a.7.7 0 0 1 .504-.216h1.272a.62.62 0 0 0 .48-.216.67.67 0 0 0 .216-.48V9.352q0-.264.216-.48a.67.67 0 0 1 .48-.216h6.624q.264 0 .48.216a.67.67 0 0 1 .216.48v1.296q0 .264.192.48a.67.67 0 0 0 .48.216h1.296a.67.67 0 0 0 .48-.216.67.67 0 0 0 .216-.48V9.352q0-.264.192-.48a.7.7 0 0 1 .504-.216h1.272q.264 0 .48.216a.67.67 0 0 1 .216.48v11.952a.7.7 0 0 1-.216.504.7.7 0 0 1-.48.192h-1.272a.74.74 0 0 1-.504-.192.74.74 0 0 1-.192-.504v-1.272a.62.62 0 0 0-.216-.48.67.67 0 0 0-.48-.216h-1.296a.67.67 0 0 0-.48.216.65.65 0 0 0-.192.48v1.272a.7.7 0 0 1-.216.504.7.7 0 0 1-.48.192zm18.664 5.328a.7.7 0 0 1-.504-.216.65.65 0 0 1-.192-.48V9.352q0-.264.192-.48a.7.7 0 0 1 .504-.216h1.272q.288 0 .48.216a.67.67 0 0 1 .216.48v1.296q0 .264.216.48a.67.67 0 0 0 .48.216h1.272a.62.62 0 0 0 .48-.216.67.67 0 0 0 .216-.48V9.352q0-.264.216-.48a.67.67 0 0 1 .48-.216h6.624q.264 0 .48.216a.67.67 0 0 1 .216.48v1.296q0 .264.192.48a.7.7 0 0 0 .504.216h1.272q.264 0 .48.216.216.192.216.456v6.624a.7.7 0 0 1-.216.504.7.7 0 0 1-.48.192h-1.272a.7.7 0 0 0-.504.216.65.65 0 0 0-.192.48v1.272a.7.7 0 0 1-.216.504.7.7 0 0 1-.48.192h-6.624a.7.7 0 0 0-.48.192.7.7 0 0 0-.216.504v3.936a.62.62 0 0 1-.216.48.62.62 0 0 1-.48.216zm9.288-7.992a.7.7 0 0 0 .48-.192.7.7 0 0 0 .216-.504v-6.624a.6.6 0 0 0-.216-.456.67.67 0 0 0-.48-.216h-3.96a.67.67 0 0 0-.48.216.6.6 0 0 0-.216.456v6.624q0 .288.216.504a.7.7 0 0 0 .48.192zm12.04-13.344a.74.74 0 0 1-.504-.192.74.74 0 0 1-.192-.504V4.024q0-.264.192-.48a.7.7 0 0 1 .504-.216h3.936q.288 0 .48.216a.67.67 0 0 1 .216.48v1.272a.7.7 0 0 1-.216.504.65.65 0 0 1-.48.192zm0 16.008a.74.74 0 0 1-.504-.192.74.74 0 0 1-.192-.504V9.352q0-.264.192-.48a.7.7 0 0 1 .504-.216h3.936q.288 0 .48.216a.67.67 0 0 1 .216.48v11.952a.7.7 0 0 1-.216.504.65.65 0 0 1-.48.192zm10.665 0a.74.74 0 0 1-.504-.192.74.74 0 0 1-.193-.504v-1.272q0-.288.192-.48a.7.7 0 0 1 .505-.216h6.624a.62.62 0 0 0 .456-.192.7.7 0 0 0 .215-.504v-1.272a.62.62 0 0 0-.215-.48.6.6 0 0 0-.457-.216h-6.623a.7.7 0 0 1-.504-.216.7.7 0 0 1-.193-.48v-3.96q0-.264.192-.456a.7.7 0 0 1 .505-.216h1.272a.62.62 0 0 0 .48-.216.67.67 0 0 0 .215-.48V9.352q0-.264.217-.48a.67.67 0 0 1 .48-.216h9.288q.262 0 .48.216a.67.67 0 0 1 .216.48v1.296a.67.67 0 0 1-.217.48.67.67 0 0 1-.48.216H82.18a.67.67 0 0 0-.48.216.6.6 0 0 0-.216.456v1.296q0 .264.217.48a.67.67 0 0 0 .48.216h6.624q.262 0 .48.216a.62.62 0 0 1 .216.48v3.936a.7.7 0 0 1-.217.504.7.7 0 0 1-.48.192h-1.296a.67.67 0 0 0-.48.216.65.65 0 0 0-.192.48v1.272a.7.7 0 0 1-.215.504.7.7 0 0 1-.48.192zm26.671 0a.74.74 0 0 1-.504-.192.74.74 0 0 1-.192-.504V6.688q0-.264.192-.48a.7.7 0 0 1 .504-.216h3.936q.288 0 .48.216a.67.67 0 0 1 .216.48V18.64q0 .288.216.504a.7.7 0 0 0 .48.192h6.624q.264 0 .48.216a.62.62 0 0 1 .216.48v1.272a.7.7 0 0 1-.216.504.7.7 0 0 1-.48.192zm25.296-2.664a.7.7 0 0 0 .48-.192.7.7 0 0 0 .216-.504v-6.624a.6.6 0 0 0-.216-.456.67.67 0 0 0-.48-.216h-3.96a.67.67 0 0 0-.48.216.6.6 0 0 0-.216.456v6.624q0 .288.216.504a.7.7 0 0 0 .48.192zM122.196 22a.7.7 0 0 1-.48-.192.7.7 0 0 1-.216-.504v-1.272a.62.62 0 0 0-.216-.48.62.62 0 0 0-.48-.216h-1.272a.74.74 0 0 1-.504-.192.74.74 0 0 1-.192-.504v-6.624q0-.264.192-.456a.7.7 0 0 1 .504-.216h1.272a.62.62 0 0 0 .48-.216.67.67 0 0 0 .216-.48V9.352q0-.264.216-.48a.67.67 0 0 1 .48-.216h6.624q.264 0 .48.216a.67.67 0 0 1 .216.48v1.296q0 .264.192.48a.67.67 0 0 0 .48.216h1.296a.67.67 0 0 0 .48-.216.67.67 0 0 0 .216-.48V9.352q0-.264.192-.48a.7.7 0 0 1 .504-.216h1.272q.264 0 .48.216a.67.67 0 0 1 .216.48v11.952a.7.7 0 0 1-.216.504.7.7 0 0 1-.48.192h-1.272a.74.74 0 0 1-.504-.192.74.74 0 0 1-.192-.504v-1.272a.62.62 0 0 0-.216-.48.67.67 0 0 0-.48-.216h-1.296a.67.67 0 0 0-.48.216.65.65 0 0 0-.192.48v1.272a.7.7 0 0 1-.216.504.7.7 0 0 1-.48.192zm18.664 0a.74.74 0 0 1-.504-.192.74.74 0 0 1-.192-.504v-3.936q0-.288.192-.48a.7.7 0 0 1 .504-.216h1.272a.62.62 0 0 0 .48-.216.67.67 0 0 0 .216-.48v-1.272q0-.288.216-.48a.67.67 0 0 1 .48-.216h3.96a.6.6 0 0 0 .456-.216.67.67 0 0 0 .216-.48v-1.296a.6.6 0 0 0-.216-.456.6.6 0 0 0-.456-.216h-6.624a.7.7 0 0 1-.504-.216.7.7 0 0 1-.192-.48V9.352q0-.264.192-.48a.7.7 0 0 1 .504-.216h11.952q.264 0 .48.216a.67.67 0 0 1 .216.48v3.96a.67.67 0 0 1-.216.48.67.67 0 0 1-.48.216h-1.296a.67.67 0 0 0-.48.216.65.65 0 0 0-.192.48v1.272a.67.67 0 0 1-.216.48.67.67 0 0 1-.48.216h-3.96a.67.67 0 0 0-.48.216.62.62 0 0 0-.216.48v1.272q0 .288.216.504a.7.7 0 0 0 .48.192h6.624q.264 0 .48.216a.62.62 0 0 1 .216.48v1.272a.7.7 0 0 1-.216.504.7.7 0 0 1-.48.192zm21.344 0a.7.7 0 0 1-.48-.192.7.7 0 0 1-.216-.504v-1.272a.62.62 0 0 0-.216-.48.62.62 0 0 0-.48-.216h-1.272a.74.74 0 0 1-.504-.192.74.74 0 0 1-.192-.504V9.352q0-.264.192-.48a.7.7 0 0 1 .504-.216h3.936q.288 0 .48.216a.67.67 0 0 1 .216.48v9.288q0 .288.216.504a.7.7 0 0 0 .48.192h3.96a.7.7 0 0 0 .48-.192.7.7 0 0 0 .216-.504V9.352q0-.264.192-.48a.67.67 0 0 1 .48-.216h3.96q.264 0 .48.216a.67.67 0 0 1 .216.48v11.952a.7.7 0 0 1-.216.504.7.7 0 0 1-.48.192h-1.272a.74.74 0 0 1-.504-.192.74.74 0 0 1-.192-.504v-1.272a.62.62 0 0 0-.216-.48.67.67 0 0 0-.48-.216h-1.296a.67.67 0 0 0-.48.216.65.65 0 0 0-.192.48v1.272a.7.7 0 0 1-.216.504.7.7 0 0 1-.48.192zm18.664 0a.74.74 0 0 1-.504-.192.74.74 0 0 1-.192-.504V4.024q0-.264.192-.48a.7.7 0 0 1 .504-.216h3.936q.288 0 .48.216a.67.67 0 0 1 .216.48v17.28a.7.7 0 0 1-.216.504.65.65 0 0 1-.48.192zm10.664-16.008a.74.74 0 0 1-.504-.192.74.74 0 0 1-.192-.504V4.024q0-.264.192-.48a.7.7 0 0 1 .504-.216h3.936q.288 0 .48.216a.67.67 0 0 1 .216.48v1.272a.7.7 0 0 1-.216.504.65.65 0 0 1-.48.192zm0 16.008a.74.74 0 0 1-.504-.192.74.74 0 0 1-.192-.504V9.352q0-.264.192-.48a.7.7 0 0 1 .504-.216h3.936q.288 0 .48.216a.67.67 0 0 1 .216.48v11.952a.7.7 0 0 1-.216.504.65.65 0 0 1-.48.192z"/><path fill="#000" d="M1.057 59v-8.727h2.949q1.023 0 1.679.35.655.344.972.95.315.605.315 1.376t-.315 1.368-.968.937q-.652.337-1.666.337H1.637v-.955h2.352q.698 0 1.125-.204.43-.205.622-.58.196-.38.196-.903 0-.525-.196-.916a1.34 1.34 0 0 0-.626-.605q-.431-.218-1.138-.218H2.114V59zm4.108-3.92L7.313 59H6.086l-2.114-3.92zM14.7 53a3 3 0 0 0-.37-.771 2.4 2.4 0 0 0-.542-.588 2.3 2.3 0 0 0-.708-.371 2.8 2.8 0 0 0-.869-.128 2.6 2.6 0 0 0-1.41.4q-.635.402-1.01 1.181-.375.78-.375 1.913t.379 1.914 1.027 1.18 1.457.4q.75 0 1.321-.319.576-.324.895-.912.324-.593.324-1.393l.324.068h-2.625v-.938h3.324v.938q0 1.078-.46 1.875a3.2 3.2 0 0 1-1.262 1.236q-.8.435-1.84.434-1.16 0-2.038-.545-.873-.545-1.363-1.551-.486-1.005-.486-2.387 0-1.035.277-1.862a4.1 4.1 0 0 1 .793-1.415q.51-.583 1.21-.895a3.7 3.7 0 0 1 1.538-.31q.69 0 1.287.208a3.46 3.46 0 0 1 1.858 1.483q.315.52.435 1.155zm2.952 6v-8.727h3.051q.913 0 1.504.315.593.31.882.84.29.524.29 1.163 0 .563-.2.929-.195.366-.52.58a2.4 2.4 0 0 1-.695.315v.085q.4.025.806.281.405.255.677.733.273.478.273 1.168 0 .655-.298 1.18-.3.525-.942.831-.643.307-1.675.307zm1.057-.937h2.096q1.035 0 1.47-.401.44-.405.44-.98 0-.444-.226-.818a1.64 1.64 0 0 0-.644-.605q-.417-.23-.989-.23h-2.147zm0-3.955h1.96q.477 0 .86-.187.39-.189.614-.529.23-.34.23-.801 0-.576-.4-.976-.4-.405-1.27-.405h-1.994zm7.344 3.776a.74.74 0 0 1-.541-.226.74.74 0 0 1-.226-.541q0-.315.226-.542a.74.74 0 0 1 .541-.226q.315 0 .541.226.225.226.226.541 0 .21-.106.384a.8.8 0 0 1-.277.281.73.73 0 0 1-.384.102m0-4.415a.74.74 0 0 1-.541-.226.74.74 0 0 1-.226-.541q0-.315.226-.541a.74.74 0 0 1 .541-.226q.315 0 .541.225.225.227.226.542 0 .209-.106.383a.8.8 0 0 1-.277.282.73.73 0 0 1-.384.102m8.998-3.196V59h-1.057v-7.62h-.051l-2.13 1.415v-1.073l2.181-1.45zM37.56 59v-.767l2.88-3.153q.508-.554.836-.963.328-.414.486-.776.162-.366.162-.767 0-.46-.222-.797a1.44 1.44 0 0 0-.597-.52 1.9 1.9 0 0 0-.852-.183q-.503 0-.878.209a1.44 1.44 0 0 0-.575.575q-.2.37-.2.87h-1.006q0-.767.354-1.347.353-.58.963-.904.614-.324 1.376-.324.768 0 1.36.324t.929.874q.336.55.336 1.223 0 .48-.175.942-.17.456-.596 1.018-.422.558-1.172 1.364l-1.96 2.096v.069h4.057V59zm8.783-1.193-.069.46q-.072.486-.221 1.04-.146.554-.303 1.044t-.26.78h-.767l.145-.72q.09-.449.18-1.002.093-.549.153-1.125l.05-.477zm8-7.654q.536.004 1.073.205t.98.665q.444.46.712 1.257t.268 1.998q0 1.164-.221 2.067-.217.9-.63 1.517a2.8 2.8 0 0 1-.998.938q-.585.32-1.321.32a2.9 2.9 0 0 1-1.308-.29 2.6 2.6 0 0 1-.938-.814 2.8 2.8 0 0 1-.464-1.215h1.04q.14.6.558.993.421.388 1.112.388 1.01 0 1.594-.882.588-.883.588-2.493h-.069q-.239.357-.566.618a2.5 2.5 0 0 1-1.581.54q-.75 0-1.377-.37a2.8 2.8 0 0 1-.997-1.027q-.37-.655-.37-1.5 0-.801.357-1.466a2.77 2.77 0 0 1 1.015-1.065q.655-.396 1.542-.384m0 .938q-.538 0-.968.268a1.93 1.93 0 0 0-.678.716q-.246.449-.247.993 0 .546.239.993.243.442.66.708.422.26.96.26.404 0 .753-.158.35-.162.61-.44.264-.28.413-.634.15-.358.15-.746 0-.51-.248-.959a1.96 1.96 0 0 0-.673-.724 1.74 1.74 0 0 0-.972-.277M62 59.119q-.843 0-1.504-.29a2.6 2.6 0 0 1-1.044-.805 2.17 2.17 0 0 1-.418-1.206h1.074q.035.422.29.729.255.303.669.469.412.165.916.166.562 0 .997-.196t.682-.546.247-.81q0-.48-.239-.847a1.6 1.6 0 0 0-.698-.58q-.46-.21-1.125-.209h-.7v-.937h.7q.519 0 .912-.188.396-.187.617-.528.226-.34.226-.801 0-.444-.196-.771a1.34 1.34 0 0 0-.554-.512 1.8 1.8 0 0 0-.835-.183q-.451 0-.852.166-.396.162-.648.473a1.23 1.23 0 0 0-.273.742h-1.022q.025-.686.413-1.202a2.6 2.6 0 0 1 1.014-.81q.63-.29 1.385-.29.81 0 1.39.328.58.324.89.857t.311 1.15q0 .738-.388 1.258a1.97 1.97 0 0 1-1.044.72v.068q.827.136 1.291.703.465.563.465 1.394 0 .711-.388 1.278-.384.562-1.048.886-.665.324-1.513.324m5.94-1.312-.069.46q-.072.486-.222 1.04-.144.554-.302 1.044t-.26.78h-.767l.145-.72a27 27 0 0 0 .332-2.127l.051-.477zm8.289-7.534V59h-1.057v-7.62h-.051l-2.131 1.415v-1.073l2.182-1.45zm5.407 8.846a3.3 3.3 0 0 1-1.073-.204 2.6 2.6 0 0 1-.98-.66q-.444-.47-.712-1.266-.27-.801-.269-2.012 0-1.158.218-2.054.218-.899.63-1.513.414-.617.997-.937a2.7 2.7 0 0 1 1.326-.32q.732 0 1.304.294.575.29.937.81t.469 1.198h-1.04a1.93 1.93 0 0 0-.562-.976q-.418-.388-1.108-.388-1.015 0-1.598.882-.58.882-.584 2.476h.068a2.56 2.56 0 0 1 1.3-1.019q.4-.14.848-.14.75 0 1.372.375.622.371.997 1.027.375.651.375 1.495 0 .81-.362 1.483a2.76 2.76 0 0 1-1.019 1.066q-.651.392-1.534.383m0-.937q.538 0 .963-.269a1.9 1.9 0 0 0 .678-.72q.252-.45.251-1.005 0-.542-.242-.985a1.85 1.85 0 0 0-.661-.712 1.75 1.75 0 0 0-.955-.264q-.404 0-.754.162-.349.157-.614.435a2.1 2.1 0 0 0-.409.635q-.149.353-.149.746a2.02 2.02 0 0 0 .916 1.7q.431.276.976.277m7.386.937q-.878 0-1.55-.31a2.54 2.54 0 0 1-1.045-.866q-.375-.555-.37-1.261a2.32 2.32 0 0 1 .822-1.811q.388-.32.865-.405v-.051a1.7 1.7 0 0 1-.997-.703 2.13 2.13 0 0 1-.367-1.24q-.003-.666.337-1.19t.938-.826a3 3 0 0 1 1.367-.303q.759 0 1.356.303.596.302.937.827.345.524.35 1.189-.005.694-.38 1.24-.37.54-.984.703v.05q.473.087.852.406.38.315.605.788.225.47.23 1.023-.004.707-.383 1.261a2.54 2.54 0 0 1-1.044.865q-.665.311-1.539.311m0-.937q.592 0 1.023-.192t.665-.541.239-.818a1.57 1.57 0 0 0-.256-.874 1.74 1.74 0 0 0-.686-.596 2.15 2.15 0 0 0-.985-.218q-.558 0-.997.218-.434.216-.686.596a1.54 1.54 0 0 0-.243.874 1.43 1.43 0 0 0 .226.818q.234.35.67.541.434.192 1.03.192m0-4.142q.47 0 .831-.188.367-.188.576-.524t.213-.788a1.46 1.46 0 0 0-.21-.771 1.36 1.36 0 0 0-.566-.512 1.85 1.85 0 0 0-.844-.183q-.49 0-.856.183-.367.18-.567.512a1.4 1.4 0 0 0-.196.77q-.004.453.2.79.21.336.576.523.366.188.843.188m7.87 4.96v-8.727h1.057v3.886h4.653v-3.886h1.057V59h-1.057v-3.903H97.95V59zm8.883 0v-8.727h5.267v.937h-4.21v2.95h3.937v.937h-3.937v2.965h4.278V59zm7.683-8.727 2.25 3.63h.068l2.25-3.63h1.245l-2.745 4.363L119.272 59h-1.245l-2.25-3.562h-.068L113.459 59h-1.244l2.812-4.364-2.812-4.363zm7.785 7.61a.74.74 0 0 1-.542-.225.74.74 0 0 1-.226-.541q0-.315.226-.542a.74.74 0 0 1 .542-.226q.315 0 .541.226a.74.74 0 0 1 .226.541q0 .21-.107.384a.8.8 0 0 1-.277.281.73.73 0 0 1-.383.102m0-4.414a.74.74 0 0 1-.542-.226.74.74 0 0 1-.226-.541q0-.315.226-.541a.74.74 0 0 1 .542-.226q.315 0 .541.225a.74.74 0 0 1 .226.542q0 .209-.107.383a.8.8 0 0 1-.277.282.73.73 0 0 1-.383.102m8.776 5.65q-.963 0-1.641-.524-.678-.528-1.035-1.53-.358-1.005-.358-2.429 0-1.414.358-2.416.362-1.006 1.039-1.534.682-.533 1.637-.533.954 0 1.632.533.681.529 1.04 1.534.362 1.002.362 2.416 0 1.424-.358 2.43-.358 1-1.036 1.53-.677.523-1.64.523m0-.937q.954 0 1.483-.92.528-.922.528-2.626 0-1.133-.243-1.93-.238-.797-.69-1.215a1.52 1.52 0 0 0-1.078-.417q-.946 0-1.479.933-.533.93-.533 2.63 0 1.133.239 1.925.239.793.686 1.207.452.413 1.087.413M141.849 53h-1.056a2.2 2.2 0 0 0-.329-.801 2.2 2.2 0 0 0-.562-.58 2.4 2.4 0 0 0-.729-.358 3 3 0 0 0-.835-.119q-.792 0-1.436.4-.64.402-1.019 1.181-.375.78-.375 1.913t.375 1.914q.38.78 1.019 1.18.644.4 1.436.4.435 0 .835-.119.4-.12.729-.353a2.23 2.23 0 0 0 .891-1.385h1.056a3.5 3.5 0 0 1-.434 1.197 3.3 3.3 0 0 1-.784.9q-.47.366-1.053.558-.58.19-1.24.191-1.116 0-1.986-.545t-1.368-1.551-.498-2.387.498-2.386q.5-1.005 1.368-1.551.87-.546 1.986-.546.66 0 1.24.192.584.192 1.053.563.468.366.784.895.315.523.434 1.197m4.282 6.12q-.75 0-1.351-.299a2.5 2.5 0 0 1-.963-.818 2.23 2.23 0 0 1-.396-1.185h1.022q.06.593.537.98.482.384 1.151.384.537 0 .955-.252.422-.25.66-.69.243-.444.243-1.001 0-.571-.252-1.019a1.84 1.84 0 0 0-.681-.712 1.93 1.93 0 0 0-.993-.264 2.7 2.7 0 0 0-.823.124 2.3 2.3 0 0 0-.694.32l-.989-.12.529-4.295h4.534v.937h-3.648l-.307 2.574h.051q.269-.213.673-.354.406-.14.844-.14a2.68 2.68 0 0 1 2.416 1.423q.363.66.363 1.509 0 .835-.375 1.491a2.75 2.75 0 0 1-1.023 1.031q-.652.375-1.483.375m7.42-.12h-2.693v-8.727h2.812q1.27 0 2.174.524a3.43 3.43 0 0 1 1.385 1.496q.481.971.481 2.326 0 1.364-.486 2.348a3.46 3.46 0 0 1-1.414 1.509q-.93.525-2.259.524m-1.636-.937h1.568q1.081 0 1.794-.418a2.58 2.58 0 0 0 1.061-1.189q.35-.77.349-1.837 0-1.056-.345-1.82a2.55 2.55 0 0 0-1.031-1.175q-.686-.414-1.709-.414h-1.687zm7.516.937h-1.108l3.204-8.727h1.091L165.823 59h-1.108l-2.608-7.347h-.068zm.409-3.41h4.466v.938h-4.466zm9.984 3.53q-.877 0-1.551-.312a2.54 2.54 0 0 1-1.044-.865q-.375-.555-.371-1.261a2.31 2.31 0 0 1 .823-1.811q.388-.32.865-.405v-.051a1.68 1.68 0 0 1-.997-.703 2.12 2.12 0 0 1-.367-1.24 2.1 2.1 0 0 1 .337-1.19q.341-.523.937-.826a3 3 0 0 1 1.368-.303q.76 0 1.355.303.597.302.938.827.345.524.349 1.189a2.16 2.16 0 0 1-.379 1.24q-.37.54-.984.703v.05a1.8 1.8 0 0 1 .852.406 2.3 2.3 0 0 1 .605.788q.226.47.23 1.023a2.2 2.2 0 0 1-.383 1.261q-.375.55-1.045.865-.664.311-1.538.311m0-.938q.592 0 1.023-.192t.665-.541.238-.818a1.6 1.6 0 0 0-.255-.874 1.74 1.74 0 0 0-.686-.596 2.16 2.16 0 0 0-.985-.218q-.558 0-.997.218-.434.216-.686.596a1.54 1.54 0 0 0-.243.874q-.005.468.226.818.234.35.669.541t1.031.192m0-4.142q.47 0 .831-.188.366-.188.575-.524.21-.336.213-.788a1.45 1.45 0 0 0-.208-.771 1.36 1.36 0 0 0-.567-.512 1.85 1.85 0 0 0-.844-.183q-.49 0-.856.183-.367.18-.567.512a1.4 1.4 0 0 0-.196.77q-.004.453.2.79.209.336.575.523.367.188.844.188M8.08 68H7.023a2.2 2.2 0 0 0-.89-1.38 2.4 2.4 0 0 0-.73-.359 3 3 0 0 0-.835-.119q-.792 0-1.436.4-.639.401-1.018 1.181-.375.78-.375 1.913t.375 1.914q.38.78 1.018 1.18.645.4 1.436.4.435 0 .836-.119.4-.12.728-.353a2.25 2.25 0 0 0 .891-1.385H8.08a3.5 3.5 0 0 1-.435 1.197 3.27 3.27 0 0 1-1.836 1.458q-.58.19-1.24.191-1.118 0-1.986-.545-.87-.545-1.368-1.551-.5-1.005-.499-2.387 0-1.38.499-2.386.498-1.005 1.368-1.551t1.985-.546q.66 0 1.24.192.584.192 1.053.563.47.366.784.895.315.523.435 1.197m1.708-2.727h1.26l2.967 7.244h.102l2.966-7.244h1.261V74h-.988v-6.63h-.086L14.543 74h-.954l-2.728-6.63h-.085V74h-.988zm9.925 0h1.21l2.421 4.074h.102l2.42-4.074h1.211l-3.153 5.13V74h-1.057v-3.597zM28.443 74v-8.727h1.058v4.33h.102l3.92-4.33h1.381l-3.665 3.937L34.904 74h-1.278l-3.034-4.057-1.091 1.228V74zm8.425-1.117a.74.74 0 0 1-.54-.225.74.74 0 0 1-.227-.541q0-.315.226-.542a.74.74 0 0 1 .541-.226q.315 0 .542.226.225.226.226.541 0 .21-.107.384a.8.8 0 0 1-.277.281.73.73 0 0 1-.384.102m0-4.414a.74.74 0 0 1-.54-.226.74.74 0 0 1-.227-.541q0-.315.226-.541a.74.74 0 0 1 .541-.226q.315 0 .542.225.225.227.226.542 0 .209-.107.383a.8.8 0 0 1-.277.282.73.73 0 0 1-.384.102m8.709-3.316q.536.004 1.074.205.536.2.98.665.442.46.711 1.257.27.797.269 1.998 0 1.164-.222 2.067-.218.9-.63 1.517a2.8 2.8 0 0 1-.998.938q-.584.32-1.32.32a2.9 2.9 0 0 1-1.309-.29 2.6 2.6 0 0 1-.937-.814 2.8 2.8 0 0 1-.465-1.215h1.04q.141.6.558.993.422.388 1.112.388 1.01 0 1.594-.882.588-.883.588-2.493h-.068q-.24.358-.567.618a2.5 2.5 0 0 1-1.58.54q-.75 0-1.377-.37a2.8 2.8 0 0 1-.997-1.027q-.371-.656-.371-1.5 0-.8.358-1.466a2.77 2.77 0 0 1 1.014-1.065q.657-.396 1.543-.384m0 .938q-.537 0-.968.268-.426.265-.677.716a2 2 0 0 0-.247.993q0 .546.238.993.243.443.66.707.423.26.96.26.404 0 .754-.157.35-.162.61-.44.263-.28.413-.634.149-.358.149-.746 0-.51-.248-.959a1.96 1.96 0 0 0-.673-.724 1.74 1.74 0 0 0-.971-.277m4.505 6.12v-.87l3.835-6.068h.63v1.346h-.425l-2.898 4.586v.068h5.165v.937zM54.19 74v-8.727h1.006V74zm4.903-1.193-.069.46q-.072.486-.221 1.04-.146.554-.303 1.044t-.26.78h-.767l.145-.72q.09-.449.18-1.002.093-.549.153-1.125l.05-.477zm8.119 1.312a3.3 3.3 0 0 1-1.074-.204 2.6 2.6 0 0 1-.98-.66q-.444-.47-.712-1.266-.269-.801-.269-2.012 0-1.158.218-2.054.218-.899.63-1.513.413-.617.998-.937a2.7 2.7 0 0 1 1.325-.32q.733 0 1.304.294.575.29.937.81t.47 1.198h-1.04a1.93 1.93 0 0 0-.563-.976q-.418-.388-1.108-.388-1.014 0-1.598.882-.58.882-.584 2.476h.068a2.56 2.56 0 0 1 1.3-1.019q.4-.14.848-.14.75 0 1.372.375.622.371.997 1.027.375.651.375 1.496 0 .81-.362 1.483-.361.667-1.018 1.065-.652.392-1.534.383m0-.937q.536 0 .963-.269a1.9 1.9 0 0 0 .677-.72q.252-.45.252-1.005 0-.542-.243-.985a1.85 1.85 0 0 0-.66-.712 1.75 1.75 0 0 0-.955-.264q-.405 0-.755.162-.35.157-.613.435-.26.276-.41.635-.148.354-.148.746a2.02 2.02 0 0 0 .916 1.7q.43.276.976.277m7.386.937q-.879 0-1.552-.31a2.54 2.54 0 0 1-1.044-.866q-.375-.555-.37-1.261a2.32 2.32 0 0 1 .822-1.811q.388-.32.865-.405v-.051a1.7 1.7 0 0 1-.997-.703 2.13 2.13 0 0 1-.367-1.24q-.003-.666.337-1.19t.938-.826a3 3 0 0 1 1.368-.303q.758 0 1.355.303.596.302.937.827.345.524.35 1.189-.005.694-.38 1.24-.37.54-.984.703v.05q.473.087.852.406.38.315.605.788.226.469.23 1.023-.003.707-.383 1.261a2.54 2.54 0 0 1-1.044.865q-.665.311-1.538.311m0-.937q.592 0 1.022-.192t.665-.541.239-.818a1.57 1.57 0 0 0-.256-.874 1.74 1.74 0 0 0-.686-.597 2.15 2.15 0 0 0-.984-.217q-.559 0-.998.218-.435.216-.686.596a1.54 1.54 0 0 0-.243.874 1.43 1.43 0 0 0 .226.818q.234.35.67.541.435.192 1.03.192m0-4.142q.469 0 .83-.188.368-.188.576-.524.209-.336.213-.788a1.45 1.45 0 0 0-.209-.772 1.36 1.36 0 0 0-.567-.51 1.85 1.85 0 0 0-.843-.184q-.49 0-.857.183-.366.18-.567.511a1.4 1.4 0 0 0-.196.772 1.46 1.46 0 0 0 .2.788q.21.338.576.524.366.188.844.188m5.846 3.767-.068.46q-.072.486-.222 1.04-.144.554-.302 1.044t-.26.78h-.767l.145-.72a27 27 0 0 0 .332-2.127l.051-.477zM85.665 74v-.767l2.881-3.153q.507-.554.835-.963.33-.414.486-.776.162-.366.162-.767 0-.46-.221-.797a1.44 1.44 0 0 0-.597-.52 1.9 1.9 0 0 0-.852-.183q-.504 0-.878.209a1.44 1.44 0 0 0-.575.575 1.8 1.8 0 0 0-.2.87h-1.007q0-.767.354-1.347t.963-.904q.614-.324 1.377-.324.766 0 1.36.324.592.324.928.874t.337 1.223q0 .48-.175.942-.17.456-.597 1.018-.42.558-1.171 1.364l-1.96 2.096v.069h4.056V74zm8.783-1.193-.068.46q-.072.486-.222 1.04-.144.554-.302 1.044t-.26.78h-.767l.145-.72a27 27 0 0 0 .332-2.127l.051-.477zm8.068 1.312q-.963 0-1.641-.524-.677-.528-1.035-1.53-.358-1.005-.358-2.429 0-1.414.358-2.416.362-1.006 1.04-1.534.681-.533 1.636-.533t1.632.533q.682.529 1.04 1.534.362 1.002.362 2.416 0 1.424-.358 2.43-.359 1-1.035 1.53-.678.523-1.641.523m0-.937q.954 0 1.483-.92.528-.921.528-2.626 0-1.133-.243-1.93-.238-.797-.69-1.215a1.52 1.52 0 0 0-1.078-.417q-.947 0-1.479.933-.532.93-.532 2.63 0 1.133.238 1.925.239.793.686 1.207.452.413 1.087.413m11.299.818v-8.727h2.949q1.026 0 1.679.37.656.367.971.993.316.627.316 1.398 0 .772-.316 1.402a2.34 2.34 0 0 1-.963 1.006q-.651.37-1.67.37h-2.114v-.937h2.08q.703 0 1.129-.243.426-.242.618-.656.196-.419.196-.942 0-.525-.196-.937a1.4 1.4 0 0 0-.622-.648q-.43-.24-1.142-.239h-1.858V74zm9.407.153q-.622 0-1.129-.234a1.94 1.94 0 0 1-.806-.686q-.298-.452-.298-1.09 0-.564.222-.913a1.56 1.56 0 0 1 .592-.554q.37-.2.818-.298.452-.102.908-.162.596-.077.967-.115.375-.043.545-.14.175-.099.175-.342v-.034q0-.63-.345-.98-.34-.35-1.035-.35-.721 0-1.13.316-.408.315-.575.673l-.955-.34q.256-.597.682-.93.43-.336.938-.468.512-.137 1.005-.137.316 0 .725.077.413.073.797.303.387.23.643.694.256.465.256 1.245V74h-1.006v-.886h-.051a1.8 1.8 0 0 1-.341.456 2 2 0 0 1-.635.413q-.396.17-.967.17m.153-.903q.597 0 1.006-.234a1.59 1.59 0 0 0 .835-1.385v-.92q-.063.075-.281.14-.213.06-.494.106a22 22 0 0 1-.963.128q-.393.052-.733.166a1.26 1.26 0 0 0-.546.337q-.204.222-.204.605 0 .525.387.793.393.264.993.264m5.688-3.187V74h-1.006v-6.545h.972v1.022h.085q.231-.499.699-.8.47-.308 1.21-.308.665 0 1.164.273.499.269.775.818.277.546.277 1.38V74h-1.005v-4.09q0-.772-.401-1.203-.401-.434-1.099-.434-.482 0-.861.209-.375.209-.593.609-.216.4-.217.972m8.861-2.608v.852h-3.392v-.852zm-2.404-1.569h1.006v6.239q0 .426.123.64.129.208.324.28.2.069.422.069.167 0 .273-.017l.17-.034.205.903a2 2 0 0 1-.286.077 2 2 0 0 1-.464.042 2 2 0 0 1-.835-.183 1.66 1.66 0 0 1-.674-.558q-.264-.376-.264-.946zm6.505 8.25q-.886 0-1.555-.421a2.87 2.87 0 0 1-1.04-1.18q-.37-.76-.371-1.774 0-1.022.371-1.785.375-.763 1.04-1.185.669-.422 1.555-.422.887 0 1.551.422a2.8 2.8 0 0 1 1.04 1.185q.375.762.375 1.785 0 1.015-.375 1.773-.37.76-1.04 1.18-.665.422-1.551.422m0-.903q.673 0 1.108-.345.434-.345.644-.908a3.5 3.5 0 0 0 .208-1.219q0-.656-.208-1.223a2.07 2.07 0 0 0-.644-.916q-.435-.35-1.108-.35t-1.108.35-.643.916a3.5 3.5 0 0 0-.209 1.223q0 .656.209 1.22.208.561.643.907.435.345 1.108.345m5.507-3.17V74h-1.006v-6.546h.972v1.023h.085q.23-.499.699-.8.468-.308 1.21-.308.665 0 1.163.273.499.269.776.818.277.546.277 1.38V74h-1.006v-4.09q0-.772-.4-1.203-.4-.434-1.1-.434-.482 0-.86.209-.375.209-.593.609t-.217.972m8.758 4.073q-.947 0-1.632-.417a2.8 2.8 0 0 1-1.053-1.176q-.366-.759-.366-1.765t.366-1.772a2.9 2.9 0 0 1 1.032-1.202q.665-.435 1.551-.435.511 0 1.01.17.499.172.907.555.41.38.652 1.005.243.627.243 1.543v.426h-5.045v-.87h4.023q0-.552-.222-.988a1.67 1.67 0 0 0-.622-.686 1.74 1.74 0 0 0-.946-.251q-.601 0-1.04.298-.435.294-.669.767a2.26 2.26 0 0 0-.234 1.014v.58q0 .741.255 1.257.261.51.72.78.46.264 1.07.264.396 0 .716-.11a1.5 1.5 0 0 0 .558-.342 1.55 1.55 0 0 0 .362-.57l.972.272q-.153.495-.516.87-.361.37-.895.579a3.3 3.3 0 0 1-1.197.204m4.973-.068a.74.74 0 0 1-.541-.226.74.74 0 0 1-.226-.54q0-.317.226-.542a.74.74 0 0 1 .541-.226q.316 0 .541.226.226.225.226.541 0 .21-.106.384a.8.8 0 0 1-.277.28.73.73 0 0 1-.384.103m0-4.858a.74.74 0 0 1-.541-.226.74.74 0 0 1-.226-.54q0-.316.226-.542a.74.74 0 0 1 .541-.226q.316 0 .541.226t.226.541q0 .21-.106.384a.8.8 0 0 1-.277.281.73.73 0 0 1-.384.102m8.879 4.91q-.844 0-1.505-.29a2.6 2.6 0 0 1-1.044-.806 2.16 2.16 0 0 1-.417-1.206h1.074q.034.422.289.729.257.303.669.469t.917.166q.562 0 .997-.196t.682-.546.247-.81q0-.48-.239-.847a1.6 1.6 0 0 0-.699-.58q-.46-.21-1.125-.209h-.699v-.937h.699q.52 0 .912-.188.396-.187.618-.528.226-.34.226-.801 0-.444-.196-.772a1.34 1.34 0 0 0-.554-.51 1.8 1.8 0 0 0-.835-.184q-.452 0-.853.166-.396.162-.647.473a1.23 1.23 0 0 0-.273.742h-1.023q.025-.686.414-1.202a2.6 2.6 0 0 1 1.014-.81q.63-.29 1.385-.29.81 0 1.389.328.579.324.891.857.31.533.311 1.15 0 .738-.388 1.258a1.97 1.97 0 0 1-1.044.72v.068q.826.136 1.291.703.464.563.464 1.394 0 .711-.387 1.278-.383.562-1.049.886t-1.512.324m7.419 0q-.75 0-1.351-.299a2.5 2.5 0 0 1-.963-.818 2.23 2.23 0 0 1-.397-1.185h1.023q.06.593.537.98.482.384 1.151.384.537 0 .954-.252.422-.25.661-.69.243-.444.243-1.001 0-.571-.252-1.019a1.85 1.85 0 0 0-.682-.712 1.9 1.9 0 0 0-.993-.264 2.7 2.7 0 0 0-.822.124 2.3 2.3 0 0 0-.695.32l-.988-.12.528-4.295h4.534v.937h-3.647l-.307 2.574h.051q.268-.213.673-.354t.844-.14q.801 0 1.427.383.631.38.989 1.04.362.66.362 1.509 0 .835-.375 1.491a2.74 2.74 0 0 1-1.022 1.031q-.652.375-1.483.375m7.42 0q-.963 0-1.641-.525-.678-.528-1.035-1.53-.358-1.005-.358-2.429 0-1.414.358-2.416.362-1.006 1.039-1.534.682-.533 1.637-.533.954 0 1.632.533.681.529 1.04 1.534.362 1.002.362 2.416 0 1.424-.358 2.43-.358 1-1.036 1.53-.677.523-1.64.523m0-.938q.954 0 1.483-.92.528-.921.528-2.626 0-1.133-.243-1.93-.239-.797-.69-1.215a1.52 1.52 0 0 0-1.078-.417q-.946 0-1.479.933-.533.93-.533 2.63 0 1.133.239 1.925.239.793.686 1.207.451.413 1.087.413m7.551.937a3.3 3.3 0 0 1-1.074-.204 2.6 2.6 0 0 1-.98-.66q-.444-.47-.712-1.266-.268-.802-.268-2.012 0-1.159.217-2.054.217-.899.631-1.513a2.84 2.84 0 0 1 .997-.937 2.7 2.7 0 0 1 1.325-.32q.734 0 1.304.294.576.29.938.81t.468 1.197h-1.039a1.93 1.93 0 0 0-.563-.975q-.418-.388-1.108-.388-1.014 0-1.598.882-.58.882-.584 2.476h.069a2.57 2.57 0 0 1 1.299-1.019q.4-.14.848-.14.75 0 1.372.375.623.371.998 1.027.375.651.375 1.496 0 .81-.363 1.483a2.76 2.76 0 0 1-1.018 1.065q-.652.392-1.534.383m0-.937q.537 0 .963-.269.43-.268.678-.72.25-.451.251-1.005 0-.542-.243-.985a1.85 1.85 0 0 0-.66-.712 1.75 1.75 0 0 0-.955-.264q-.405 0-.754.162-.35.157-.614.435-.26.276-.409.635a2.02 2.02 0 0 0 .767 2.446q.43.277.976.277M207.674 68h-1.057a2.2 2.2 0 0 0-.891-1.38 2.4 2.4 0 0 0-.729-.359 3 3 0 0 0-.835-.119q-.792 0-1.436.4-.639.401-1.018 1.181-.375.78-.375 1.913t.375 1.914q.38.78 1.018 1.18.644.4 1.436.4.435 0 .835-.119.4-.12.729-.353a2.3 2.3 0 0 0 .563-.584q.234-.35.328-.801h1.057q-.12.669-.435 1.197-.316.528-.784.9-.47.366-1.053.558a3.9 3.9 0 0 1-1.24.191q-1.116 0-1.986-.545t-1.367-1.551q-.5-1.005-.499-2.387 0-1.38.499-2.386.498-1.005 1.367-1.551.87-.546 1.986-.546.661 0 1.24.192.584.192 1.053.563.469.366.784.895.315.523.435 1.197M4.006 79.864 1.193 90.312h-.92l2.813-10.448zM8.556 89v-.767l2.88-3.153q.508-.554.836-.963.328-.414.486-.776.162-.366.162-.767 0-.46-.222-.797a1.44 1.44 0 0 0-.597-.52 1.9 1.9 0 0 0-.852-.183q-.503 0-.878.209a1.44 1.44 0 0 0-.575.575q-.2.37-.2.87H8.59q0-.767.354-1.347t.963-.904q.614-.324 1.376-.324.768 0 1.36.324t.929.874q.336.55.336 1.223 0 .48-.174.942-.171.456-.597 1.018-.422.558-1.172 1.364l-1.96 2.096v.069h4.057V89zM18.6 80.153q.537.004 1.074.205t.98.665q.444.46.712 1.257t.268 1.998q0 1.164-.221 2.067-.217.9-.631 1.517a2.8 2.8 0 0 1-.997.938q-.585.32-1.321.32a2.9 2.9 0 0 1-1.308-.29 2.6 2.6 0 0 1-.938-.814 2.8 2.8 0 0 1-.464-1.215h1.04q.14.6.558.993.42.388 1.112.388 1.01 0 1.594-.882.587-.883.587-2.493h-.068q-.239.358-.566.618a2.5 2.5 0 0 1-1.581.54q-.75 0-1.377-.37a2.8 2.8 0 0 1-.997-1.027q-.37-.656-.37-1.5 0-.8.357-1.466.363-.668 1.015-1.065.656-.396 1.542-.384m0 .938q-.537 0-.967.268a1.93 1.93 0 0 0-.678.716q-.247.448-.247.993 0 .546.239.993.243.443.66.707.422.26.959.26.405 0 .754-.157.35-.162.61-.44.264-.28.413-.634.15-.358.15-.746 0-.51-.248-.959a1.96 1.96 0 0 0-.673-.724 1.74 1.74 0 0 0-.972-.277m7.659 8.028q-.844 0-1.505-.29a2.6 2.6 0 0 1-1.044-.805 2.17 2.17 0 0 1-.417-1.206h1.074q.035.422.29.729.255.303.669.469.412.165.916.166.562 0 .997-.196t.682-.546.247-.81q0-.48-.239-.847a1.6 1.6 0 0 0-.699-.58q-.459-.21-1.125-.209h-.698v-.937h.698q.52 0 .912-.188.397-.187.618-.528.226-.34.226-.801 0-.444-.196-.772a1.34 1.34 0 0 0-.554-.51 1.8 1.8 0 0 0-.835-.184q-.451 0-.852.166-.397.162-.648.473a1.23 1.23 0 0 0-.273.742H23.48q.025-.686.414-1.202a2.6 2.6 0 0 1 1.014-.81q.63-.29 1.385-.29.81 0 1.39.328.578.324.89.857.31.533.31 1.15 0 .738-.387 1.258a1.97 1.97 0 0 1-1.044.72v.068q.826.136 1.291.703.465.563.465 1.394 0 .711-.388 1.278-.384.562-1.048.886-.666.324-1.513.324m7.419 0q-.75 0-1.351-.298a2.5 2.5 0 0 1-.963-.818 2.23 2.23 0 0 1-.396-1.185h1.022q.06.593.537.98a1.8 1.8 0 0 0 1.15.384q.538 0 .955-.252.423-.25.66-.69a2.05 2.05 0 0 0 .244-1.001q0-.571-.252-1.019a1.85 1.85 0 0 0-.681-.712 1.93 1.93 0 0 0-.993-.264 2.7 2.7 0 0 0-.823.124 2.3 2.3 0 0 0-.694.32l-.989-.12.528-4.295h4.534v.937H32.52l-.307 2.574h.051q.269-.213.673-.354.405-.14.844-.14.801 0 1.428.383.63.38.988 1.04.363.66.363 1.509 0 .835-.375 1.491a2.74 2.74 0 0 1-1.023 1.031 2.9 2.9 0 0 1-1.483.375m13.829-8.846h1.057v5.778q0 .896-.422 1.598a2.95 2.95 0 0 1-1.18 1.104q-.764.4-1.79.4t-1.79-.4a3 3 0 0 1-1.185-1.104 3.07 3.07 0 0 1-.417-1.598v-5.778h1.057v5.693q0 .639.28 1.138.282.495.802.78.525.28 1.253.28t1.253-.28q.525-.285.8-.78.282-.5.282-1.138z"/></svg>