<svg xmlns="http://www.w3.org/2000/svg" width="214" height="92" fill="none"><path fill="#000014" d="M12.984 19.336a.7.7 0 0 0 .48-.192.7.7 0 0 0 .216-.504v-3.936a.62.62 0 0 0-.216-.48.67.67 0 0 0-.48-.216h-3.96a.67.67 0 0 0-.48.216.62.62 0 0 0-.216.48v3.936q0 .288.216.504a.7.7 0 0 0 .48.192zm0-7.992a.67.67 0 0 0 .48-.216.67.67 0 0 0 .216-.48V9.352a.67.67 0 0 0-.216-.48.67.67 0 0 0-.48-.216h-3.96a.67.67 0 0 0-.48.216.67.67 0 0 0-.216.48v1.296q0 .264.216.48a.67.67 0 0 0 .48.216zM3.696 22a.74.74 0 0 1-.504-.192.74.74 0 0 1-.192-.504V6.688q0-.264.192-.48a.7.7 0 0 1 .504-.216h11.952q.264 0 .48.216a.67.67 0 0 1 .216.48v1.296q0 .264.192.48a.74.74 0 0 0 .504.192h1.272q.264 0 .48.216a.67.67 0 0 1 .216.48v1.296a.67.67 0 0 1-.216.48.67.67 0 0 1-.48.216H17.04a.7.7 0 0 0-.504.216.62.62 0 0 0-.192.456v1.296q0 .264.192.48a.7.7 0 0 0 .504.216h1.272q.264 0 .48.216a.62.62 0 0 1 .216.48v3.936a.7.7 0 0 1-.216.504.7.7 0 0 1-.48.192H17.04a.7.7 0 0 0-.504.216.65.65 0 0 0-.192.48v1.272a.7.7 0 0 1-.216.504.7.7 0 0 1-.48.192zm21.328 0a.74.74 0 0 1-.504-.192.74.74 0 0 1-.192-.504V4.024q0-.264.192-.48a.7.7 0 0 1 .504-.216h3.936q.288 0 .48.216a.67.67 0 0 1 .216.48v17.28a.7.7 0 0 1-.216.504.65.65 0 0 1-.48.192zm19.952-2.664a.7.7 0 0 0 .48-.192.7.7 0 0 0 .216-.504v-6.624a.6.6 0 0 0-.216-.456.67.67 0 0 0-.48-.216h-3.96a.67.67 0 0 0-.48.216.6.6 0 0 0-.216.456v6.624q0 .288.216.504a.7.7 0 0 0 .48.192zM38.352 22a.7.7 0 0 1-.48-.192.7.7 0 0 1-.216-.504v-1.272a.62.62 0 0 0-.216-.48.62.62 0 0 0-.48-.216h-1.272a.74.74 0 0 1-.504-.192.74.74 0 0 1-.192-.504v-6.624q0-.264.192-.456a.7.7 0 0 1 .504-.216h1.272a.62.62 0 0 0 .48-.216.67.67 0 0 0 .216-.48V9.352q0-.264.216-.48a.67.67 0 0 1 .48-.216h6.624q.264 0 .48.216a.67.67 0 0 1 .216.48v1.296q0 .264.192.48a.67.67 0 0 0 .48.216h1.296a.67.67 0 0 0 .48-.216.67.67 0 0 0 .216-.48V9.352q0-.264.192-.48a.7.7 0 0 1 .504-.216h1.272q.264 0 .48.216a.67.67 0 0 1 .216.48v11.952a.7.7 0 0 1-.216.504.7.7 0 0 1-.48.192h-1.272a.74.74 0 0 1-.504-.192.74.74 0 0 1-.192-.504v-1.272a.62.62 0 0 0-.216-.48.67.67 0 0 0-.48-.216h-1.296a.67.67 0 0 0-.48.216.65.65 0 0 0-.192.48v1.272a.7.7 0 0 1-.216.504.7.7 0 0 1-.48.192zm21.329 0a.7.7 0 0 1-.48-.192.7.7 0 0 1-.217-.504v-1.272a.62.62 0 0 0-.215-.48.62.62 0 0 0-.48-.216h-1.273a.74.74 0 0 1-.503-.192.74.74 0 0 1-.192-.504v-6.624q0-.264.192-.456a.7.7 0 0 1 .504-.216h1.271a.62.62 0 0 0 .48-.216.67.67 0 0 0 .216-.48V9.352q0-.264.216-.48a.67.67 0 0 1 .48-.216h9.289q.263 0 .48.216a.67.67 0 0 1 .216.48v1.296a.67.67 0 0 1-.217.48.67.67 0 0 1-.48.216h-6.624a.67.67 0 0 0-.48.216.6.6 0 0 0-.215.456v6.624q0 .288.215.504a.7.7 0 0 0 .48.192h6.625q.263 0 .48.216a.62.62 0 0 1 .216.48v1.272a.7.7 0 0 1-.217.504.7.7 0 0 1-.48.192zm16.015 0a.74.74 0 0 1-.504-.192.74.74 0 0 1-.192-.504V4.024q0-.264.192-.48a.7.7 0 0 1 .504-.216h3.936q.288 0 .48.216a.67.67 0 0 1 .216.48v11.952q0 .264.216.48a.67.67 0 0 0 .48.216h1.296a.6.6 0 0 0 .456-.216.67.67 0 0 0 .216-.48v-1.272q0-.288.216-.48a.67.67 0 0 1 .48-.216h1.296a.67.67 0 0 0 .48-.216.67.67 0 0 0 .216-.48v-1.296q0-.264.192-.456a.67.67 0 0 1 .48-.216h1.296a.67.67 0 0 0 .48-.216.67.67 0 0 0 .216-.48V9.352q0-.264.192-.48a.7.7 0 0 1 .504-.216h1.272q.264 0 .48.216a.67.67 0 0 1 .216.48v1.296a.67.67 0 0 1-.216.48.67.67 0 0 1-.48.216H89.04a.7.7 0 0 0-.504.216.62.62 0 0 0-.192.456v1.296a.67.67 0 0 1-.216.48.67.67 0 0 1-.48.216h-1.296a.67.67 0 0 0-.48.216.65.65 0 0 0-.192.48v1.272q0 .264.192.48a.67.67 0 0 0 .48.216h1.296q.264 0 .48.216a.62.62 0 0 1 .216.48v1.272q0 .288.192.504a.74.74 0 0 0 .504.192h1.272q.264 0 .48.216a.62.62 0 0 1 .216.48v1.272a.7.7 0 0 1-.216.504.7.7 0 0 1-.48.192h-6.624a.7.7 0 0 1-.48-.192.7.7 0 0 1-.216-.504v-1.272a.62.62 0 0 0-.216-.48.6.6 0 0 0-.456-.216h-1.296a.67.67 0 0 0-.48.216.62.62 0 0 0-.216.48v1.272a.7.7 0 0 1-.216.504.65.65 0 0 1-.48.192zM1.057 59v-8.727h2.948q1.023 0 1.68.35.655.344.971.95.315.605.315 1.376t-.315 1.368-.967.937q-.652.337-1.666.337H1.636v-.955h2.352q.699 0 1.125-.204.43-.205.623-.58.195-.38.196-.903 0-.525-.196-.916a1.34 1.34 0 0 0-.627-.605q-.43-.218-1.138-.218H2.113V59zm4.108-3.92L7.312 59H6.085l-2.114-3.92zM14.698 53a3 3 0 0 0-.37-.771 2.4 2.4 0 0 0-.542-.588 2.3 2.3 0 0 0-.707-.371 2.8 2.8 0 0 0-.87-.128 2.6 2.6 0 0 0-1.41.4q-.635.402-1.01 1.181-.375.78-.375 1.913t.38 1.914 1.026 1.18 1.458.4q.75 0 1.32-.319.576-.324.896-.912.324-.593.324-1.393l.324.068h-2.625v-.938h3.323v.938q0 1.078-.46 1.875a3.2 3.2 0 0 1-1.261 1.236q-.801.435-1.841.434-1.16 0-2.037-.545-.873-.545-1.364-1.551-.486-1.005-.486-2.387 0-1.035.277-1.862a4.1 4.1 0 0 1 .793-1.415q.511-.583 1.21-.895a3.7 3.7 0 0 1 1.539-.31q.69 0 1.287.208a3.46 3.46 0 0 1 1.858 1.483q.315.52.434 1.155zm2.952 6v-8.727h3.052q.911 0 1.504.315.593.31.882.84.29.524.29 1.163 0 .563-.2.929-.197.366-.52.58a2.4 2.4 0 0 1-.695.315v.085q.4.025.805.281.405.255.678.733t.272 1.168q0 .655-.298 1.18-.299.525-.942.831-.643.307-1.674.307zm1.057-.937h2.097q1.035 0 1.47-.401.44-.405.439-.98 0-.444-.226-.818a1.64 1.64 0 0 0-.643-.605q-.418-.23-.99-.23h-2.147zm0-3.955h1.96q.478 0 .861-.187.388-.189.614-.529.23-.34.23-.801 0-.576-.4-.976-.402-.405-1.27-.405h-1.995zm7.345 3.776a.74.74 0 0 1-.542-.226.74.74 0 0 1-.225-.541q0-.315.225-.542a.74.74 0 0 1 .542-.226q.315 0 .54.226.227.226.227.541 0 .21-.107.384a.8.8 0 0 1-.277.281.73.73 0 0 1-.383.102m0-4.415a.74.74 0 0 1-.542-.226.74.74 0 0 1-.225-.541q0-.315.225-.541a.74.74 0 0 1 .542-.226q.315 0 .54.225.227.227.227.542 0 .209-.107.383a.8.8 0 0 1-.277.282.73.73 0 0 1-.383.102M31.982 59v-.767l2.88-3.153q.507-.554.835-.963.328-.414.486-.776.162-.366.162-.767 0-.46-.222-.797a1.44 1.44 0 0 0-.596-.52 1.9 1.9 0 0 0-.852-.183q-.504 0-.878.209a1.44 1.44 0 0 0-.576.575q-.2.37-.2.87h-1.006q0-.767.354-1.347t.963-.904q.614-.324 1.377-.324.767 0 1.359.324.593.324.929.874t.337 1.223q0 .48-.175.942-.171.456-.597 1.018-.422.558-1.172 1.364l-1.96 2.096v.069h4.057V59zm9.992.12q-.75 0-1.35-.299a2.5 2.5 0 0 1-.964-.818 2.23 2.23 0 0 1-.396-1.185h1.023q.06.593.537.98a1.8 1.8 0 0 0 1.15.384q.537 0 .955-.252.422-.25.66-.69a2.05 2.05 0 0 0 .243-1.001q0-.571-.251-1.019a1.85 1.85 0 0 0-.682-.712 1.93 1.93 0 0 0-.993-.264 2.7 2.7 0 0 0-.822.124 2.3 2.3 0 0 0-.695.32l-.989-.12.529-4.295h4.534v.937h-3.648l-.307 2.574h.051q.27-.213.674-.354t.844-.14q.801 0 1.427.383.63.38.989 1.04.362.66.362 1.509 0 .835-.375 1.491a2.74 2.74 0 0 1-1.023 1.031 2.9 2.9 0 0 1-1.483.375m4.37-1.91v-.87l3.834-6.067h.631v1.346h-.426l-2.898 4.586v.068h5.165v.937zM50.45 59v-8.727h1.006V59zm4.903-1.193-.068.46q-.073.486-.222 1.04-.144.554-.303 1.044-.157.49-.26.78h-.767q.057-.273.145-.72.09-.449.18-1.002.093-.549.153-1.125l.05-.477zm8.29-7.534V59h-1.058v-7.62h-.05l-2.131 1.415v-1.073l2.181-1.45zM69 59.119q-.964 0-1.64-.524-.68-.528-1.036-1.53-.358-1.005-.358-2.429 0-1.414.358-2.416.362-1.006 1.04-1.534.681-.533 1.636-.533t1.632.533q.681.529 1.04 1.534.362 1.002.362 2.416 0 1.424-.358 2.43-.358 1-1.036 1.53-.677.523-1.64.523m0-.937q.954 0 1.483-.92.528-.922.528-2.626 0-1.133-.243-1.93-.239-.797-.69-1.215A1.52 1.52 0 0 0 69 51.075q-.946 0-1.479.933-.533.93-.533 2.63 0 1.133.24 1.925.237.793.685 1.207.451.413 1.087.413m7.55.937a3.3 3.3 0 0 1-1.073-.204 2.6 2.6 0 0 1-.98-.66q-.444-.47-.712-1.266-.268-.801-.268-2.012 0-1.158.217-2.054.218-.899.63-1.513.414-.617.998-.937a2.7 2.7 0 0 1 1.325-.32q.734 0 1.304.294.576.29.938.81t.468 1.198h-1.04a1.93 1.93 0 0 0-.562-.976q-.418-.388-1.108-.388-1.014 0-1.598.882-.578.882-.584 2.476h.069a2.56 2.56 0 0 1 1.3-1.019q.4-.14.847-.14.75 0 1.373.375.621.371.997 1.027.375.651.375 1.495 0 .81-.362 1.483a2.76 2.76 0 0 1-1.019 1.066q-.652.392-1.534.383m0-.937q.538 0 .964-.269a1.9 1.9 0 0 0 .678-.72q.25-.45.251-1.005 0-.542-.243-.985a1.85 1.85 0 0 0-.66-.712 1.75 1.75 0 0 0-.955-.264q-.405 0-.754.162-.35.157-.614.435a2.1 2.1 0 0 0-.409.635 2.02 2.02 0 0 0 .767 2.446q.43.276.976.277m5.698-.375-.068.46q-.072.486-.221 1.04-.145.554-.303 1.044t-.26.78h-.767l.145-.72a27 27 0 0 0 .332-2.127l.052-.477zm8-7.654q.537.004 1.074.205t.98.665q.443.46.712 1.257t.268 1.998q0 1.164-.221 2.067-.218.9-.631 1.517a2.8 2.8 0 0 1-.997.938q-.585.32-1.321.32a2.9 2.9 0 0 1-1.309-.29 2.6 2.6 0 0 1-.937-.814A2.8 2.8 0 0 1 87.4 56.8h1.04q.141.6.558.993.422.388 1.113.388 1.01 0 1.593-.882.588-.883.588-2.493h-.068q-.239.357-.566.618a2.5 2.5 0 0 1-1.581.54q-.75 0-1.377-.37a2.8 2.8 0 0 1-.997-1.027q-.37-.655-.37-1.5 0-.801.357-1.466.363-.668 1.014-1.065.657-.396 1.543-.384m0 .938q-.537 0-.967.268-.426.264-.678.716a2 2 0 0 0-.247.993q0 .546.239.993.243.442.66.708.422.26.959.26.405 0 .754-.158.35-.162.61-.44.264-.28.413-.634.15-.358.15-.746 0-.51-.248-.959a1.96 1.96 0 0 0-.673-.724 1.74 1.74 0 0 0-.972-.277m7.557 8.028q-.965 0-1.641-.524-.678-.528-1.036-1.53-.358-1.005-.358-2.429 0-1.414.358-2.416.363-1.006 1.04-1.534.682-.533 1.636-.533t1.633.533q.681.529 1.039 1.534.363 1.002.363 2.416 0 1.424-.358 2.43-.358 1-1.036 1.53-.678.523-1.64.523m0-.937q.954 0 1.482-.92.53-.922.529-2.626 0-1.133-.243-1.93-.24-.797-.69-1.215a1.52 1.52 0 0 0-1.078-.417q-.946 0-1.48.933-.532.93-.532 2.63 0 1.133.239 1.925.239.793.686 1.207.451.413 1.087.413m7.923.818v-8.727h1.057v3.886h4.654v-3.886h1.057V59h-1.057v-3.903h-4.654V59zm8.883 0v-8.727h5.267v.937h-4.21v2.95h3.938v.937h-3.938v2.965h4.279V59zm7.684-8.727 2.25 3.63h.068l2.25-3.63h1.244l-2.744 4.363L128.107 59h-1.244l-2.25-3.562h-.068L122.295 59h-1.245l2.813-4.364-2.813-4.363zm7.784 7.61a.74.74 0 0 1-.541-.225.74.74 0 0 1-.226-.541q0-.315.226-.542a.74.74 0 0 1 .541-.226q.315 0 .541.226t.226.541q0 .21-.107.384a.8.8 0 0 1-.276.281.73.73 0 0 1-.384.102m0-4.414a.74.74 0 0 1-.541-.226.74.74 0 0 1-.226-.541q0-.315.226-.541a.74.74 0 0 1 .541-.226q.315 0 .541.225.226.227.226.542 0 .209-.107.383a.8.8 0 0 1-.276.282.73.73 0 0 1-.384.102M136.162 59v-8.727h5.233v.937h-4.176v2.95h3.784v.937h-3.784V59zm7.043 0v-8.727h5.267v.937h-4.21v2.95h3.937v.937h-3.937v2.965h4.278V59zm9.916.12a3.3 3.3 0 0 1-1.074-.205 2.6 2.6 0 0 1-.98-.66q-.442-.47-.711-1.266-.269-.801-.269-2.012 0-1.158.217-2.054.218-.899.631-1.513.414-.617.997-.937a2.7 2.7 0 0 1 1.326-.32q.732 0 1.304.294.575.29.937.81t.469 1.198h-1.04a1.93 1.93 0 0 0-.562-.976q-.418-.388-1.108-.388-1.015 0-1.598.882-.58.882-.584 2.476h.068a2.56 2.56 0 0 1 2.148-1.16q.75 0 1.372.376.622.371.997 1.027.375.651.375 1.495 0 .81-.362 1.483a2.76 2.76 0 0 1-1.019 1.066q-.651.392-1.534.383m0-.938q.537 0 .963-.269.43-.268.678-.72.25-.452.251-1.005 0-.542-.243-.985a1.85 1.85 0 0 0-.66-.712 1.75 1.75 0 0 0-.955-.264q-.405 0-.754.162-.349.157-.614.435a2.1 2.1 0 0 0-.409.635 2.02 2.02 0 0 0 .767 2.446q.431.276.976.277m5.102.818h-1.108l3.205-8.727h1.091L164.615 59h-1.108l-2.608-7.347h-.068zm.409-3.41h4.466v.938h-4.466zm9.916 3.53q-.75 0-1.35-.299a2.5 2.5 0 0 1-.963-.818 2.23 2.23 0 0 1-.397-1.185h1.023q.06.593.537.98.481.384 1.15.384.537 0 .955-.252.421-.25.66-.69.243-.444.243-1.001 0-.571-.251-1.019a1.85 1.85 0 0 0-.682-.712 1.93 1.93 0 0 0-.993-.264 2.7 2.7 0 0 0-.822.124 2.3 2.3 0 0 0-.695.32l-.988-.12.528-4.295h4.534v.937h-3.648l-.306 2.574h.051q.268-.213.673-.354t.844-.14q.801 0 1.427.383.631.38.989 1.04.362.66.362 1.509 0 .835-.375 1.491a2.74 2.74 0 0 1-1.023 1.031q-.651.375-1.483.375m5.085-.12h-1.108l3.205-8.727h1.091L180.025 59h-1.108l-2.608-7.347h-.068zm.409-3.41h4.466v.938h-4.466zM8.079 68H7.023a2.2 2.2 0 0 0-.891-1.38 2.4 2.4 0 0 0-.729-.359 3 3 0 0 0-.835-.119q-.792 0-1.436.4-.64.401-1.019 1.181-.375.78-.375 1.913t.375 1.914q.38.78 1.019 1.18.644.4 1.436.4.435 0 .835-.119.4-.12.729-.353a2.25 2.25 0 0 0 .89-1.385H8.08a3.5 3.5 0 0 1-.434 1.197 3.27 3.27 0 0 1-1.837 1.458q-.58.19-1.24.191-1.116 0-1.986-.545t-1.368-1.551-.498-2.387.498-2.386 1.368-1.551 1.986-.546q.66 0 1.24.192.584.192 1.053.563.468.366.784.895.315.523.434 1.197m1.708-2.727h1.261l2.966 7.244h.103l2.965-7.244h1.262V74h-.989v-6.63h-.085L14.543 74h-.955l-2.727-6.63h-.085V74h-.989zm9.926 0h1.21l2.42 4.074h.103l2.42-4.074h1.21l-3.153 5.13V74h-1.057v-3.597zM28.443 74v-8.727H29.5v4.33h.102l3.92-4.33h1.382l-3.665 3.937L34.904 74h-1.279l-3.034-4.057-1.09 1.228V74zm8.425-1.117a.74.74 0 0 1-.541-.225.74.74 0 0 1-.226-.541q0-.315.226-.542.225-.226.541-.226.315 0 .541.226.225.226.226.541 0 .21-.106.384a.8.8 0 0 1-.277.281.73.73 0 0 1-.384.102m0-4.414a.74.74 0 0 1-.541-.226.74.74 0 0 1-.226-.541q0-.315.226-.541.225-.226.541-.226.315 0 .541.225.225.227.226.542 0 .209-.106.383a.8.8 0 0 1-.277.282.73.73 0 0 1-.384.102m8.776 5.65q-.963 0-1.64-.524-.678-.528-1.036-1.53-.357-1.005-.358-2.429 0-1.414.358-2.416.363-1.006 1.04-1.534.681-.533 1.636-.533t1.632.533q.683.529 1.04 1.534.362 1.002.362 2.416 0 1.424-.357 2.43-.359 1-1.036 1.53-.678.523-1.64.523m0-.937q.955 0 1.483-.92.53-.921.529-2.626 0-1.133-.243-1.93-.24-.797-.69-1.215a1.52 1.52 0 0 0-1.079-.417q-.945 0-1.478.933-.533.93-.533 2.63 0 1.133.239 1.925.238.793.686 1.207.45.413 1.086.413m5.866-.375-.068.46q-.072.486-.222 1.04-.144.554-.302 1.044t-.26.78h-.767l.145-.72a28 28 0 0 0 .332-2.127l.051-.477zM57.004 74l3.904-7.722v-.068h-4.5v-.937h5.59v.988L58.112 74zm9.332.12q-.844 0-1.504-.29a2.6 2.6 0 0 1-1.044-.806 2.17 2.17 0 0 1-.417-1.206h1.073q.035.422.29.729.256.303.67.469.412.165.915.166.563 0 .998-.196t.681-.546.248-.81q0-.48-.24-.847a1.6 1.6 0 0 0-.698-.58q-.46-.21-1.125-.209h-.699v-.937h.699q.52 0 .912-.188.396-.187.618-.528.226-.34.226-.801 0-.444-.196-.772a1.34 1.34 0 0 0-.554-.51 1.8 1.8 0 0 0-.835-.184q-.453 0-.853.166-.396.162-.648.473a1.23 1.23 0 0 0-.272.742h-1.023a2.1 2.1 0 0 1 .413-1.202 2.6 2.6 0 0 1 1.015-.81q.63-.29 1.385-.29.81 0 1.389.328.58.324.89.857t.311 1.15q0 .738-.387 1.258a1.97 1.97 0 0 1-1.044.72v.068q.826.136 1.29.703.465.563.465 1.394 0 .711-.388 1.278-.383.562-1.048.886-.664.324-1.513.324m5.94-1.313-.069.46q-.072.486-.221 1.04-.145.554-.303 1.044-.157.49-.26.78h-.767l.145-.72q.09-.449.18-1.002.093-.549.153-1.125l.05-.477zm8.119 1.312a3.3 3.3 0 0 1-1.074-.204 2.6 2.6 0 0 1-.98-.66q-.444-.47-.712-1.266-.268-.801-.268-2.012 0-1.158.217-2.054.218-.899.63-1.513.414-.617.998-.937a2.7 2.7 0 0 1 1.325-.32q.733 0 1.304.294.575.29.938.81.361.52.468 1.198h-1.04a1.93 1.93 0 0 0-.562-.976q-.418-.388-1.108-.388-1.014 0-1.598.882-.578.882-.584 2.476h.068a2.56 2.56 0 0 1 1.3-1.019q.4-.14.848-.14.75 0 1.372.375.623.371.998 1.027.374.651.374 1.496 0 .81-.362 1.483-.361.667-1.018 1.065-.652.392-1.534.383m0-.937q.537 0 .963-.269a1.9 1.9 0 0 0 .677-.72q.252-.45.252-1.005 0-.542-.243-.985a1.85 1.85 0 0 0-.66-.712 1.75 1.75 0 0 0-.955-.264q-.405 0-.755.162-.349.157-.613.435-.26.276-.41.635-.148.354-.148.746a2.02 2.02 0 0 0 .916 1.7q.43.276.976.277m4.59.818v-.767l2.88-3.153q.508-.554.836-.963.328-.414.486-.776.162-.366.162-.767 0-.46-.222-.797a1.44 1.44 0 0 0-.596-.52 1.9 1.9 0 0 0-.853-.183q-.502 0-.877.209a1.44 1.44 0 0 0-.576.575q-.2.37-.2.87h-1.006q0-.767.354-1.347t.963-.904q.614-.324 1.377-.324.766 0 1.359.324.592.324.929.874t.337 1.223q0 .48-.175.942-.171.456-.597 1.018-.422.558-1.172 1.364l-1.96 2.096v.069h4.057V74zm8.783-1.193-.068.46q-.073.486-.222 1.04-.144.554-.302 1.044-.159.49-.26.78h-.767l.144-.72a28 28 0 0 0 .333-2.127l.051-.477zm8.068 1.312q-.963 0-1.641-.524-.678-.528-1.035-1.53-.358-1.005-.358-2.429 0-1.414.358-2.416.362-1.006 1.039-1.534.682-.533 1.637-.533.954 0 1.632.533.681.529 1.04 1.534.362 1.002.362 2.416 0 1.424-.358 2.43-.358 1-1.036 1.53-.677.523-1.64.523m0-.937q.954 0 1.483-.92.528-.921.528-2.626 0-1.133-.243-1.93-.239-.797-.69-1.215a1.52 1.52 0 0 0-1.078-.417q-.947 0-1.479.933-.533.93-.533 2.63 0 1.133.239 1.925.239.793.686 1.207.451.413 1.087.413m11.299.818v-8.727h2.949q1.026 0 1.679.37.656.367.971.993.316.627.316 1.398 0 .772-.316 1.402a2.34 2.34 0 0 1-.963 1.006q-.652.37-1.67.37h-2.114v-.937h2.08q.703 0 1.129-.243.426-.242.618-.656a2.2 2.2 0 0 0 .196-.942q0-.525-.196-.937a1.4 1.4 0 0 0-.622-.648q-.43-.24-1.142-.239h-1.858V74zm9.407.153q-.622 0-1.13-.234a1.94 1.94 0 0 1-.805-.686q-.298-.452-.298-1.09 0-.564.221-.913a1.57 1.57 0 0 1 .593-.554q.37-.2.818-.298.452-.102.908-.162.596-.077.967-.115.375-.043.545-.14.175-.099.175-.342v-.034q0-.63-.345-.98-.341-.35-1.036-.35-.72 0-1.129.316-.409.315-.575.673l-.955-.34q.256-.597.682-.93.43-.336.938-.468.51-.137 1.005-.137.315 0 .725.077.413.073.797.303.387.23.643.694.255.465.256 1.245V74h-1.006v-.886h-.051a1.8 1.8 0 0 1-.341.456 2 2 0 0 1-.635.413q-.397.17-.967.17m.153-.903q.597 0 1.006-.234a1.6 1.6 0 0 0 .835-1.385v-.92q-.064.075-.281.14-.213.06-.495.106a22 22 0 0 1-.963.128q-.391.052-.733.166a1.26 1.26 0 0 0-.545.337q-.205.222-.205.605 0 .525.388.793.393.264.993.264m5.688-3.187V74h-1.006v-6.545h.972v1.022h.085q.23-.499.699-.8.468-.308 1.21-.308.665 0 1.164.273.498.269.775.818.277.546.277 1.38V74h-1.006v-4.09q0-.772-.4-1.203-.4-.434-1.1-.434-.482 0-.86.209-.375.209-.593.609t-.217.972m8.86-2.608v.852h-3.392v-.852zm-2.403-1.569h1.006v6.239q0 .426.123.64.127.208.324.28.2.069.422.069.166 0 .273-.017l.17-.034.205.903a2 2 0 0 1-.286.077 2 2 0 0 1-.464.042q-.426 0-.836-.183a1.66 1.66 0 0 1-.673-.558q-.264-.376-.264-.946zm6.505 8.25q-.886 0-1.555-.421a2.86 2.86 0 0 1-1.04-1.18q-.37-.76-.371-1.774 0-1.022.371-1.785.375-.763 1.04-1.185.669-.422 1.555-.422.887 0 1.551.422a2.8 2.8 0 0 1 1.04 1.185q.375.763.375 1.785 0 1.015-.375 1.773-.37.76-1.04 1.18-.665.422-1.551.422m0-.903q.673 0 1.108-.345t.643-.908q.21-.562.209-1.219 0-.656-.209-1.223a2.06 2.06 0 0 0-.643-.916q-.435-.35-1.108-.35t-1.108.35-.643.916q-.21.567-.209 1.223 0 .656.209 1.22.208.561.643.907.435.345 1.108.345m5.507-3.17V74h-1.006v-6.546h.972v1.023h.085q.23-.499.699-.8.469-.308 1.21-.308.665 0 1.163.273.499.269.776.818.277.546.277 1.38V74h-1.006v-4.09q0-.772-.4-1.203-.4-.434-1.1-.434-.482 0-.861.209-.375.209-.592.609t-.217.972m8.758 4.073q-.947 0-1.632-.417a2.8 2.8 0 0 1-1.053-1.176q-.366-.759-.366-1.765t.366-1.772a2.9 2.9 0 0 1 1.031-1.202q.666-.435 1.552-.435.511 0 1.01.17.498.172.907.555.41.38.652 1.005.243.627.243 1.543v.426h-5.045v-.87h4.022q0-.552-.221-.988a1.67 1.67 0 0 0-.622-.686 1.74 1.74 0 0 0-.946-.251q-.602 0-1.04.298-.435.294-.669.767a2.26 2.26 0 0 0-.235 1.014v.58q0 .741.256 1.257.26.51.72.78.46.264 1.07.264.396 0 .716-.11a1.5 1.5 0 0 0 .558-.342 1.55 1.55 0 0 0 .362-.57l.972.272q-.153.495-.516.87-.362.37-.895.579a3.3 3.3 0 0 1-1.197.204m4.973-.068a.74.74 0 0 1-.541-.226.74.74 0 0 1-.226-.54q0-.317.226-.542a.74.74 0 0 1 .541-.226q.316 0 .541.226.226.225.226.541 0 .21-.107.384a.8.8 0 0 1-.277.28.73.73 0 0 1-.383.103m0-4.858a.74.74 0 0 1-.541-.226.74.74 0 0 1-.226-.54q0-.316.226-.542a.74.74 0 0 1 .541-.226q.316 0 .541.226t.226.541q0 .21-.107.384a.8.8 0 0 1-.277.281.73.73 0 0 1-.383.102m5.93 4.79v-.767l2.88-3.154q.507-.554.835-.962.328-.414.486-.776.162-.366.162-.767 0-.46-.221-.797a1.44 1.44 0 0 0-.597-.52 1.9 1.9 0 0 0-.852-.183q-.503 0-.878.209a1.44 1.44 0 0 0-.575.575 1.8 1.8 0 0 0-.201.87h-1.005q0-.768.353-1.347a2.46 2.46 0 0 1 .963-.904q.614-.324 1.377-.324.767 0 1.359.324.593.324.929.874t.337 1.223q0 .48-.175.942-.17.456-.596 1.018a18 18 0 0 1-1.172 1.364l-1.961 2.096v.069h4.057V74zm10.214.12q-.843 0-1.504-.29a2.57 2.57 0 0 1-1.044-.806 2.17 2.17 0 0 1-.418-1.206h1.074q.034.422.29.729.255.303.669.469.413.165.916.166.562 0 .997-.196t.682-.546.247-.81a1.5 1.5 0 0 0-.238-.847 1.6 1.6 0 0 0-.699-.58q-.46-.21-1.125-.209h-.699v-.937h.699q.519 0 .912-.188.396-.187.617-.528.226-.34.226-.801 0-.444-.196-.772a1.33 1.33 0 0 0-.554-.51 1.8 1.8 0 0 0-.835-.184 2.2 2.2 0 0 0-.852.166q-.396.162-.648.473a1.23 1.23 0 0 0-.273.742h-1.022q.025-.686.413-1.202a2.6 2.6 0 0 1 1.014-.81q.631-.29 1.385-.29.81 0 1.389.328.58.324.891.857.31.533.311 1.15 0 .738-.388 1.258a1.96 1.96 0 0 1-1.044.72v.068q.827.136 1.291.703.465.563.465 1.394 0 .711-.388 1.278-.384.562-1.048.886-.665.324-1.513.324m4.487-1.91v-.87l3.836-6.067h.63v1.346h-.426l-2.898 4.585v.069h5.165v.937zm4.108 1.79v-8.727h1.006V74zm6.523.12q-.75 0-1.351-.299a2.5 2.5 0 0 1-.963-.818 2.24 2.24 0 0 1-.396-1.185h1.023q.06.593.537.98.481.384 1.15.384.537 0 .955-.252.421-.25.66-.69.243-.444.243-1.001 0-.571-.251-1.019a1.85 1.85 0 0 0-.682-.712 1.93 1.93 0 0 0-.993-.264 2.7 2.7 0 0 0-.822.124 2.3 2.3 0 0 0-.695.32l-.989-.12.529-4.295h4.534v.937h-3.648l-.307 2.574h.052q.268-.213.673-.354t.844-.14q.801 0 1.427.383.631.38.989 1.04.362.66.362 1.509 0 .835-.375 1.491a2.74 2.74 0 0 1-1.023 1.031q-.651.375-1.483.375M206.97 68h-1.057a2.2 2.2 0 0 0-.89-1.38 2.4 2.4 0 0 0-.729-.359 3 3 0 0 0-.835-.119q-.794 0-1.436.4-.64.401-1.019 1.181-.375.78-.375 1.913t.375 1.914q.379.78 1.019 1.18.642.4 1.436.4.434 0 .835-.119.4-.12.729-.353a2.25 2.25 0 0 0 .89-1.385h1.057q-.12.669-.435 1.197a3.26 3.26 0 0 1-1.836 1.458q-.58.19-1.24.191-1.118 0-1.986-.545-.87-.545-1.368-1.551t-.499-2.387.499-2.386q.498-1.005 1.368-1.551.869-.546 1.986-.546.66 0 1.24.192.584.192 1.052.563.47.366.784.895.316.523.435 1.197M4.005 79.864 1.193 90.312h-.92l2.812-10.448zM10.295 89l-2.387-8.727h1.074l1.824 7.108h.085l1.858-7.108h1.193L15.8 87.38h.085l1.824-7.108h1.074L16.396 89h-1.09l-1.927-6.954h-.068L11.385 89zm10.985.153a2.7 2.7 0 0 1-1.13-.234 1.94 1.94 0 0 1-.805-.686q-.297-.452-.298-1.09 0-.564.222-.913.221-.353.592-.554.37-.2.818-.298a10 10 0 0 1 .908-.162q.597-.077.967-.115.375-.043.546-.14.174-.099.174-.342v-.034q0-.63-.345-.98-.34-.35-1.035-.35-.72 0-1.13.316-.408.315-.575.673l-.954-.34q.255-.597.681-.93.43-.336.938-.468.51-.137 1.006-.137.315 0 .724.077.413.073.797.303.387.23.643.694.256.465.256 1.245V89h-1.006v-.886h-.05a1.8 1.8 0 0 1-.342.456q-.238.243-.635.413-.396.17-.967.17m.153-.903q.597 0 1.006-.234a1.6 1.6 0 0 0 .835-1.385v-.92q-.063.075-.281.14-.213.06-.494.106a22 22 0 0 1-.963.128q-.393.052-.733.166a1.26 1.26 0 0 0-.546.337q-.204.222-.204.605 0 .525.387.793.393.264.993.264m4.683.75v-6.545h.971v.988h.068q.18-.486.648-.788a1.9 1.9 0 0 1 1.057-.303q.11 0 .277.004.165.005.251.013v1.023a3 3 0 0 0-.234-.038q-.18-.03-.38-.03a1.8 1.8 0 0 0-.852.2 1.47 1.47 0 0 0-.801 1.334V89zm4.464 0v-6.545h.972v1.022h.085q.205-.524.66-.814.457-.294 1.096-.294.648 0 1.078.294.435.29.678.814h.068q.251-.507.754-.805.503-.303 1.206-.303.878 0 1.436.55.558.546.558 1.7V89h-1.005v-4.38q0-.726-.397-1.036a1.47 1.47 0 0 0-.933-.311q-.69 0-1.07.417-.379.413-.379 1.049V89h-1.023v-4.483q0-.558-.362-.9-.361-.345-.933-.344-.392 0-.733.209-.336.208-.545.58a1.7 1.7 0 0 0-.205.847V89zm13.942 0v-8.727h2.948q1.023 0 1.68.35.655.345.97.95.316.605.316 1.376t-.315 1.368q-.316.597-.967.937-.652.337-1.667.337h-2.386v-.955h2.352q.699 0 1.125-.204.431-.204.622-.58.197-.38.197-.903 0-.525-.197-.916a1.34 1.34 0 0 0-.626-.605q-.43-.218-1.138-.218h-1.858V89zm4.107-3.92L50.777 89H49.55l-2.114-3.92zm6.106 4.056q-.946 0-1.632-.417a2.8 2.8 0 0 1-1.053-1.176q-.366-.759-.366-1.765t.366-1.772a2.9 2.9 0 0 1 1.032-1.202q.665-.435 1.55-.435a3.1 3.1 0 0 1 1.01.17q.5.172.908.555.41.38.652 1.005.243.627.243 1.543v.426H52.4v-.87h4.022q0-.552-.221-.988a1.67 1.67 0 0 0-.622-.686 1.74 1.74 0 0 0-.946-.251q-.602 0-1.04.298-.435.294-.67.767a2.25 2.25 0 0 0-.234 1.014v.58q0 .741.256 1.257.26.51.72.78a2.1 2.1 0 0 0 1.07.264q.396 0 .716-.11.324-.116.558-.342.234-.23.362-.57l.972.272q-.153.495-.516.87-.362.37-.895.579a3.3 3.3 0 0 1-1.197.204m6.712 0a2.56 2.56 0 0 1-1.445-.413q-.626-.417-.98-1.176-.354-.763-.354-1.803 0-1.03.354-1.79.354-.758.984-1.171t1.458-.414q.639 0 1.01.213.375.21.57.478.201.263.312.434h.085v-3.221h1.005V89h-.971v-1.006h-.12q-.11.18-.315.452-.204.269-.584.482-.378.208-1.01.208m.136-.903q.604 0 1.023-.315.417-.32.635-.883a3.6 3.6 0 0 0 .217-1.308q0-.733-.213-1.282a1.87 1.87 0 0 0-.63-.861q-.42-.311-1.032-.311-.639 0-1.065.328-.422.324-.635.882-.21.555-.21 1.244 0 .7.214 1.27.217.567.64.904.424.332 1.056.332m14.084-7.96h1.056v5.778q0 .896-.421 1.598a2.95 2.95 0 0 1-1.18 1.104q-.764.4-1.79.4-1.028 0-1.79-.4a3 3 0 0 1-1.185-1.104 3.07 3.07 0 0 1-.418-1.598v-5.778h1.057v5.693q0 .639.282 1.138.28.495.8.78.525.28 1.254.28.728 0 1.252-.28.525-.285.801-.78.282-.5.282-1.138z"/></svg>