<svg xmlns="http://www.w3.org/2000/svg" xmlns:xlink="http://www.w3.org/1999/xlink" viewBox="0 0 245.56 375.56"><g><path d="M 0 375.56 L 0 0 L 245.558 0 L 245.558 375.56 Z" fill="transparent"></path><path d="M 187.78 0 L 173.335 0 L 173.335 14.445 L 187.78 14.445 Z" fill="rgb(62,40,38)"></path><path d="M 115.557 0 L 101.112 0 L 101.112 14.445 L 115.557 14.445 Z" fill="rgb(62,40,38)"></path><path d="M 144.446 14.445 L 130.002 14.445 L 130.002 28.889 L 144.446 28.889 Z" fill="rgb(62,40,38)"></path><path d="M 187.78 14.445 L 173.335 14.445 L 173.335 28.889 L 187.78 28.889 Z" fill="rgb(62,40,38)"></path><path d="M 173.335 14.445 L 158.891 14.445 L 158.891 28.889 L 173.335 28.889 Z" fill="rgb(62,40,38)"></path><path d="M 72.223 14.445 L 57.778 14.445 L 57.778 28.889 L 72.223 28.889 Z" fill="rgb(62,40,38)"></path><path d="M 115.557 14.445 L 101.112 14.445 L 101.112 28.889 L 115.557 28.889 Z" fill="rgb(62,40,38)"></path><path d="M 101.112 14.445 L 86.668 14.445 L 86.668 28.889 L 101.112 28.889 Z" fill="rgb(62,40,38)"></path><path d="M 57.778 14.445 L 43.334 14.445 L 43.334 28.889 L 57.778 28.889 Z" fill="rgb(62,40,38)"></path><path d="M 216.669 28.889 L 202.225 28.889 L 202.225 43.334 L 216.669 43.334 Z" fill="rgb(62,40,38)"></path><path d="M 144.446 28.889 L 130.002 28.889 L 130.002 43.334 L 144.446 43.334 Z" fill="rgb(62,40,38)"></path><path d="M 187.78 28.889 L 173.335 28.889 L 173.335 43.334 L 187.78 43.334 Z" fill="rgb(62,40,38)"></path><path d="M 173.335 28.889 L 158.891 28.889 L 158.891 43.334 L 173.335 43.334 Z" fill="rgb(62,40,38)"></path><path d="M 158.891 28.889 L 144.446 28.889 L 144.446 43.334 L 158.891 43.334 Z" fill="rgb(62,40,38)"></path><path d="M 72.223 28.889 L 57.778 28.889 L 57.778 43.334 L 72.223 43.334 Z" fill="rgb(62,40,38)"></path><path d="M 130.002 28.889 L 115.557 28.889 L 115.557 43.334 L 130.002 43.334 Z" fill="rgb(62,40,38)"></path><path d="M 115.557 28.889 L 101.112 28.889 L 101.112 43.334 L 115.557 43.334 Z" fill="rgb(62,40,38)"></path><path d="M 101.112 28.889 L 86.668 28.889 L 86.668 43.334 L 101.112 43.334 Z" fill="rgb(62,40,38)"></path><path d="M 86.668 28.889 L 72.223 28.889 L 72.223 43.334 L 86.668 43.334 Z" fill="rgb(62,40,38)"></path><path d="M 57.778 28.889 L 43.334 28.889 L 43.334 43.334 L 57.778 43.334 Z" fill="rgb(62,40,38)"></path><path d="M 216.669 43.334 L 202.225 43.334 L 202.225 57.778 L 216.669 57.778 Z" fill="rgb(62,40,38)"></path><path d="M 144.446 43.334 L 130.002 43.334 L 130.002 57.778 L 144.446 57.778 Z" fill="rgb(62,40,38)"></path><path d="M 202.225 43.334 L 187.78 43.334 L 187.78 57.778 L 202.225 57.778 Z" fill="rgb(62,40,38)"></path><path d="M 187.78 43.334 L 173.335 43.334 L 173.335 57.778 L 187.78 57.778 Z" fill="rgb(62,40,38)"></path><path d="M 173.335 43.334 L 158.891 43.334 L 158.891 57.778 L 173.335 57.778 Z" fill="rgb(62,40,38)"></path><path d="M 158.891 43.334 L 144.446 43.334 L 144.446 57.778 L 158.891 57.778 Z" fill="rgb(62,40,38)"></path><path d="M 72.223 43.334 L 57.778 43.334 L 57.778 57.778 L 72.223 57.778 Z" fill="rgb(62,40,38)"></path><path d="M 130.002 43.334 L 115.557 43.334 L 115.557 57.778 L 130.002 57.778 Z" fill="rgb(62,40,38)"></path><path d="M 115.557 43.334 L 101.112 43.334 L 101.112 57.778 L 115.557 57.778 Z" fill="rgb(62,40,38)"></path><path d="M 101.112 43.334 L 86.668 43.334 L 86.668 57.778 L 101.112 57.778 Z" fill="rgb(62,40,38)"></path><path d="M 86.668 43.334 L 72.223 43.334 L 72.223 57.778 L 86.668 57.778 Z" fill="rgb(62,40,38)"></path><path d="M 57.778 43.334 L 43.334 43.334 L 43.334 57.778 L 57.778 57.778 Z" fill="rgb(62,40,38)"></path><path d="M 43.334 43.334 L 28.89 43.334 L 28.89 57.778 L 43.334 57.778 Z" fill="rgb(62,40,38)"></path><path d="M 216.669 57.778 L 202.225 57.778 L 202.225 72.223 L 216.669 72.223 Z" fill="rgb(62,40,38)"></path><path d="M 144.446 57.778 L 130.002 57.778 L 130.002 72.223 L 144.446 72.223 Z" fill="rgb(62,40,38)"></path><path d="M 202.225 57.778 L 187.78 57.778 L 187.78 72.223 L 202.225 72.223 Z" fill="rgb(62,40,38)"></path><path d="M 187.78 57.778 L 173.335 57.778 L 173.335 72.223 L 187.78 72.223 Z" fill="rgb(62,40,38)"></path><path d="M 173.335 57.778 L 158.891 57.778 L 158.891 72.223 L 173.335 72.223 Z" fill="rgb(62,40,38)"></path><path d="M 158.891 57.778 L 144.446 57.778 L 144.446 72.223 L 158.891 72.223 Z" fill="rgb(62,40,38)"></path><path d="M 72.223 57.778 L 57.778 57.778 L 57.778 72.223 L 72.223 72.223 Z" fill="rgb(62,40,38)"></path><path d="M 130.002 57.778 L 115.557 57.778 L 115.557 72.223 L 130.002 72.223 Z" fill="rgb(62,40,38)"></path><path d="M 115.557 57.778 L 101.112 57.778 L 101.112 72.223 L 115.557 72.223 Z" fill="rgb(62,40,38)"></path><path d="M 101.112 57.778 L 86.668 57.778 L 86.668 72.223 L 101.112 72.223 Z" fill="rgb(62,40,38)"></path><path d="M 86.668 57.778 L 72.223 57.778 L 72.223 72.223 L 86.668 72.223 Z" fill="rgb(62,40,38)"></path><path d="M 57.778 57.778 L 43.334 57.778 L 43.334 72.223 L 57.778 72.223 Z" fill="rgb(62,40,38)"></path><path d="M 43.334 57.778 L 28.89 57.778 L 28.89 72.223 L 43.334 72.223 Z" fill="rgb(62,40,38)"></path><path d="M 216.669 72.223 L 202.225 72.223 L 202.225 86.668 L 216.669 86.668 Z" fill="rgb(62,40,38)"></path><path d="M 231.114 72.223 L 216.669 72.223 L 216.669 86.668 L 231.114 86.668 Z" fill="rgb(62,40,38)"></path><path d="M 144.446 72.223 L 130.002 72.223 L 130.002 86.668 L 144.446 86.668 Z" fill="rgb(62,40,38)"></path><path d="M 202.225 72.223 L 187.78 72.223 L 187.78 86.668 L 202.225 86.668 Z" fill="rgb(62,40,38)"></path><path d="M 187.78 72.223 L 173.335 72.223 L 173.335 86.668 L 187.78 86.668 Z" fill="rgb(62,40,38)"></path><path d="M 173.335 72.223 L 158.891 72.223 L 158.891 86.668 L 173.335 86.668 Z" fill="rgb(62,40,38)"></path><path d="M 158.891 72.223 L 144.446 72.223 L 144.446 86.668 L 158.891 86.668 Z" fill="rgb(62,40,38)"></path><path d="M 72.223 72.223 L 57.778 72.223 L 57.778 86.668 L 72.223 86.668 Z" fill="rgb(62,40,38)"></path><path d="M 130.002 72.223 L 115.557 72.223 L 115.557 86.668 L 130.002 86.668 Z" fill="rgb(62,40,38)"></path><path d="M 115.557 72.223 L 101.112 72.223 L 101.112 86.668 L 115.557 86.668 Z" fill="rgb(62,40,38)"></path><path d="M 101.112 72.223 L 86.668 72.223 L 86.668 86.668 L 101.112 86.668 Z" fill="rgb(62,40,38)"></path><path d="M 86.668 72.223 L 72.223 72.223 L 72.223 86.668 L 86.668 86.668 Z" fill="rgb(62,40,38)"></path><path d="M 57.778 72.223 L 43.334 72.223 L 43.334 86.668 L 57.778 86.668 Z" fill="rgb(62,40,38)"></path><path d="M 43.334 72.223 L 28.89 72.223 L 28.89 86.668 L 43.334 86.668 Z" fill="rgb(62,40,38)"></path><path d="M 28.889 72.223 L 14.445 72.223 L 14.445 86.668 L 28.889 86.668 Z" fill="rgb(62,40,38)"></path><path d="M 216.669 86.668 L 202.225 86.668 L 202.225 101.112 L 216.669 101.112 Z" fill="rgb(62,40,38)"></path><path d="M 231.114 86.668 L 216.669 86.668 L 216.669 101.112 L 231.114 101.112 Z" fill="rgb(62,40,38)"></path><path d="M 144.446 86.668 L 130.002 86.668 L 130.002 101.112 L 144.446 101.112 Z" fill="rgb(62,40,38)"></path><path d="M 202.225 86.668 L 187.78 86.668 L 187.78 101.112 L 202.225 101.112 Z" fill="rgb(62,40,38)"></path><path d="M 187.78 86.668 L 173.335 86.668 L 173.335 101.112 L 187.78 101.112 Z" fill="rgb(62,40,38)"></path><path d="M 173.335 86.668 L 158.891 86.668 L 158.891 101.112 L 173.335 101.112 Z" fill="rgb(62,40,38)"></path><path d="M 158.891 86.668 L 144.446 86.668 L 144.446 101.112 L 158.891 101.112 Z" fill="rgb(62,40,38)"></path><path d="M 72.223 86.668 L 57.778 86.668 L 57.778 101.112 L 72.223 101.112 Z" fill="rgb(62,40,38)"></path><path d="M 130.002 86.668 L 115.557 86.668 L 115.557 101.112 L 130.002 101.112 Z" fill="rgb(62,40,38)"></path><path d="M 115.557 86.668 L 101.112 86.668 L 101.112 101.112 L 115.557 101.112 Z" fill="rgb(62,40,38)"></path><path d="M 101.112 86.668 L 86.668 86.668 L 86.668 101.112 L 101.112 101.112 Z" fill="rgb(62,40,38)"></path><path d="M 86.668 86.668 L 72.223 86.668 L 72.223 101.112 L 86.668 101.112 Z" fill="rgb(62,40,38)"></path><path d="M 57.778 86.668 L 43.334 86.668 L 43.334 101.112 L 57.778 101.112 Z" fill="rgb(62,40,38)"></path><path d="M 43.334 86.668 L 28.89 86.668 L 28.89 101.112 L 43.334 101.112 Z" fill="rgb(62,40,38)"></path><path d="M 28.889 86.668 L 14.445 86.668 L 14.445 101.112 L 28.889 101.112 Z" fill="rgb(62,40,38)"></path><path d="M 216.669 101.112 L 202.225 101.112 L 202.225 115.557 L 216.669 115.557 Z" fill="rgb(62,40,38)"></path><path d="M 231.114 101.112 L 216.669 101.112 L 216.669 115.557 L 231.114 115.557 Z" fill="rgb(62,40,38)"></path><path d="M 144.446 101.112 L 130.002 101.112 L 130.002 115.557 L 144.446 115.557 Z" fill="rgb(62,40,38)"></path><path d="M 202.225 101.112 L 187.78 101.112 L 187.78 115.557 L 202.225 115.557 Z" fill="rgb(62,40,38)"></path><path d="M 187.78 101.112 L 173.335 101.112 L 173.335 115.557 L 187.78 115.557 Z" fill="rgb(62,40,38)"></path><path d="M 173.335 101.112 L 158.891 101.112 L 158.891 115.557 L 173.335 115.557 Z" fill="rgb(62,40,38)"></path><path d="M 158.891 101.112 L 144.446 101.112 L 144.446 115.557 L 158.891 115.557 Z" fill="rgb(62,40,38)"></path><path d="M 72.223 101.112 L 57.778 101.112 L 57.778 115.557 L 72.223 115.557 Z" fill="rgb(62,40,38)"></path><path d="M 130.002 101.112 L 115.557 101.112 L 115.557 115.557 L 130.002 115.557 Z" fill="rgb(62,40,38)"></path><path d="M 115.557 101.112 L 101.112 101.112 L 101.112 115.557 L 115.557 115.557 Z" fill="rgb(62,40,38)"></path><path d="M 101.112 101.112 L 86.668 101.112 L 86.668 115.557 L 101.112 115.557 Z" fill="rgb(62,40,38)"></path><path d="M 86.668 101.112 L 72.223 101.112 L 72.223 115.557 L 86.668 115.557 Z" fill="rgb(62,40,38)"></path><path d="M 57.778 101.112 L 43.334 101.112 L 43.334 115.557 L 57.778 115.557 Z" fill="rgb(62,40,38)"></path><path d="M 43.334 101.112 L 28.89 101.112 L 28.89 115.557 L 43.334 115.557 Z" fill="rgb(62,40,38)"></path><path d="M 28.889 101.112 L 14.445 101.112 L 14.445 115.557 L 28.889 115.557 Z" fill="rgb(62,40,38)"></path><path d="M 216.669 115.557 L 202.225 115.557 L 202.225 130.002 L 216.669 130.002 Z" fill="rgb(62,40,38)"></path><path d="M 231.114 115.557 L 216.669 115.557 L 216.669 130.002 L 231.114 130.002 Z" fill="rgb(62,40,38)"></path><path d="M 144.446 115.557 L 130.002 115.557 L 130.002 130.002 L 144.446 130.002 Z" fill="rgb(62,40,38)"></path><path d="M 202.225 115.557 L 187.78 115.557 L 187.78 130.002 L 202.225 130.002 Z" fill="rgb(62,40,38)"></path><path d="M 187.78 115.557 L 173.335 115.557 L 173.335 130.002 L 187.78 130.002 Z" fill="rgb(62,40,38)"></path><path d="M 173.335 115.557 L 158.891 115.557 L 158.891 130.002 L 173.335 130.002 Z" fill="rgb(62,40,38)"></path><path d="M 158.891 115.557 L 144.446 115.557 L 144.446 130.002 L 158.891 130.002 Z" fill="rgb(62,40,38)"></path><path d="M 72.223 115.557 L 57.778 115.557 L 57.778 130.002 L 72.223 130.002 Z" fill="rgb(62,40,38)"></path><path d="M 130.002 115.557 L 115.557 115.557 L 115.557 130.002 L 130.002 130.002 Z" fill="rgb(62,40,38)"></path><path d="M 115.557 115.557 L 101.112 115.557 L 101.112 130.002 L 115.557 130.002 Z" fill="rgb(62,40,38)"></path><path d="M 101.112 115.557 L 86.668 115.557 L 86.668 130.002 L 101.112 130.002 Z" fill="rgb(62,40,38)"></path><path d="M 86.668 115.557 L 72.223 115.557 L 72.223 130.002 L 86.668 130.002 Z" fill="rgb(62,40,38)"></path><path d="M 57.778 115.557 L 43.334 115.557 L 43.334 130.002 L 57.778 130.002 Z" fill="rgb(62,40,38)"></path><path d="M 43.334 115.557 L 28.89 115.557 L 28.89 130.002 L 43.334 130.002 Z" fill="rgb(62,40,38)"></path><path d="M 28.889 115.557 L 14.445 115.557 L 14.445 130.002 L 28.889 130.002 Z" fill="rgb(62,40,38)"></path><path d="M 216.669 130.002 L 202.225 130.002 L 202.225 144.446 L 216.669 144.446 Z" fill="rgb(62,40,38)"></path><path d="M 144.446 130.002 L 130.002 130.002 L 130.002 144.446 L 144.446 144.446 Z" fill="rgb(166,110,85)"></path><path d="M 202.225 130.002 L 187.78 130.002 L 187.78 144.446 L 202.225 144.446 Z" fill="rgb(62,40,38)"></path><path d="M 187.78 130.002 L 173.335 130.002 L 173.335 144.446 L 187.78 144.446 Z" fill="rgb(62,40,38)"></path><path d="M 173.335 130.002 L 158.891 130.002 L 158.891 144.446 L 173.335 144.446 Z" fill="rgb(166,110,85)"></path><path d="M 158.891 130.002 L 144.446 130.002 L 144.446 144.446 L 158.891 144.446 Z" fill="rgb(166,110,85)"></path><path d="M 72.223 130.002 L 57.778 130.002 L 57.778 144.446 L 72.223 144.446 Z" fill="rgb(62,40,38)"></path><path d="M 130.002 130.002 L 115.557 130.002 L 115.557 144.446 L 130.002 144.446 Z" fill="rgb(166,110,85)"></path><path d="M 115.557 130.002 L 101.112 130.002 L 101.112 144.446 L 115.557 144.446 Z" fill="rgb(166,110,85)"></path><path d="M 101.112 130.002 L 86.668 130.002 L 86.668 144.446 L 101.112 144.446 Z" fill="rgb(166,110,85)"></path><path d="M 86.668 130.002 L 72.223 130.002 L 72.223 144.446 L 86.668 144.446 Z" fill="rgb(166,110,85)"></path><path d="M 57.778 130.002 L 43.334 130.002 L 43.334 144.446 L 57.778 144.446 Z" fill="rgb(62,40,38)"></path><path d="M 43.334 130.002 L 28.89 130.002 L 28.89 144.446 L 43.334 144.446 Z" fill="rgb(62,40,38)"></path><path d="M 144.446 144.446 L 130.002 144.446 L 130.002 158.891 L 144.446 158.891 Z" fill="rgb(166,110,85)"></path><path d="M 202.225 144.446 L 187.78 144.446 L 187.78 158.891 L 202.225 158.891 Z" fill="rgb(62,40,38)"></path><path d="M 187.78 144.446 L 173.335 144.446 L 173.335 158.891 L 187.78 158.891 Z" fill="rgb(166,110,85)"></path><path d="M 173.335 144.446 L 158.891 144.446 L 158.891 158.891 L 173.335 158.891 Z" fill="rgb(166,110,85)"></path><path d="M 158.891 144.446 L 144.446 144.446 L 144.446 158.891 L 158.891 158.891 Z" fill="rgb(166,110,85)"></path><path d="M 72.223 144.446 L 57.778 144.446 L 57.778 158.891 L 72.223 158.891 Z" fill="rgb(166,110,85)"></path><path d="M 130.002 144.446 L 115.557 144.446 L 115.557 158.891 L 130.002 158.891 Z" fill="rgb(166,110,85)"></path><path d="M 115.557 144.446 L 101.112 144.446 L 101.112 158.891 L 115.557 158.891 Z" fill="rgb(166,110,85)"></path><path d="M 101.112 144.446 L 86.668 144.446 L 86.668 158.891 L 101.112 158.891 Z" fill="rgb(166,110,85)"></path><path d="M 86.668 144.446 L 72.223 144.446 L 72.223 158.891 L 86.668 158.891 Z" fill="rgb(166,110,85)"></path><path d="M 57.778 144.446 L 43.334 144.446 L 43.334 158.891 L 57.778 158.891 Z" fill="rgb(62,40,38)"></path><path d="M 216.669 158.891 L 202.225 158.891 L 202.225 173.335 L 216.669 173.335 Z" fill="rgb(166,110,85)"></path><path d="M 144.446 158.891 L 130.002 158.891 L 130.002 173.335 L 144.446 173.335 Z" fill="rgb(0,0,0)"></path><path d="M 202.225 158.891 L 187.78 158.891 L 187.78 173.335 L 202.225 173.335 Z" fill="rgb(0,0,0)"></path><path d="M 187.78 158.891 L 173.335 158.891 L 173.335 173.335 L 187.78 173.335 Z" fill="rgb(0,0,0)"></path><path d="M 173.335 158.891 L 158.891 158.891 L 158.891 173.335 L 173.335 173.335 Z" fill="rgb(0,0,0)"></path><path d="M 158.891 158.891 L 144.446 158.891 L 144.446 173.335 L 158.891 173.335 Z" fill="rgb(0,0,0)"></path><path d="M 72.223 158.891 L 57.778 158.891 L 57.778 173.335 L 72.223 173.335 Z" fill="rgb(0,0,0)"></path><path d="M 130.002 158.891 L 115.557 158.891 L 115.557 173.335 L 130.002 173.335 Z" fill="rgb(166,110,85)"></path><path d="M 115.557 158.891 L 101.112 158.891 L 101.112 173.335 L 115.557 173.335 Z" fill="rgb(0,0,0)"></path><path d="M 101.112 158.891 L 86.668 158.891 L 86.668 173.335 L 101.112 173.335 Z" fill="rgb(0,0,0)"></path><path d="M 86.668 158.891 L 72.223 158.891 L 72.223 173.335 L 86.668 173.335 Z" fill="rgb(0,0,0)"></path><path d="M 57.778 158.891 L 43.334 158.891 L 43.334 173.335 L 57.778 173.335 Z" fill="rgb(0,0,0)"></path><path d="M 43.334 158.891 L 28.89 158.891 L 28.89 173.335 L 43.334 173.335 Z" fill="rgb(166,110,85)"></path><path d="M 216.669 173.335 L 202.225 173.335 L 202.225 187.78 L 216.669 187.78 Z" fill="rgb(166,110,85)"></path><path d="M 144.446 173.335 L 130.002 173.335 L 130.002 187.78 L 144.446 187.78 Z" fill="rgb(242,242,242)"></path><path d="M 202.225 173.335 L 187.78 173.335 L 187.78 187.78 L 202.225 187.78 Z" fill="rgb(0,0,0)"></path><path d="M 187.78 173.335 L 173.335 173.335 L 173.335 187.78 L 187.78 187.78 Z" fill="rgb(242,242,242)"></path><path d="M 173.335 173.335 L 158.891 173.335 L 158.891 187.78 L 173.335 187.78 Z" fill="rgb(242,242,242)"></path><path d="M 158.891 173.335 L 144.446 173.335 L 144.446 187.78 L 158.891 187.78 Z" fill="rgb(242,242,242)"></path><path d="M 72.223 173.335 L 57.778 173.335 L 57.778 187.78 L 72.223 187.78 Z" fill="rgb(242,242,242)"></path><path d="M 130.002 173.335 L 115.557 173.335 L 115.557 187.78 L 130.002 187.78 Z" fill="rgb(0,0,0)"></path><path d="M 115.557 173.335 L 101.112 173.335 L 101.112 187.78 L 115.557 187.78 Z" fill="rgb(242,242,242)"></path><path d="M 101.112 173.335 L 86.668 173.335 L 86.668 187.78 L 101.112 187.78 Z" fill="rgb(242,242,242)"></path><path d="M 86.668 173.335 L 72.223 173.335 L 72.223 187.78 L 86.668 187.78 Z" fill="rgb(242,242,242)"></path><path d="M 57.778 173.335 L 43.334 173.335 L 43.334 187.78 L 57.778 187.78 Z" fill="rgb(0,0,0)"></path><path d="M 43.334 173.335 L 28.89 173.335 L 28.89 187.78 L 43.334 187.78 Z" fill="rgb(166,110,85)"></path><path d="M 144.446 187.78 L 130.002 187.78 L 130.002 202.225 L 144.446 202.225 Z" fill="rgb(0,0,0)"></path><path d="M 202.225 187.78 L 187.78 187.78 L 187.78 202.225 L 202.225 202.225 Z" fill="rgb(62,40,38)"></path><path d="M 187.78 187.78 L 173.335 187.78 L 173.335 202.225 L 187.78 202.225 Z" fill="rgb(0,0,0)"></path><path d="M 173.335 187.78 L 158.891 187.78 L 158.891 202.225 L 173.335 202.225 Z" fill="rgb(242,242,242)"></path><path d="M 158.891 187.78 L 144.446 187.78 L 144.446 202.225 L 158.891 202.225 Z" fill="rgb(242,242,242)"></path><path d="M 72.223 187.78 L 57.778 187.78 L 57.778 202.225 L 72.223 202.225 Z" fill="rgb(0,0,0)"></path><path d="M 130.002 187.78 L 115.557 187.78 L 115.557 202.225 L 130.002 202.225 Z" fill="rgb(143,96,86)"></path><path d="M 115.557 187.78 L 101.112 187.78 L 101.112 202.225 L 115.557 202.225 Z" fill="rgb(0,0,0)"></path><path d="M 101.112 187.78 L 86.668 187.78 L 86.668 202.225 L 101.112 202.225 Z" fill="rgb(242,242,242)"></path><path d="M 86.668 187.78 L 72.223 187.78 L 72.223 202.225 L 86.668 202.225 Z" fill="rgb(242,242,242)"></path><path d="M 57.778 187.78 L 43.334 187.78 L 43.334 202.225 L 57.778 202.225 Z" fill="rgb(62,40,38)"></path><path d="M 144.446 202.225 L 130.002 202.225 L 130.002 216.669 L 144.446 216.669 Z" fill="rgb(143,96,86)"></path><path d="M 202.225 202.225 L 187.78 202.225 L 187.78 216.669 L 202.225 216.669 Z" fill="rgb(62,40,38)"></path><path d="M 187.78 202.225 L 173.335 202.225 L 173.335 216.669 L 187.78 216.669 Z" fill="rgb(143,96,86)"></path><path d="M 173.335 202.225 L 158.891 202.225 L 158.891 216.669 L 173.335 216.669 Z" fill="rgb(0,0,0)"></path><path d="M 158.891 202.225 L 144.446 202.225 L 144.446 216.669 L 158.891 216.669 Z" fill="rgb(0,0,0)"></path><path d="M 72.223 202.225 L 57.778 202.225 L 57.778 216.669 L 72.223 216.669 Z" fill="rgb(143,96,86)"></path><path d="M 130.002 202.225 L 115.557 202.225 L 115.557 216.669 L 130.002 216.669 Z" fill="rgb(166,110,85)"></path><path d="M 115.557 202.225 L 101.112 202.225 L 101.112 216.669 L 115.557 216.669 Z" fill="rgb(143,96,86)"></path><path d="M 101.112 202.225 L 86.668 202.225 L 86.668 216.669 L 101.112 216.669 Z" fill="rgb(0,0,0)"></path><path d="M 86.668 202.225 L 72.223 202.225 L 72.223 216.669 L 86.668 216.669 Z" fill="rgb(0,0,0)"></path><path d="M 57.778 202.225 L 43.334 202.225 L 43.334 216.669 L 57.778 216.669 Z" fill="rgb(62,40,38)"></path><path d="M 144.446 216.669 L 130.002 216.669 L 130.002 231.114 L 144.446 231.114 Z" fill="rgb(62,40,38)"></path><path d="M 202.225 216.669 L 187.78 216.669 L 187.78 231.114 L 202.225 231.114 Z" fill="rgb(62,40,38)"></path><path d="M 187.78 216.669 L 173.335 216.669 L 173.335 231.114 L 187.78 231.114 Z" fill="rgb(62,40,38)"></path><path d="M 173.335 216.669 L 158.891 216.669 L 158.891 231.114 L 173.335 231.114 Z" fill="rgb(62,40,38)"></path><path d="M 158.891 216.669 L 144.446 216.669 L 144.446 231.114 L 158.891 231.114 Z" fill="rgb(62,40,38)"></path><path d="M 72.223 216.669 L 57.778 216.669 L 57.778 231.114 L 72.223 231.114 Z" fill="rgb(62,40,38)"></path><path d="M 130.002 216.669 L 115.557 216.669 L 115.557 231.114 L 130.002 231.114 Z" fill="rgb(62,40,38)"></path><path d="M 115.557 216.669 L 101.112 216.669 L 101.112 231.114 L 115.557 231.114 Z" fill="rgb(62,40,38)"></path><path d="M 101.112 216.669 L 86.668 216.669 L 86.668 231.114 L 101.112 231.114 Z" fill="rgb(62,40,38)"></path><path d="M 86.668 216.669 L 72.223 216.669 L 72.223 231.114 L 86.668 231.114 Z" fill="rgb(62,40,38)"></path><path d="M 57.778 216.669 L 43.334 216.669 L 43.334 231.114 L 57.778 231.114 Z" fill="rgb(62,40,38)"></path><path d="M 144.446 231.114 L 130.002 231.114 L 130.002 245.558 L 144.446 245.558 Z" fill="rgb(142,92,91)"></path><path d="M 202.225 231.114 L 187.78 231.114 L 187.78 245.558 L 202.225 245.558 Z" fill="rgb(0,0,0)"></path><path d="M 187.78 231.114 L 173.335 231.114 L 173.335 245.558 L 187.78 245.558 Z" fill="rgb(62,40,38)"></path><path d="M 173.335 231.114 L 158.891 231.114 L 158.891 245.558 L 173.335 245.558 Z" fill="rgb(62,40,38)"></path><path d="M 158.891 231.114 L 144.446 231.114 L 144.446 245.558 L 158.891 245.558 Z" fill="rgb(62,40,38)"></path><path d="M 72.223 231.114 L 57.778 231.114 L 57.778 245.558 L 72.223 245.558 Z" fill="rgb(62,40,38)"></path><path d="M 130.002 231.114 L 115.557 231.114 L 115.557 245.558 L 130.002 245.558 Z" fill="rgb(142,92,91)"></path><path d="M 115.557 231.114 L 101.112 231.114 L 101.112 245.558 L 115.557 245.558 Z" fill="rgb(142,92,91)"></path><path d="M 101.112 231.114 L 86.668 231.114 L 86.668 245.558 L 101.112 245.558 Z" fill="rgb(62,40,38)"></path><path d="M 86.668 231.114 L 72.223 231.114 L 72.223 245.558 L 86.668 245.558 Z" fill="rgb(62,40,38)"></path><path d="M 57.778 231.114 L 43.334 231.114 L 43.334 245.558 L 57.778 245.558 Z" fill="rgb(0,0,0)"></path><path d="M 216.669 245.558 L 202.225 245.558 L 202.225 260.003 L 216.669 260.003 Z" fill="rgb(0,0,0)"></path><path d="M 144.446 245.558 L 130.002 245.558 L 130.002 260.003 L 144.446 260.003 Z" fill="rgb(62,40,38)"></path><path d="M 202.225 245.558 L 187.78 245.558 L 187.78 260.003 L 202.225 260.003 Z" fill="rgb(214,91,77)"></path><path d="M 187.78 245.558 L 173.335 245.558 L 173.335 260.003 L 187.78 260.003 Z" fill="rgb(214,91,77)"></path><path d="M 173.335 245.558 L 158.891 245.558 L 158.891 260.003 L 173.335 260.003 Z" fill="rgb(62,40,38)"></path><path d="M 158.891 245.558 L 144.446 245.558 L 144.446 260.003 L 158.891 260.003 Z" fill="rgb(62,40,38)"></path><path d="M 72.223 245.558 L 57.778 245.558 L 57.778 260.003 L 72.223 260.003 Z" fill="rgb(214,91,77)"></path><path d="M 130.002 245.558 L 115.557 245.558 L 115.557 260.003 L 130.002 260.003 Z" fill="rgb(62,40,38)"></path><path d="M 115.557 245.558 L 101.112 245.558 L 101.112 260.003 L 115.557 260.003 Z" fill="rgb(62,40,38)"></path><path d="M 101.112 245.558 L 86.668 245.558 L 86.668 260.003 L 101.112 260.003 Z" fill="rgb(62,40,38)"></path><path d="M 86.668 245.558 L 72.223 245.558 L 72.223 260.003 L 86.668 260.003 Z" fill="rgb(62,40,38)"></path><path d="M 57.778 245.558 L 43.334 245.558 L 43.334 260.003 L 57.778 260.003 Z" fill="rgb(214,91,77)"></path><path d="M 43.334 245.558 L 28.89 245.558 L 28.89 260.003 L 43.334 260.003 Z" fill="rgb(0,0,0)"></path><path d="M 216.669 260.003 L 202.225 260.003 L 202.225 274.448 L 216.669 274.448 Z" fill="rgb(254,106,90)"></path><path d="M 231.114 260.003 L 216.669 260.003 L 216.669 274.448 L 231.114 274.448 Z" fill="rgb(0,0,0)"></path><path d="M 144.446 260.003 L 130.002 260.003 L 130.002 274.448 L 144.446 274.448 Z" fill="rgb(62,40,38)"></path><path d="M 202.225 260.003 L 187.78 260.003 L 187.78 274.448 L 202.225 274.448 Z" fill="rgb(254,106,90)"></path><path d="M 187.78 260.003 L 173.335 260.003 L 173.335 274.448 L 187.78 274.448 Z" fill="rgb(254,106,90)"></path><path d="M 173.335 260.003 L 158.891 260.003 L 158.891 274.448 L 173.335 274.448 Z" fill="rgb(214,91,77)"></path><path d="M 158.891 260.003 L 144.446 260.003 L 144.446 274.448 L 158.891 274.448 Z" fill="rgb(214,91,77)"></path><path d="M 72.223 260.003 L 57.778 260.003 L 57.778 274.448 L 72.223 274.448 Z" fill="rgb(254,106,90)"></path><path d="M 130.002 260.003 L 115.557 260.003 L 115.557 274.448 L 130.002 274.448 Z" fill="rgb(62,40,38)"></path><path d="M 115.557 260.003 L 101.112 260.003 L 101.112 274.448 L 115.557 274.448 Z" fill="rgb(62,40,38)"></path><path d="M 101.112 260.003 L 86.668 260.003 L 86.668 274.448 L 101.112 274.448 Z" fill="rgb(214,91,77)"></path><path d="M 86.668 260.003 L 72.223 260.003 L 72.223 274.448 L 86.668 274.448 Z" fill="rgb(214,91,77)"></path><path d="M 57.778 260.003 L 43.334 260.003 L 43.334 274.448 L 57.778 274.448 Z" fill="rgb(254,106,90)"></path><path d="M 43.334 260.003 L 28.89 260.003 L 28.89 274.448 L 43.334 274.448 Z" fill="rgb(254,106,90)"></path><path d="M 28.889 260.003 L 14.445 260.003 L 14.445 274.448 L 28.889 274.448 Z" fill="rgb(0,0,0)"></path><path d="M 216.669 274.448 L 202.225 274.448 L 202.225 288.892 L 216.669 288.892 Z" fill="rgb(166,110,85)"></path><path d="M 245.558 274.448 L 231.114 274.448 L 231.114 288.892 L 245.558 288.892 Z" fill="rgb(0,0,0)"></path><path d="M 231.114 274.448 L 216.669 274.448 L 216.669 288.892 L 231.114 288.892 Z" fill="rgb(166,110,85)"></path><path d="M 144.446 274.448 L 130.002 274.448 L 130.002 288.892 L 144.446 288.892 Z" fill="rgb(214,91,77)"></path><path d="M 202.225 274.448 L 187.78 274.448 L 187.78 288.892 L 202.225 288.892 Z" fill="rgb(166,110,85)"></path><path d="M 187.78 274.448 L 173.335 274.448 L 173.335 288.892 L 187.78 288.892 Z" fill="rgb(0,0,0)"></path><path d="M 173.335 274.448 L 158.891 274.448 L 158.891 288.892 L 173.335 288.892 Z" fill="rgb(254,106,90)"></path><path d="M 158.891 274.448 L 144.446 274.448 L 144.446 288.892 L 158.891 288.892 Z" fill="rgb(254,106,90)"></path><path d="M 72.223 274.448 L 57.778 274.448 L 57.778 288.892 L 72.223 288.892 Z" fill="rgb(0,0,0)"></path><path d="M 130.002 274.448 L 115.557 274.448 L 115.557 288.892 L 130.002 288.892 Z" fill="rgb(214,91,77)"></path><path d="M 115.557 274.448 L 101.112 274.448 L 101.112 288.892 L 115.557 288.892 Z" fill="rgb(214,91,77)"></path><path d="M 101.112 274.448 L 86.668 274.448 L 86.668 288.892 L 101.112 288.892 Z" fill="rgb(254,106,90)"></path><path d="M 86.668 274.448 L 72.223 274.448 L 72.223 288.892 L 86.668 288.892 Z" fill="rgb(254,106,90)"></path><path d="M 57.778 274.448 L 43.334 274.448 L 43.334 288.892 L 57.778 288.892 Z" fill="rgb(166,110,85)"></path><path d="M 43.334 274.448 L 28.89 274.448 L 28.89 288.892 L 43.334 288.892 Z" fill="rgb(166,110,85)"></path><path d="M 28.889 274.448 L 14.445 274.448 L 14.445 288.892 L 28.889 288.892 Z" fill="rgb(166,110,85)"></path><path d="M 14.445 274.448 L 0 274.448 L 0 288.892 L 14.445 288.892 Z" fill="rgb(0,0,0)"></path><path d="M 216.669 288.892 L 202.225 288.892 L 202.225 303.337 L 216.669 303.337 Z" fill="rgb(166,110,85)"></path><path d="M 245.558 288.892 L 231.114 288.892 L 231.114 303.337 L 245.558 303.337 Z" fill="rgb(0,0,0)"></path><path d="M 231.114 288.892 L 216.669 288.892 L 216.669 303.337 L 231.114 303.337 Z" fill="rgb(166,110,85)"></path><path d="M 144.446 288.892 L 130.002 288.892 L 130.002 303.337 L 144.446 303.337 Z" fill="rgb(254,106,90)"></path><path d="M 202.225 288.892 L 187.78 288.892 L 187.78 303.337 L 202.225 303.337 Z" fill="rgb(0,0,0)"></path><path d="M 187.78 288.892 L 173.335 288.892 L 173.335 303.337 L 187.78 303.337 Z" fill="rgb(7,51,93)"></path><path d="M 173.335 288.892 L 158.891 288.892 L 158.891 303.337 L 173.335 303.337 Z" fill="rgb(254,106,90)"></path><path d="M 158.891 288.892 L 144.446 288.892 L 144.446 303.337 L 158.891 303.337 Z" fill="rgb(254,106,90)"></path><path d="M 72.223 288.892 L 57.778 288.892 L 57.778 303.337 L 72.223 303.337 Z" fill="rgb(7,51,93)"></path><path d="M 130.002 288.892 L 115.557 288.892 L 115.557 303.337 L 130.002 303.337 Z" fill="rgb(254,106,90)"></path><path d="M 115.557 288.892 L 101.112 288.892 L 101.112 303.337 L 115.557 303.337 Z" fill="rgb(254,106,90)"></path><path d="M 101.112 288.892 L 86.668 288.892 L 86.668 303.337 L 101.112 303.337 Z" fill="rgb(254,106,90)"></path><path d="M 86.668 288.892 L 72.223 288.892 L 72.223 303.337 L 86.668 303.337 Z" fill="rgb(254,106,90)"></path><path d="M 57.778 288.892 L 43.334 288.892 L 43.334 303.337 L 57.778 303.337 Z" fill="rgb(0,0,0)"></path><path d="M 43.334 288.892 L 28.89 288.892 L 28.89 303.337 L 43.334 303.337 Z" fill="rgb(166,110,85)"></path><path d="M 28.889 288.892 L 14.445 288.892 L 14.445 303.337 L 28.889 303.337 Z" fill="rgb(166,110,85)"></path><path d="M 14.445 288.892 L 0 288.892 L 0 303.337 L 14.445 303.337 Z" fill="rgb(0,0,0)"></path><path d="M 216.669 303.337 L 202.225 303.337 L 202.225 317.782 L 216.669 317.782 Z" fill="rgb(0,0,0)"></path><path d="M 231.114 303.337 L 216.669 303.337 L 216.669 317.782 L 231.114 317.782 Z" fill="rgb(0,0,0)"></path><path d="M 144.446 303.337 L 130.002 303.337 L 130.002 317.782 L 144.446 317.782 Z" fill="rgb(254,106,90)"></path><path d="M 202.225 303.337 L 187.78 303.337 L 187.78 317.782 L 202.225 317.782 Z" fill="rgb(0,0,0)"></path><path d="M 187.78 303.337 L 173.335 303.337 L 173.335 317.782 L 187.78 317.782 Z" fill="rgb(49,125,172)"></path><path d="M 173.335 303.337 L 158.891 303.337 L 158.891 317.782 L 173.335 317.782 Z" fill="rgb(7,51,93)"></path><path d="M 158.891 303.337 L 144.446 303.337 L 144.446 317.782 L 158.891 317.782 Z" fill="rgb(254,106,90)"></path><path d="M 72.223 303.337 L 57.778 303.337 L 57.778 317.782 L 72.223 317.782 Z" fill="rgb(49,125,172)"></path><path d="M 130.002 303.337 L 115.557 303.337 L 115.557 317.782 L 130.002 317.782 Z" fill="rgb(254,106,90)"></path><path d="M 115.557 303.337 L 101.112 303.337 L 101.112 317.782 L 115.557 317.782 Z" fill="rgb(254,106,90)"></path><path d="M 101.112 303.337 L 86.668 303.337 L 86.668 317.782 L 101.112 317.782 Z" fill="rgb(254,106,90)"></path><path d="M 86.668 303.337 L 72.223 303.337 L 72.223 317.782 L 86.668 317.782 Z" fill="rgb(7,51,93)"></path><path d="M 57.778 303.337 L 43.334 303.337 L 43.334 317.782 L 57.778 317.782 Z" fill="rgb(0,0,0)"></path><path d="M 43.334 303.337 L 28.89 303.337 L 28.89 317.782 L 43.334 317.782 Z" fill="rgb(0,0,0)"></path><path d="M 28.889 303.337 L 14.445 303.337 L 14.445 317.782 L 28.889 317.782 Z" fill="rgb(0,0,0)"></path><path d="M 144.446 317.782 L 130.002 317.782 L 130.002 332.226 L 144.446 332.226 Z" fill="rgb(7,51,93)"></path><path d="M 202.225 317.782 L 187.78 317.782 L 187.78 332.226 L 202.225 332.226 Z" fill="rgb(0,0,0)"></path><path d="M 187.78 317.782 L 173.335 317.782 L 173.335 332.226 L 187.78 332.226 Z" fill="rgb(49,125,172)"></path><path d="M 173.335 317.782 L 158.891 317.782 L 158.891 332.226 L 173.335 332.226 Z" fill="rgb(49,125,172)"></path><path d="M 158.891 317.782 L 144.446 317.782 L 144.446 332.226 L 158.891 332.226 Z" fill="rgb(7,51,93)"></path><path d="M 72.223 317.782 L 57.778 317.782 L 57.778 332.226 L 72.223 332.226 Z" fill="rgb(49,125,172)"></path><path d="M 130.002 317.782 L 115.557 317.782 L 115.557 332.226 L 130.002 332.226 Z" fill="rgb(7,51,93)"></path><path d="M 115.557 317.782 L 101.112 317.782 L 101.112 332.226 L 115.557 332.226 Z" fill="rgb(7,51,93)"></path><path d="M 101.112 317.782 L 86.668 317.782 L 86.668 332.226 L 101.112 332.226 Z" fill="rgb(7,51,93)"></path><path d="M 86.668 317.782 L 72.223 317.782 L 72.223 332.226 L 86.668 332.226 Z" fill="rgb(49,125,172)"></path><path d="M 57.778 317.782 L 43.334 317.782 L 43.334 332.226 L 57.778 332.226 Z" fill="rgb(0,0,0)"></path><path d="M 144.446 332.226 L 130.002 332.226 L 130.002 346.671 L 144.446 346.671 Z" fill="rgb(7,51,93)"></path><path d="M 202.225 332.226 L 187.78 332.226 L 187.78 346.671 L 202.225 346.671 Z" fill="rgb(0,0,0)"></path><path d="M 187.78 332.226 L 173.335 332.226 L 173.335 346.671 L 187.78 346.671 Z" fill="rgb(49,125,172)"></path><path d="M 173.335 332.226 L 158.891 332.226 L 158.891 346.671 L 173.335 346.671 Z" fill="rgb(49,125,172)"></path><path d="M 158.891 332.226 L 144.446 332.226 L 144.446 346.671 L 158.891 346.671 Z" fill="rgb(49,125,172)"></path><path d="M 72.223 332.226 L 57.778 332.226 L 57.778 346.671 L 72.223 346.671 Z" fill="rgb(49,125,172)"></path><path d="M 130.002 332.226 L 115.557 332.226 L 115.557 346.671 L 130.002 346.671 Z" fill="rgb(7,51,93)"></path><path d="M 115.557 332.226 L 101.112 332.226 L 101.112 346.671 L 115.557 346.671 Z" fill="rgb(7,51,93)"></path><path d="M 101.112 332.226 L 86.668 332.226 L 86.668 346.671 L 101.112 346.671 Z" fill="rgb(49,125,172)"></path><path d="M 86.668 332.226 L 72.223 332.226 L 72.223 346.671 L 86.668 346.671 Z" fill="rgb(49,125,172)"></path><path d="M 57.778 332.226 L 43.334 332.226 L 43.334 346.671 L 57.778 346.671 Z" fill="rgb(0,0,0)"></path><path d="M 202.225 346.671 L 187.78 346.671 L 187.78 361.115 L 202.225 361.115 Z" fill="rgb(0,0,0)"></path><path d="M 187.78 346.671 L 173.335 346.671 L 173.335 361.115 L 187.78 361.115 Z" fill="rgb(89,93,95)"></path><path d="M 173.335 346.671 L 158.891 346.671 L 158.891 361.115 L 173.335 361.115 Z" fill="rgb(89,93,95)"></path><path d="M 158.891 346.671 L 144.446 346.671 L 144.446 361.115 L 158.891 361.115 Z" fill="rgb(0,0,0)"></path><path d="M 72.223 346.671 L 57.778 346.671 L 57.778 361.115 L 72.223 361.115 Z" fill="rgb(89,93,95)"></path><path d="M 101.112 346.671 L 86.668 346.671 L 86.668 361.115 L 101.112 361.115 Z" fill="rgb(0,0,0)"></path><path d="M 86.668 346.671 L 72.223 346.671 L 72.223 361.115 L 86.668 361.115 Z" fill="rgb(89,93,95)"></path><path d="M 57.778 346.671 L 43.334 346.671 L 43.334 361.115 L 57.778 361.115 Z" fill="rgb(0,0,0)"></path><path d="M 187.78 361.115 L 173.335 361.115 L 173.335 375.56 L 187.78 375.56 Z" fill="rgb(0,0,0)"></path><path d="M 173.335 361.115 L 158.891 361.115 L 158.891 375.56 L 173.335 375.56 Z" fill="rgb(0,0,0)"></path><path d="M 72.223 361.115 L 57.778 361.115 L 57.778 375.56 L 72.223 375.56 Z" fill="rgb(0,0,0)"></path><path d="M 86.668 361.115 L 72.223 361.115 L 72.223 375.56 L 86.668 375.56 Z" fill="rgb(0,0,0)"></path></g></svg>