<svg width="585" height="118" viewBox="0 0 585 118" fill="none" xmlns="http://www.w3.org/2000/svg">
<path d="M50.83 115.26H-6.70552e-08V1.87H50.66C86.36 1.87 112.88 22.27 112.88 58.48C112.88 94.69 86.36 115.26 50.83 115.26ZM34.34 31.79V85.34H50.66C67.83 85.34 78.03 72.76 78.03 58.48C78.03 43.18 69.19 31.79 50.83 31.79H34.34ZM190.116 115.26H155.776V1.87H190.116V115.26ZM294.423 117.3C259.743 117.3 232.883 93.5 232.883 58.65C232.883 23.63 259.743 4.17233e-06 294.423 4.17233e-06C325.023 4.17233e-06 339.983 17.34 346.783 32.98L317.203 46.75C314.313 37.91 305.473 30.26 294.423 30.26C278.783 30.26 267.733 42.84 267.733 58.65C267.733 74.46 278.783 87.04 294.423 87.04C305.473 87.04 314.313 79.39 317.203 70.55L346.783 84.15C340.153 99.28 325.023 117.3 294.423 117.3ZM422.478 115.26H388.138V1.87H422.478V115.26ZM522.195 115.26H471.365V1.87H522.025C557.725 1.87 584.245 22.27 584.245 58.48C584.245 94.69 557.725 115.26 522.195 115.26ZM505.705 31.79V85.34H522.025C539.195 85.34 549.395 72.76 549.395 58.48C549.395 43.18 540.555 31.79 522.195 31.79H505.705Z" fill="black"/>
</svg>
