<svg width="539" height="123" viewBox="0 0 539 123" fill="none" xmlns="http://www.w3.org/2000/svg">
<path d="M0 3.90137C0 3.45866 0.221354 3.2373 0.664062 3.2373H2.49023L29.1357 2.65625C32.3454 2.54557 35.8317 2.49023 39.5947 2.49023H49.9707C59.5996 2.49023 66.8213 2.84993 71.6357 3.56934C76.5055 4.28874 81.2646 5.14648 85.9131 6.14258C90.6169 7.08333 95.5973 9.26921 100.854 12.7002C106.167 16.1312 110.76 20.2816 114.634 25.1514C122.824 35.555 126.919 46.7887 126.919 58.8525C126.919 70.9163 123.765 81.735 117.456 91.3086C108.381 105.199 95.2376 114.274 78.0273 118.535C72.5488 119.863 66.932 120.527 61.1768 120.527H0.664062C0.221354 120.527 0 120.306 0 119.863V117.539C0 117.096 0.221354 116.875 0.664062 116.875H2.49023C12.5618 116.875 17.5977 113.665 17.5977 107.246V16.2695C17.5977 13.1706 16.4079 10.8464 14.0283 9.29688C11.6488 7.69206 8.96484 6.88965 5.97656 6.88965H0.664062C0.221354 6.88965 0 6.66829 0 6.22559V3.90137ZM35.8594 6.3916C34.4759 6.3916 33.7842 7.13867 33.7842 8.63281V110.151C33.7842 114.246 37.6302 116.377 45.3223 116.543C47.5911 116.598 49.9707 116.626 52.4609 116.626C70.1139 116.626 83.9762 111.673 94.0479 101.768C104.175 91.862 109.238 78.6914 109.238 62.2559C109.238 45.765 104.562 32.3454 95.21 21.9971C85.9131 11.5934 73.6556 6.3916 58.4375 6.3916H35.8594ZM162.108 16.7676C162.108 10.127 158.289 6.80664 150.653 6.80664C149.435 6.80664 148.826 6.58529 148.826 6.14258V4.15039C148.826 3.70768 149.048 3.48633 149.49 3.48633H191.077C191.52 3.48633 191.741 3.70768 191.741 4.15039V6.14258C191.741 6.58529 190.524 6.80664 188.089 6.80664C185.654 6.80664 183.413 7.58138 181.365 9.13086C179.318 10.6803 178.294 13.8623 178.294 18.6768V107.246C178.294 113.887 182.14 117.207 189.832 117.207C190.994 117.207 191.575 117.428 191.575 117.871V119.863C191.575 120.306 191.354 120.527 190.911 120.527H149.324C148.882 120.527 148.66 120.306 148.66 119.863V117.871C148.66 117.428 149.878 117.207 152.313 117.207C154.748 117.207 156.989 116.432 159.036 114.883C161.084 113.333 162.108 110.151 162.108 105.337V16.7676ZM317.741 117.373C317.464 117.816 316.772 117.926 315.665 117.705C314.614 117.428 313.369 117.29 311.93 117.29C310.491 117.29 308.444 117.594 305.788 118.203C303.187 118.757 299.064 119.642 293.419 120.859C287.775 122.132 282.628 122.769 277.98 122.769C267.466 122.769 257.256 120.306 247.35 115.381C237.5 110.4 229.614 103.372 223.693 94.2969C217.772 85.166 214.811 74.5964 214.811 62.5879C214.811 50.5794 217.772 39.7054 223.693 29.9658C232.326 15.6885 245.33 6.3916 262.706 2.0752C268.24 0.691732 273.774 0 279.308 0C286.889 0 295.882 1.27279 306.286 3.81836C309.44 4.5931 312.096 5.39551 314.254 6.22559C316.468 7.05566 317.824 7.4707 318.322 7.4707L320.812 6.80664H323.385C324.049 6.80664 324.381 7.27702 324.381 8.21777V34.0332C324.381 34.5866 323.883 34.8633 322.887 34.8633C321.891 34.8633 321.31 34.7526 321.144 34.5312C320.978 34.2546 320.812 33.9502 320.646 33.6182C320.48 33.2308 320.286 32.8434 320.065 32.4561C319.899 32.0687 319.705 31.709 319.484 31.377C319.318 31.0449 319.207 30.7959 319.152 30.6299C310.851 13.973 298.261 5.64453 281.383 5.64453C266.165 5.64453 254.267 10.4867 245.69 20.1709C237.112 29.8551 232.824 42.6937 232.824 58.6865C232.824 74.624 237.527 88.3203 246.935 99.7754C256.398 111.23 269.236 116.958 285.451 116.958C294.305 116.958 302.357 114.329 309.606 109.072C316.911 103.815 322.638 97.3682 326.788 89.7314C326.899 89.3994 327.231 89.2334 327.785 89.2334H328.864C329.417 89.2334 329.694 89.5654 329.694 90.2295C329.694 90.8936 329.528 91.5299 329.196 92.1387L317.741 117.373ZM363.803 16.7676C363.803 10.127 359.985 6.80664 352.348 6.80664C351.131 6.80664 350.522 6.58529 350.522 6.14258V4.15039C350.522 3.70768 350.743 3.48633 351.186 3.48633H392.773C393.216 3.48633 393.437 3.70768 393.437 4.15039V6.14258C393.437 6.58529 392.22 6.80664 389.785 6.80664C387.35 6.80664 385.109 7.58138 383.061 9.13086C381.014 10.6803 379.99 13.8623 379.99 18.6768V107.246C379.99 113.887 383.836 117.207 391.528 117.207C392.69 117.207 393.271 117.428 393.271 117.871V119.863C393.271 120.306 393.05 120.527 392.607 120.527H351.02C350.577 120.527 350.356 120.306 350.356 119.863V117.871C350.356 117.428 351.573 117.207 354.008 117.207C356.443 117.207 358.684 116.432 360.732 114.883C362.78 113.333 363.803 110.151 363.803 105.337V16.7676ZM411.526 3.90137C411.526 3.45866 411.748 3.2373 412.19 3.2373H414.016L440.662 2.65625C443.872 2.54557 447.358 2.49023 451.121 2.49023H461.497C471.126 2.49023 478.347 2.84993 483.162 3.56934C488.032 4.28874 492.791 5.14648 497.439 6.14258C502.143 7.08333 507.124 9.26921 512.381 12.7002C517.693 16.1312 522.286 20.2816 526.16 25.1514C534.35 35.555 538.445 46.7887 538.445 58.8525C538.445 70.9163 535.291 81.735 528.982 91.3086C519.907 105.199 506.764 114.274 489.554 118.535C484.075 119.863 478.458 120.527 472.703 120.527H412.19C411.748 120.527 411.526 120.306 411.526 119.863V117.539C411.526 117.096 411.748 116.875 412.19 116.875H414.016C424.088 116.875 429.124 113.665 429.124 107.246V16.2695C429.124 13.1706 427.934 10.8464 425.555 9.29688C423.175 7.69206 420.491 6.88965 417.503 6.88965H412.19C411.748 6.88965 411.526 6.66829 411.526 6.22559V3.90137ZM447.386 6.3916C446.002 6.3916 445.31 7.13867 445.31 8.63281V110.151C445.31 114.246 449.156 116.377 456.848 116.543C459.117 116.598 461.497 116.626 463.987 116.626C481.64 116.626 495.502 111.673 505.574 101.768C515.701 91.862 520.764 78.6914 520.764 62.2559C520.764 45.765 516.088 32.3454 506.736 21.9971C497.439 11.5934 485.182 6.3916 469.964 6.3916H447.386Z" fill="black"/>
</svg>
