<svg width="563" height="149" viewBox="0 0 563 149" fill="none" xmlns="http://www.w3.org/2000/svg">
<path d="M20.957 40.0732L21.5234 39.2236L22.7979 37.666L23.3643 37.0996L24.2139 36.5332L25.0635 35.9668L25.9131 35.2588L26.9043 34.6924L27.7539 34.126L28.8867 33.7012L30.0195 33.1348L31.1523 32.5684L32.5684 32.002L33.8428 31.5771L35.2588 31.1523L36.5332 30.7275L38.0908 30.3027L39.6484 30.0195L41.2061 29.7363L40.498 30.5859L39.9316 31.5771L39.3652 32.4268L38.7988 33.2764L38.374 34.126L37.9492 34.9756L37.666 35.8252L37.3828 36.6748L36.8164 38.5156L36.5332 40.0732H20.957ZM50.2686 90.0586L50.6934 89.7754L51.543 89.3506L52.1094 89.209L52.959 88.9258L53.667 88.6426L54.375 88.501L55.2246 88.3594L55.9326 88.0762H56.9238L57.7734 87.9346L58.623 87.793L59.7559 87.6514H67.4023L68.3936 87.793L69.3848 87.9346H70.2344L71.084 88.0762L71.9336 88.2178L72.7832 88.501L73.6328 88.6426L74.4824 88.9258L75.1904 89.0674L75.8984 89.3506L76.748 89.6338L77.5977 89.917L78.3057 90.2002V54.9414L77.1729 55.3662L76.3232 55.791L75.332 56.0742L74.1992 56.3574L73.3496 56.6406L72.3584 56.9238L71.5088 57.207L70.5176 57.3486L69.668 57.4902L68.8184 57.6318H67.9688L66.9775 57.7734L66.1279 57.915H60.8887L59.8975 57.7734L59.0479 57.6318H57.4902L56.6406 57.3486L55.791 57.207H55.083L54.2334 56.7822L53.3838 56.6406L52.5342 56.3574L51.8262 56.2158L50.9766 55.9326L50.2686 55.6494V90.0586ZM78.3057 35.8252L78.1641 34.4092L78.0225 33.1348L77.8809 32.002L77.5977 30.8691L77.1729 29.8779L76.8896 28.8867L76.3232 28.3203L75.8984 27.6123L75.0488 27.0459L74.1992 26.6211L73.208 26.1963L71.9336 25.7715L70.5176 25.6299L69.1016 25.3467H67.2607L65.4199 25.2051H50.2686V52.3926L50.9766 52.6758L51.6846 53.1006L52.3926 53.2422L53.2422 53.5254L54.0918 53.8086L54.7998 53.9502L55.6494 54.0918L56.499 54.2334L57.3486 54.375L58.1982 54.5166L59.0479 54.6582H60.0391L61.0303 54.7998H62.0215L63.0127 54.9414H64.9951L66.1279 54.7998L66.9775 54.6582H67.9688L68.96 54.5166L69.9512 54.375L70.8008 54.2334L71.5088 54.0918L72.3584 53.8086L73.208 53.667L74.0576 53.2422L75.0488 52.959L75.8984 52.6758L76.748 52.251L77.4561 51.8262L78.3057 51.543V35.8252ZM47.1533 25.2051H20.5322L19.1162 25.0635H17.8418L16.4258 24.9219L15.293 24.6387L14.0186 24.4971L12.8857 24.2139L11.8945 23.9307L10.9033 23.6475L9.77051 23.2227L8.9209 22.6562L8.07129 22.2314L7.22168 21.8066L6.51367 21.3818L5.66406 20.6738L5.23926 20.1074L3.96484 18.5498L2.97363 16.9922L2.12402 15.1514L1.41602 13.0273L0.849609 10.7617L0.283203 8.35449L0.141602 5.80566L0 2.83203L0.566406 3.11523L1.13281 3.25684L1.69922 3.54004L2.12402 3.82324L2.54883 3.96484L3.11523 4.10645L3.68164 4.24805L4.24805 4.38965L4.81445 4.53125L5.38086 4.67285H6.93848L7.64648 4.81445L8.49609 4.95605H73.7744L75.6152 5.09766L77.1729 5.23926L78.8721 5.52246L80.2881 5.80566L81.8457 5.94727L83.1201 6.37207L84.3945 6.79688L85.6689 7.22168L86.8018 7.64648L87.793 8.21289L88.7842 8.7793L89.7754 9.3457L90.4834 10.0537L91.333 10.7617L92.6074 12.3193L93.7402 14.1602L94.7314 16.2842L95.4395 18.6914L96.1475 21.3818L96.5723 24.0723L96.8555 27.3291L96.9971 115.405V118.096L97.2803 120.361L97.5635 122.344L97.9883 124.185L98.2715 125.034L98.4131 125.742L98.8379 126.592L99.2627 127.3L99.6875 128.291L99.9707 129.141L100.396 129.849L100.962 130.698H99.6875L99.2627 130.557H98.4131L97.8467 130.415H95.7227L94.7314 130.557L93.457 130.698L92.4658 130.84L91.333 130.981L90.2002 131.123L89.0674 131.406L87.9346 131.689L86.8018 131.973L85.5273 132.256L84.5361 132.681L83.4033 133.105L82.1289 133.53L80.9961 133.955L79.8633 134.38L78.5889 134.946L77.5977 135.654L76.3232 136.221L75.0488 136.787L73.916 137.495L72.7832 138.345L71.5088 138.911L70.376 139.761L69.1016 140.61L67.9688 141.46L66.6943 142.451L65.5615 143.301L64.4287 144.292L63.0127 145.283L61.8799 146.274L60.7471 147.407L59.4727 148.398L58.623 147.974L57.6318 147.549L56.7822 146.982L55.6494 146.699L54.7998 146.274L53.8086 145.85L52.959 145.425L51.9678 145L50.835 144.717L49.9854 144.434L48.9941 144.15L48.0029 143.726L47.0117 143.442L45.8789 143.301L44.8877 142.876L43.8965 142.734L42.9053 142.451L41.9141 142.168L40.7812 141.885L39.79 141.743L38.7988 141.602L37.666 141.46L36.5332 141.318L35.6836 141.035H34.6924L33.5596 140.894H32.5684L31.4355 140.752L30.4443 140.61H24.2139L23.3643 140.752L22.5146 140.894L21.665 141.035H20.1074L19.3994 141.318L18.5498 141.46L17.7002 141.602L16.9922 141.743L16.1426 141.885L15.293 142.168L14.585 142.31L13.877 142.593L13.1689 142.876L12.3193 143.018L11.4697 143.301L10.6201 143.726L9.91211 144.009L9.0625 144.292L8.35449 144.575L7.36328 145L6.65527 145.425L5.80566 145.85L5.09766 146.133L4.24805 146.558L3.39844 146.982L2.54883 147.407L1.69922 147.832L2.54883 146.558L3.25684 145.142L3.96484 143.867L4.95605 142.451L5.66406 141.318L6.79688 140.044L7.78809 138.911L8.7793 137.637L9.91211 136.504L11.0449 135.371L12.3193 134.38L13.5938 133.53L14.8682 132.397L16.1426 131.548L17.5586 130.557L18.9746 129.707L20.5322 128.857L21.9482 128.149L23.5059 127.3L25.2051 126.592L26.9043 126.025L28.4619 125.459L30.1611 124.893L32.002 124.326L33.7012 123.76L35.542 123.335L37.3828 123.052L39.2236 122.769L41.2061 122.485L43.1885 122.202L45.0293 122.061L47.1533 121.919V25.2051ZM50.2686 121.919H51.543L53.1006 122.061L54.6582 122.202L56.0742 122.485L57.6318 122.769L59.0479 123.052L60.4639 123.618L61.8799 124.043L63.4375 124.609L64.8535 125.176L66.1279 126.025L67.6855 126.733L69.1016 127.725L70.5176 128.574L72.0752 129.565L73.4912 130.698L78.3057 128.008V93.3154L77.5977 92.8906L76.748 92.6074L76.04 92.4658L75.332 92.041L74.4824 91.8994L73.6328 91.6162L73.0664 91.4746L72.3584 91.333L71.5088 91.1914H70.6592L69.8096 90.9082H68.8184L67.9688 90.7666H61.4551L60.4639 90.9082H59.4727L58.4814 91.1914H57.4902L56.499 91.333L55.6494 91.4746L54.7998 91.6162L53.9502 91.8994L53.2422 92.041L52.3926 92.4658L51.543 92.6074L50.835 92.8906L50.2686 93.3154V121.919ZM32.1436 111.724L30.8691 113.281L30.3027 114.131L29.4531 114.98L28.6035 115.547L27.7539 116.255L26.9043 117.104L25.7715 117.812L24.6387 118.521L23.5059 119.229L22.373 119.937L21.0986 120.645L19.6826 121.353L18.2666 122.061L16.709 122.627L15.293 123.335L13.5938 124.043L11.8945 124.751L12.0361 124.468L12.7441 123.618L13.4521 122.627L14.0186 121.777L14.4434 120.645L15.0098 119.653L15.4346 118.521L15.8594 117.388L16.1426 116.255L16.709 113.706L17.417 107.476L17.5586 103.652V84.5361H9.62891L8.7793 84.6777L8.07129 84.8193L7.36328 84.9609L6.93848 85.3857L6.37207 85.5273L5.80566 85.9521L5.23926 86.8018L4.67285 87.9346L4.24805 89.209V90.7666L3.68164 90.2002L3.25684 89.7754L2.83203 89.209L2.54883 88.501L2.12402 87.9346L1.69922 87.2266L1.41602 86.6602L1.27441 85.9521L0.849609 84.5361L0.566406 82.9785L0.283203 81.4209V77.8809L0.566406 75.7568L0.849609 73.916L1.27441 72.3584L1.55762 70.9424L2.12402 69.5264L2.83203 68.5352L3.54004 67.6855L4.38965 66.8359L5.52246 66.1279L6.65527 65.5615L7.92969 65.1367L9.62891 64.7119L11.1865 64.4287L13.0273 64.1455H17.5586V51.6846L17.8418 49.1357L18.2666 46.7285L18.833 44.6045L19.541 42.6221L20.3906 40.7812L20.957 40.0732H36.5332V40.7812L36.25 43.3301L36.1084 46.1621V98.8379L35.8252 101.387L35.4004 103.794L34.834 105.918L34.126 108.042L33.2764 110.024L32.1436 111.724ZM132.471 12.6025L133.321 11.1865L134.878 9.4873L136.436 7.64648L138.277 6.08887L139.126 5.38086L139.976 4.67285L140.967 4.10645L141.817 3.39844L142.95 2.83203L143.799 2.40723L144.79 1.98242L145.923 1.55762L146.914 1.13281L147.906 0.849609L148.897 0.566406L150.03 0.283203L151.021 0.141602L152.295 0H156.968L157.676 0.141602H158.526L159.375 0.283203H160.083L160.933 0.424805L161.783 0.566406L162.915 0.708008L163.765 0.849609L164.756 0.991211L165.889 1.13281L166.88 1.41602L168.013 1.55762L169.146 1.69922L170.137 1.98242H171.27L172.261 2.26562H173.111L174.102 2.40723L175.093 2.54883L175.943 2.69043L176.792 2.83203H178.35L179.2 2.97363H184.722L185.43 2.83203H186.846L187.412 2.69043L187.979 2.54883L188.545 2.40723H189.395L189.82 2.26562L190.669 1.98242L191.236 1.84082L191.944 1.69922L192.51 1.41602L191.377 3.82324L190.103 5.94727L188.829 8.07129L187.412 9.91211L185.996 11.6113L185.005 12.6025H132.471ZM200.015 12.6025L200.44 12.3193L201.431 11.4697L202.705 10.3369L203.98 9.4873L205.396 8.6377L206.67 7.64648L208.086 6.65527L209.786 5.80566L211.202 4.67285L212.901 3.82324L214.6 2.83203L213.75 3.68164L213.042 4.67285L212.193 5.66406L211.626 6.65527L211.06 7.64648L210.494 8.6377L209.927 9.62891L209.502 10.6201L208.936 12.6025H200.015ZM185.005 12.6025L184.58 13.1689L183.023 14.585L181.465 15.7178L180.757 16.2842L179.908 16.709L179.2 17.1338L178.35 17.7002L177.5 17.9834L176.509 18.4082L175.66 18.6914L174.81 19.1162L173.819 19.3994L172.969 19.6826H171.836L170.845 19.9658L169.996 20.1074H164.756L163.34 19.9658L162.066 19.8242L160.367 19.6826L158.667 19.3994L156.827 19.1162L154.986 18.6914L153.853 18.5498L152.862 18.2666L151.871 18.125L151.021 17.9834L150.171 17.8418L149.322 17.7002L148.33 17.5586L147.481 17.417H146.065L145.215 17.2754L144.649 17.1338H140.542L139.693 17.2754L138.985 17.417L138.135 17.7002L137.286 17.8418L136.436 18.125L135.586 18.4082L134.595 18.833L133.746 19.1162L132.896 19.6826L131.763 20.1074L130.913 20.5322L129.922 21.0986L128.931 21.8066L127.94 22.373H127.798L128.648 19.9658L129.639 17.5586L130.772 15.293L132.046 13.1689L132.471 12.6025H185.005ZM207.945 110.449L207.803 112.573L207.52 114.556L207.237 116.821L206.812 118.662L206.246 120.645L205.537 122.485L204.829 124.185L203.98 125.884L202.989 127.3L201.856 128.999L200.723 130.415L199.59 131.831L198.316 133.105L196.758 134.521L195.201 135.654L193.643 136.787L191.802 137.778L189.961 138.911L188.121 139.761L185.996 140.61L183.872 141.46L181.607 142.026L179.341 142.734L176.934 143.301L174.385 143.726L171.836 144.15L169.146 144.434L166.455 144.717L163.34 144.858L160.508 145H155.269L154.136 144.858H153.145L152.012 144.575H151.021L149.888 144.292L148.755 144.15L147.622 143.726L146.631 143.584L145.498 143.159L144.366 142.876L143.233 142.451L142.242 142.026L140.967 141.602L139.976 141.035L138.843 140.61L137.71 140.186L136.861 139.761L135.87 139.478L134.878 139.194L134.029 138.77L133.179 138.486L132.471 138.203L131.621 137.92L130.913 137.778L130.205 137.495H129.639L128.931 137.354L128.506 137.212H126.524L125.391 137.354L124.4 137.495L123.267 137.637L122.134 137.92L121.001 138.345L119.727 138.628L118.736 139.053L117.461 139.619L116.187 140.186L115.196 140.752L113.921 141.46L112.647 142.168L111.514 143.018L110.381 143.867L109.248 144.717H109.107L109.532 142.31L110.098 140.044L110.948 137.778L111.939 135.654L113.072 133.53L114.488 131.406L116.187 129.424L117.886 127.583L118.877 126.592L119.869 125.884L120.86 125.034L121.851 124.326L122.842 123.618L123.833 122.91L124.966 122.485L125.816 122.061L126.807 121.494L127.94 121.211L128.931 120.786L129.922 120.503L131.055 120.361L132.046 120.22L133.037 120.078H135.162L136.294 120.22L137.286 120.361L138.56 120.786L139.693 121.069L140.826 121.494L141.958 122.061L143.091 122.627L144.366 123.335L145.498 124.185L146.773 125.034L147.906 126.025L149.18 126.875L150.454 128.008L151.587 129.282L153.003 130.415L153.57 130.981L154.136 131.548L154.561 132.114L154.986 132.539L155.411 132.822L155.835 133.247L156.26 133.672L156.543 133.955L157.535 134.805L158.526 135.371L159.517 136.221L160.508 136.646L161.499 137.354L162.349 137.778L163.34 138.345L164.331 138.628L165.181 139.053L166.031 139.336L166.88 139.761L167.871 139.902L168.863 140.186H169.712L170.704 140.327H172.686L173.677 140.186H174.81L175.801 140.044L176.651 139.761L177.642 139.478L178.633 139.194L179.483 138.628L180.191 138.345L181.04 137.778L181.748 137.212L182.456 136.646L183.164 136.079L183.731 135.371L184.439 134.521L185.005 133.813L185.855 132.114L186.846 129.99L187.696 127.866L188.262 125.317L188.687 122.627L188.97 119.795L189.253 116.68L189.395 113.281V36.25L189.678 32.8516L190.103 29.7363L190.811 26.7627L191.519 24.2139L192.51 21.8066L193.643 19.6826L194.917 17.8418L195.625 16.9922L196.475 16.1426L197.325 15.1514L198.316 14.1602L199.307 13.3105L200.015 12.6025H208.936V12.8857L208.37 15.5762L208.086 18.833L207.945 22.6562V110.449ZM141.675 70.9424L141.958 69.3848L142.666 67.6855L143.233 66.4111L144.082 65.1367L145.074 63.8623L146.206 62.8711L147.339 61.8799L148.614 61.1719L150.03 60.3223L151.446 59.7559L153.003 59.6143L154.703 59.3311L156.543 59.1895H157.11L157.393 59.3311H158.951V52.5342L159.375 50.2686L159.8 48.0029L160.225 45.8789L160.933 43.8965L161.924 42.1973L162.915 40.3564L164.19 38.7988L164.756 38.0908L165.606 37.2412L166.455 36.3916L167.305 35.6836L168.296 34.834L169.287 33.9844L170.42 33.2764L171.553 32.4268L172.828 31.5771L174.244 30.5859L175.66 29.7363L177.076 28.8867L178.633 28.1787L180.191 27.3291L181.89 26.4795L183.731 25.6299L183.023 26.6211L182.456 27.6123L181.89 28.7451L181.465 29.8779L180.899 31.1523L180.474 32.4268L180.049 33.8428L179.766 35.4004L179.2 38.5156L178.775 42.0557L178.35 45.8789V88.2178L178.067 92.1826L177.5 95.7227L177.076 98.9795L176.226 101.812L175.376 104.502L174.102 106.768L172.828 108.75L172.12 109.6L171.27 110.449L170.42 111.299L169.571 112.007L168.721 112.715L167.447 113.564L166.455 114.131L165.323 114.697L164.048 115.405L162.774 115.83L161.358 116.396L159.942 116.963L158.526 117.388L156.968 117.812L155.411 118.096L153.711 118.521L154.561 117.812L155.127 117.104L155.835 116.255L156.543 115.405L157.11 114.414L157.535 113.281L157.959 112.29L158.243 111.299L158.951 108.75L159.375 105.635L159.517 101.812L159.659 97.4219V78.1641H159.375L158.951 78.0225H157.959L157.393 77.8809H154.986L153.711 78.0225L152.437 78.3057H151.446L150.596 78.7305L149.605 79.0137L148.755 79.4385L147.906 79.8633L147.339 80.4297L146.631 80.9961L146.065 81.5625L145.498 82.2705L145.074 83.1201L144.649 83.9697L144.366 84.8193L144.082 85.6689L143.658 85.2441L143.233 84.8193L142.95 84.2529L142.666 83.6865L142.383 83.2617L142.242 82.6953L141.817 82.2705V81.8457L141.392 80.5713L141.25 79.4385L140.967 77.8809V74.4824L141.25 72.6416V72.0752L141.675 70.9424ZM271.314 116.821L272.022 115.972L272.589 115.405L273.155 114.556L273.721 113.706L274.288 112.998L274.713 112.148L275.137 111.299L275.421 110.591L275.987 108.325L276.27 105.635L276.554 102.236L276.695 98.1299V30.0195L261.827 37.666L260.977 35.2588L263.385 33.9844L265.792 32.71L268.057 31.4355L270.323 30.3027L272.447 29.0283L274.713 27.8955L276.695 26.7627L278.819 25.6299L280.943 24.4971L282.784 23.3643L284.766 22.2314L286.466 21.2402L288.165 20.1074L290.006 19.1162L291.563 18.2666L293.262 17.1338L294.679 16.1426L296.378 15.293L297.794 14.3018L299.351 13.3105L300.767 12.3193L302.042 11.3281L303.458 10.3369L304.874 9.3457L306.148 8.49609L307.423 7.36328L308.697 6.51367L309.971 5.52246L311.104 4.53125L312.237 3.68164L313.37 2.83203L314.503 1.84082L314.928 3.11523L315.352 4.38965L315.777 5.52246L316.344 6.65527L317.052 7.64648L317.476 8.49609L318.184 9.3457L318.892 9.91211L319.6 10.6201L320.167 11.1865L321.016 11.6113L321.866 12.0361L322.574 12.3193L323.565 12.6025H324.415L325.406 12.7441H325.831L326.397 12.6025H326.822L327.247 12.4609L327.813 12.3193L328.238 12.0361L328.663 11.8945L329.088 11.6113L329.654 11.3281L330.221 10.9033L330.645 10.6201L331.07 10.1953L331.495 9.62891L331.92 9.0625L332.345 8.6377L332.769 8.07129L332.486 9.91211L332.203 11.6113L331.778 13.3105L331.353 14.8682L330.787 16.4258L330.221 17.8418L329.512 19.2578L328.663 20.5322L327.813 21.8066L326.964 22.9395L325.972 24.0723L324.981 24.9219L323.848 25.7715L322.716 26.4795L321.441 27.1875L320.308 27.6123V125.317L321.441 124.751L322.432 124.326L323.565 123.477L324.556 122.627L325.689 121.919L326.822 120.928L327.955 119.937L329.088 118.945L330.221 117.671L331.495 116.538L332.628 115.122L333.902 113.706L335.177 112.29L336.451 110.732L337.725 109.175L339 107.476L337.867 109.883L336.734 112.29L335.601 114.556L334.327 116.821L332.911 118.945L331.637 121.211L330.221 123.193L328.804 125.176L327.247 127.017L325.689 128.857L324.132 130.557L322.574 132.256L320.875 133.813L319.034 135.371L317.335 136.646L315.494 137.92L313.653 139.194L311.812 140.469L309.83 141.46L307.847 142.451L305.865 143.442L303.883 144.434L301.617 145.142L299.493 145.85L297.369 146.416L295.103 146.982L292.838 147.407L290.572 147.69L288.165 148.115L285.758 148.257L283.35 148.398H277.828L274.713 148.115L271.739 147.69L268.907 147.266L266.075 146.558L263.385 145.85L260.694 144.858L258.004 143.726L255.455 142.451L253.048 141.035L250.64 139.619L248.233 137.92L245.968 136.221L243.844 134.238L241.72 132.114L239.737 129.849L237.755 127.3L235.914 125.034L234.215 122.485L232.657 119.795L231.099 117.104L229.825 114.414L228.692 111.44L227.559 108.467L226.71 105.352L225.86 102.236L225.152 99.1211L224.586 95.8643L224.161 92.4658L223.878 88.9258L223.736 85.3857L223.595 81.8457L223.736 78.7305L223.878 75.7568L224.019 72.7832L224.444 69.8096L224.869 66.8359L225.577 63.8623L226.143 61.0303L226.993 58.1982L227.843 55.3662L228.975 52.5342L230.108 49.7021L231.383 47.0117L232.657 44.3213L234.073 41.6309L235.631 39.082L237.188 36.3916L239.029 33.8428L240.728 31.4355L242.711 28.8867L244.693 26.6211L246.676 24.3555L248.941 22.0898L251.065 20.1074L253.331 17.9834L255.738 16.1426L258.145 14.1602L260.553 12.4609L263.243 10.7617L265.792 9.0625L268.482 7.50488L271.314 5.94727L274.288 4.67285L272.447 6.37207L270.748 7.92969L269.049 9.62891L267.491 11.1865L265.933 13.0273L264.376 14.7266L262.818 16.5674L261.544 18.2666L260.128 20.1074L258.995 21.8066L257.721 23.7891L256.588 25.7715L255.455 27.6123L254.322 29.4531L253.472 31.4355L252.623 33.2764L250.782 37.3828L249.508 41.6309L248.233 45.8789L247.242 50.2686L246.392 54.9414L245.968 59.6143L245.543 64.2871L245.401 69.1016L245.543 72.9248V76.4648L245.968 79.8633L246.251 83.2617L246.676 86.377L247.384 89.4922L248.092 92.4658L248.941 95.4395L249.649 98.2715L250.782 100.82L251.915 103.511L253.048 105.776L254.322 108.184L255.738 110.308L257.437 112.432L258.995 114.414L260.694 116.255L262.535 117.954L264.517 119.512L266.641 121.069L268.765 122.485L271.031 123.76L273.438 124.751L275.987 125.884L278.394 126.733L281.085 127.583L283.917 128.291L286.749 128.716L289.722 129.141L292.838 129.565H295.953L299.21 129.707H300.343L301.617 129.565H303.883L305.157 129.424L306.148 129.282L307.281 129.141L308.272 128.857L309.405 128.716L310.538 128.433L311.671 128.149L312.662 127.866L313.936 127.441L314.928 127.158L316.202 126.592L317.193 126.309V28.1787H315.494L315.069 28.3203H314.644L313.37 28.1787L312.096 28.0371L310.821 27.8955L309.688 27.6123L308.555 27.0459L307.423 26.4795L306.431 25.9131L305.44 25.2051L304.449 24.3555L303.458 23.3643L302.608 22.373L301.9 21.2402L301.192 19.9658L300.484 18.6914L299.918 17.1338L299.21 15.7178L295.387 17.9834V84.3945L295.245 87.793L294.962 91.0498L294.537 94.0234L293.971 96.8555L293.262 99.4043L292.271 101.812L291.138 103.936L289.722 105.776L289.014 106.626L288.306 107.476L287.457 108.325L286.607 109.316L285.616 110.024L284.483 110.732L283.492 111.582L282.359 112.29L281.085 112.856L279.952 113.564L278.678 114.131L277.403 114.697L275.846 115.264L274.288 115.83L272.872 116.255L271.173 116.821H271.314ZM368.81 12.6025L369.659 11.1865L371.217 9.4873L372.775 7.64648L374.615 6.08887L375.465 5.38086L376.315 4.67285L377.306 4.10645L378.155 3.39844L379.288 2.83203L380.138 2.40723L381.129 1.98242L382.262 1.55762L383.253 1.13281L384.244 0.849609L385.236 0.566406L386.368 0.283203L387.36 0.141602L388.634 0H393.307L394.015 0.141602H394.864L395.714 0.283203H396.422L397.272 0.424805L398.121 0.566406L399.254 0.708008L400.104 0.849609L401.095 0.991211L402.228 1.13281L403.219 1.41602L404.352 1.55762L405.485 1.69922L406.476 1.98242H407.609L408.6 2.26562H409.449L410.441 2.40723L411.432 2.54883L412.281 2.69043L413.131 2.83203H414.689L415.538 2.97363H421.061L421.769 2.83203H423.185L423.751 2.69043L424.318 2.54883L424.884 2.40723H425.734L426.158 2.26562L427.008 1.98242L427.574 1.84082L428.282 1.69922L428.849 1.41602L427.716 3.82324L426.442 5.94727L425.167 8.07129L423.751 9.91211L422.335 11.6113L421.344 12.6025H368.81ZM436.354 12.6025L436.779 12.3193L437.77 11.4697L439.044 10.3369L440.319 9.4873L441.735 8.6377L443.009 7.64648L444.425 6.65527L446.124 5.80566L447.54 4.67285L449.239 3.82324L450.939 2.83203L450.089 3.68164L449.381 4.67285L448.531 5.66406L447.965 6.65527L447.399 7.64648L446.832 8.6377L446.266 9.62891L445.841 10.6201L445.275 12.6025H436.354ZM421.344 12.6025L420.919 13.1689L419.362 14.585L417.804 15.7178L417.096 16.2842L416.246 16.709L415.538 17.1338L414.689 17.7002L413.839 17.9834L412.848 18.4082L411.998 18.6914L411.149 19.1162L410.157 19.3994L409.308 19.6826H408.175L407.184 19.9658L406.334 20.1074H401.095L399.679 19.9658L398.404 19.8242L396.705 19.6826L395.006 19.3994L393.165 19.1162L391.324 18.6914L390.192 18.5498L389.2 18.2666L388.209 18.125L387.36 17.9834L386.51 17.8418L385.66 17.7002L384.669 17.5586L383.82 17.417H382.404L381.554 17.2754L380.987 17.1338H376.881L376.031 17.2754L375.323 17.417L374.474 17.7002L373.624 17.8418L372.775 18.125L371.925 18.4082L370.934 18.833L370.084 19.1162L369.235 19.6826L368.102 20.1074L367.252 20.5322L366.261 21.0986L365.27 21.8066L364.279 22.373H364.137L364.987 19.9658L365.978 17.5586L367.111 15.293L368.385 13.1689L368.81 12.6025H421.344ZM444.283 110.449L444.142 112.573L443.859 114.556L443.575 116.821L443.151 118.662L442.584 120.645L441.876 122.485L441.168 124.185L440.319 125.884L439.327 127.3L438.195 128.999L437.062 130.415L435.929 131.831L434.654 133.105L433.097 134.521L431.539 135.654L429.982 136.787L428.141 137.778L426.3 138.911L424.459 139.761L422.335 140.61L420.211 141.46L417.945 142.026L415.68 142.734L413.273 143.301L410.724 143.726L408.175 144.15L405.485 144.434L402.794 144.717L399.679 144.858L396.847 145H391.608L390.475 144.858H389.484L388.351 144.575H387.36L386.227 144.292L385.094 144.15L383.961 143.726L382.97 143.584L381.837 143.159L380.704 142.876L379.571 142.451L378.58 142.026L377.306 141.602L376.315 141.035L375.182 140.61L374.049 140.186L373.199 139.761L372.208 139.478L371.217 139.194L370.367 138.77L369.518 138.486L368.81 138.203L367.96 137.92L367.252 137.778L366.544 137.495H365.978L365.27 137.354L364.845 137.212H362.862L361.73 137.354L360.738 137.495L359.606 137.637L358.473 137.92L357.34 138.345L356.066 138.628L355.074 139.053L353.8 139.619L352.526 140.186L351.534 140.752L350.26 141.46L348.986 142.168L347.853 143.018L346.72 143.867L345.587 144.717H345.445L345.87 142.31L346.437 140.044L347.286 137.778L348.278 135.654L349.41 133.53L350.826 131.406L352.526 129.424L354.225 127.583L355.216 126.592L356.207 125.884L357.198 125.034L358.19 124.326L359.181 123.618L360.172 122.91L361.305 122.485L362.154 122.061L363.146 121.494L364.279 121.211L365.27 120.786L366.261 120.503L367.394 120.361L368.385 120.22L369.376 120.078H371.5L372.633 120.22L373.624 120.361L374.899 120.786L376.031 121.069L377.164 121.494L378.297 122.061L379.43 122.627L380.704 123.335L381.837 124.185L383.112 125.034L384.244 126.025L385.519 126.875L386.793 128.008L387.926 129.282L389.342 130.415L389.908 130.981L390.475 131.548L390.9 132.114L391.324 132.539L391.749 132.822L392.174 133.247L392.599 133.672L392.882 133.955L393.873 134.805L394.864 135.371L395.856 136.221L396.847 136.646L397.838 137.354L398.688 137.778L399.679 138.345L400.67 138.628L401.52 139.053L402.369 139.336L403.219 139.761L404.21 139.902L405.201 140.186H406.051L407.042 140.327H409.025L410.016 140.186H411.149L412.14 140.044L412.989 139.761L413.981 139.478L414.972 139.194L415.821 138.628L416.529 138.345L417.379 137.778L418.087 137.212L418.795 136.646L419.503 136.079L420.07 135.371L420.778 134.521L421.344 133.813L422.194 132.114L423.185 129.99L424.034 127.866L424.601 125.317L425.026 122.627L425.309 119.795L425.592 116.68L425.734 113.281V36.25L426.017 32.8516L426.442 29.7363L427.15 26.7627L427.858 24.2139L428.849 21.8066L429.982 19.6826L431.256 17.8418L431.964 16.9922L432.814 16.1426L433.663 15.1514L434.654 14.1602L435.646 13.3105L436.354 12.6025H445.275V12.8857L444.708 15.5762L444.425 18.833L444.283 22.6562V110.449ZM378.014 70.9424L378.297 69.3848L379.005 67.6855L379.571 66.4111L380.421 65.1367L381.412 63.8623L382.545 62.8711L383.678 61.8799L384.952 61.1719L386.368 60.3223L387.784 59.7559L389.342 59.6143L391.041 59.3311L392.882 59.1895H393.448L393.732 59.3311H395.289V52.5342L395.714 50.2686L396.139 48.0029L396.564 45.8789L397.272 43.8965L398.263 42.1973L399.254 40.3564L400.529 38.7988L401.095 38.0908L401.945 37.2412L402.794 36.3916L403.644 35.6836L404.635 34.834L405.626 33.9844L406.759 33.2764L407.892 32.4268L409.166 31.5771L410.582 30.5859L411.998 29.7363L413.414 28.8867L414.972 28.1787L416.529 27.3291L418.229 26.4795L420.07 25.6299L419.362 26.6211L418.795 27.6123L418.229 28.7451L417.804 29.8779L417.237 31.1523L416.813 32.4268L416.388 33.8428L416.105 35.4004L415.538 38.5156L415.113 42.0557L414.689 45.8789V88.2178L414.405 92.1826L413.839 95.7227L413.414 98.9795L412.565 101.812L411.715 104.502L410.441 106.768L409.166 108.75L408.458 109.6L407.609 110.449L406.759 111.299L405.909 112.007L405.06 112.715L403.785 113.564L402.794 114.131L401.661 114.697L400.387 115.405L399.112 115.83L397.696 116.396L396.28 116.963L394.864 117.388L393.307 117.812L391.749 118.096L390.05 118.521L390.9 117.812L391.466 117.104L392.174 116.255L392.882 115.405L393.448 114.414L393.873 113.281L394.298 112.29L394.581 111.299L395.289 108.75L395.714 105.635L395.856 101.812L395.997 97.4219V78.1641H395.714L395.289 78.0225H394.298L393.732 77.8809H391.324L390.05 78.0225L388.776 78.3057H387.784L386.935 78.7305L385.944 79.0137L385.094 79.4385L384.244 79.8633L383.678 80.4297L382.97 80.9961L382.404 81.5625L381.837 82.2705L381.412 83.1201L380.987 83.9697L380.704 84.8193L380.421 85.6689L379.996 85.2441L379.571 84.8193L379.288 84.2529L379.005 83.6865L378.722 83.2617L378.58 82.6953L378.155 82.2705V81.8457L377.731 80.5713L377.589 79.4385L377.306 77.8809V74.4824L377.589 72.6416V72.0752L378.014 70.9424ZM482.023 40.0732L482.589 39.2236L483.864 37.666L484.43 37.0996L485.28 36.5332L486.129 35.9668L486.979 35.2588L487.97 34.6924L488.82 34.126L489.953 33.7012L491.086 33.1348L492.218 32.5684L493.634 32.002L494.909 31.5771L496.325 31.1523L497.599 30.7275L499.157 30.3027L500.714 30.0195L502.272 29.7363L501.564 30.5859L500.998 31.5771L500.431 32.4268L499.865 33.2764L499.44 34.126L499.015 34.9756L498.732 35.8252L498.449 36.6748L497.882 38.5156L497.599 40.0732H482.023ZM511.335 90.0586L511.759 89.7754L512.609 89.3506L513.175 89.209L514.025 88.9258L514.733 88.6426L515.441 88.501L516.291 88.3594L516.999 88.0762H517.99L518.839 87.9346L519.689 87.793L520.822 87.6514H528.468L529.46 87.793L530.451 87.9346H531.3L532.15 88.0762L533 88.2178L533.849 88.501L534.699 88.6426L535.548 88.9258L536.256 89.0674L536.964 89.3506L537.814 89.6338L538.664 89.917L539.372 90.2002V54.9414L538.239 55.3662L537.389 55.791L536.398 56.0742L535.265 56.3574L534.416 56.6406L533.424 56.9238L532.575 57.207L531.584 57.3486L530.734 57.4902L529.884 57.6318H529.035L528.044 57.7734L527.194 57.915H521.955L520.963 57.7734L520.114 57.6318H518.556L517.707 57.3486L516.857 57.207H516.149L515.299 56.7822L514.45 56.6406L513.6 56.3574L512.892 56.2158L512.043 55.9326L511.335 55.6494V90.0586ZM539.372 35.8252L539.23 34.4092L539.088 33.1348L538.947 32.002L538.664 30.8691L538.239 29.8779L537.956 28.8867L537.389 28.3203L536.964 27.6123L536.115 27.0459L535.265 26.6211L534.274 26.1963L533 25.7715L531.584 25.6299L530.168 25.3467H528.327L526.486 25.2051H511.335V52.3926L512.043 52.6758L512.751 53.1006L513.459 53.2422L514.308 53.5254L515.158 53.8086L515.866 53.9502L516.715 54.0918L517.565 54.2334L518.415 54.375L519.264 54.5166L520.114 54.6582H521.105L522.096 54.7998H523.087L524.079 54.9414H526.061L527.194 54.7998L528.044 54.6582H529.035L530.026 54.5166L531.017 54.375L531.867 54.2334L532.575 54.0918L533.424 53.8086L534.274 53.667L535.124 53.2422L536.115 52.959L536.964 52.6758L537.814 52.251L538.522 51.8262L539.372 51.543V35.8252ZM508.219 25.2051H481.598L480.182 25.0635H478.908L477.492 24.9219L476.359 24.6387L475.085 24.4971L473.952 24.2139L472.961 23.9307L471.969 23.6475L470.837 23.2227L469.987 22.6562L469.137 22.2314L468.288 21.8066L467.58 21.3818L466.73 20.6738L466.305 20.1074L465.031 18.5498L464.04 16.9922L463.19 15.1514L462.482 13.0273L461.916 10.7617L461.349 8.35449L461.208 5.80566L461.066 2.83203L461.632 3.11523L462.199 3.25684L462.765 3.54004L463.19 3.82324L463.615 3.96484L464.181 4.10645L464.748 4.24805L465.314 4.38965L465.88 4.53125L466.447 4.67285H468.004L468.712 4.81445L469.562 4.95605H534.84L536.681 5.09766L538.239 5.23926L539.938 5.52246L541.354 5.80566L542.912 5.94727L544.186 6.37207L545.461 6.79688L546.735 7.22168L547.868 7.64648L548.859 8.21289L549.85 8.7793L550.841 9.3457L551.549 10.0537L552.399 10.7617L553.673 12.3193L554.806 14.1602L555.797 16.2842L556.505 18.6914L557.213 21.3818L557.638 24.0723L557.921 27.3291L558.063 115.405V118.096L558.346 120.361L558.629 122.344L559.054 124.185L559.337 125.034L559.479 125.742L559.904 126.592L560.329 127.3L560.754 128.291L561.037 129.141L561.462 129.849L562.028 130.698H560.754L560.329 130.557H559.479L558.913 130.415H556.789L555.797 130.557L554.523 130.698L553.532 130.84L552.399 130.981L551.266 131.123L550.133 131.406L549.001 131.689L547.868 131.973L546.593 132.256L545.602 132.681L544.469 133.105L543.195 133.53L542.062 133.955L540.929 134.38L539.655 134.946L538.664 135.654L537.389 136.221L536.115 136.787L534.982 137.495L533.849 138.345L532.575 138.911L531.442 139.761L530.168 140.61L529.035 141.46L527.76 142.451L526.628 143.301L525.495 144.292L524.079 145.283L522.946 146.274L521.813 147.407L520.539 148.398L519.689 147.974L518.698 147.549L517.848 146.982L516.715 146.699L515.866 146.274L514.875 145.85L514.025 145.425L513.034 145L511.901 144.717L511.051 144.434L510.06 144.15L509.069 143.726L508.078 143.442L506.945 143.301L505.954 142.876L504.962 142.734L503.971 142.451L502.98 142.168L501.847 141.885L500.856 141.743L499.865 141.602L498.732 141.46L497.599 141.318L496.75 141.035H495.758L494.626 140.894H493.634L492.502 140.752L491.51 140.61H485.28L484.43 140.752L483.581 140.894L482.731 141.035H481.173L480.465 141.318L479.616 141.46L478.766 141.602L478.058 141.743L477.209 141.885L476.359 142.168L475.651 142.31L474.943 142.593L474.235 142.876L473.385 143.018L472.536 143.301L471.686 143.726L470.978 144.009L470.129 144.292L469.421 144.575L468.429 145L467.721 145.425L466.872 145.85L466.164 146.133L465.314 146.558L464.464 146.982L463.615 147.407L462.765 147.832L463.615 146.558L464.323 145.142L465.031 143.867L466.022 142.451L466.73 141.318L467.863 140.044L468.854 138.911L469.845 137.637L470.978 136.504L472.111 135.371L473.385 134.38L474.66 133.53L475.934 132.397L477.209 131.548L478.625 130.557L480.041 129.707L481.598 128.857L483.014 128.149L484.572 127.3L486.271 126.592L487.97 126.025L489.528 125.459L491.227 124.893L493.068 124.326L494.767 123.76L496.608 123.335L498.449 123.052L500.29 122.769L502.272 122.485L504.254 122.202L506.095 122.061L508.219 121.919V25.2051ZM511.335 121.919H512.609L514.167 122.061L515.724 122.202L517.14 122.485L518.698 122.769L520.114 123.052L521.53 123.618L522.946 124.043L524.504 124.609L525.92 125.176L527.194 126.025L528.752 126.733L530.168 127.725L531.584 128.574L533.141 129.565L534.557 130.698L539.372 128.008V93.3154L538.664 92.8906L537.814 92.6074L537.106 92.4658L536.398 92.041L535.548 91.8994L534.699 91.6162L534.132 91.4746L533.424 91.333L532.575 91.1914H531.725L530.876 90.9082H529.884L529.035 90.7666H522.521L521.53 90.9082H520.539L519.547 91.1914H518.556L517.565 91.333L516.715 91.4746L515.866 91.6162L515.016 91.8994L514.308 92.041L513.459 92.4658L512.609 92.6074L511.901 92.8906L511.335 93.3154V121.919ZM493.21 111.724L491.935 113.281L491.369 114.131L490.519 114.98L489.67 115.547L488.82 116.255L487.97 117.104L486.837 117.812L485.705 118.521L484.572 119.229L483.439 119.937L482.165 120.645L480.749 121.353L479.333 122.061L477.775 122.627L476.359 123.335L474.66 124.043L472.961 124.751L473.102 124.468L473.81 123.618L474.518 122.627L475.085 121.777L475.509 120.645L476.076 119.653L476.501 118.521L476.925 117.388L477.209 116.255L477.775 113.706L478.483 107.476L478.625 103.652V84.5361H470.695L469.845 84.6777L469.137 84.8193L468.429 84.9609L468.004 85.3857L467.438 85.5273L466.872 85.9521L466.305 86.8018L465.739 87.9346L465.314 89.209V90.7666L464.748 90.2002L464.323 89.7754L463.898 89.209L463.615 88.501L463.19 87.9346L462.765 87.2266L462.482 86.6602L462.34 85.9521L461.916 84.5361L461.632 82.9785L461.349 81.4209V77.8809L461.632 75.7568L461.916 73.916L462.34 72.3584L462.624 70.9424L463.19 69.5264L463.898 68.5352L464.606 67.6855L465.456 66.8359L466.588 66.1279L467.721 65.5615L468.996 65.1367L470.695 64.7119L472.253 64.4287L474.093 64.1455H478.625V51.6846L478.908 49.1357L479.333 46.7285L479.899 44.6045L480.607 42.6221L481.457 40.7812L482.023 40.0732H497.599V40.7812L497.316 43.3301L497.174 46.1621V98.8379L496.891 101.387L496.466 103.794L495.9 105.918L495.192 108.042L494.342 110.024L493.21 111.724Z" fill="black"/>
</svg>
