<svg width="561" height="165" viewBox="0 0 561 165" fill="none" xmlns="http://www.w3.org/2000/svg">
<path d="M18.0176 4.74609H18.3252C18.5596 4.74609 18.7207 5.02441 18.8086 5.58105L18.3252 5.93262H18.0176C17.8418 5.93262 17.666 5.75684 17.4902 5.40527C17.666 4.96582 17.8418 4.74609 18.0176 4.74609ZM24.8291 5.40527H24.9609C25.1953 5.46387 25.3125 5.58105 25.3125 5.75684C25.3125 5.96191 25.1953 6.06445 24.9609 6.06445H24.8291C24.5947 6.06445 24.4775 5.96191 24.4775 5.75684C24.5068 5.52246 24.624 5.40527 24.8291 5.40527ZM43.6377 3.03223H44.6045C45.3955 3.99902 46.3037 4.6582 47.3291 5.00977C47.3291 6.06445 48.4131 6.72363 50.5811 6.9873C51.3721 7.86621 52.1338 8.30566 52.8662 8.30566L53.6572 7.82227H54.1406C54.668 8.29102 55.166 8.67188 55.6348 8.96484H55.7666C56.1182 8.64258 56.3965 8.48145 56.6016 8.48145C58.5352 8.48145 59.502 8.8623 59.502 9.62402C59.7363 9.62402 59.8535 9.68262 59.8535 9.7998L60.1611 9.62402H60.4688C62.7539 10.1807 64.7607 10.7959 66.4893 11.4697C66.4893 11.6162 66.6504 11.7773 66.9727 11.9531L67.7637 11.4697H68.2471C69.2432 12.3486 71.3086 13.0518 74.4434 13.5791C74.4434 13.7549 75.4102 14.0918 77.3438 14.5898L80.1123 15.9082C80.1123 15.6445 80.376 15.4834 80.9033 15.4248C81.665 15.9521 82.5293 16.2744 83.4961 16.3916C83.4961 16.9189 85.4443 17.5781 89.3408 18.3691C90.1611 19.1895 91.084 19.6875 92.1094 19.8633C92.2266 19.8633 92.3877 19.8047 92.5928 19.6875C93.6182 20.332 94.585 20.7715 95.4932 21.0059C96.8994 22.0313 98.1445 22.5879 99.2285 22.6758C99.3164 22.1191 99.4775 21.8408 99.7119 21.8408H100.063C100.386 21.8408 100.547 22.0605 100.547 22.5L100.371 23.335C103.623 24.9756 105.41 25.7959 105.732 25.7959C106.377 25.7959 107.08 26.2939 107.842 27.29C109.395 27.6709 110.522 28.4912 111.226 29.751C111.226 29.9854 111.826 30.4834 113.027 31.2451C113.789 32.124 115.078 33.0615 116.895 34.0576C116.895 34.5264 117.598 35.3027 119.004 36.3867C119.912 36.8262 121.099 37.9248 122.563 39.6826C123.589 40.0049 124.57 40.6055 125.508 41.4844C126.357 41.4844 126.782 42.1436 126.782 43.4619L127.617 43.2861C127.793 43.2861 128.013 44.0625 128.276 45.6152C130.327 47.2559 131.353 48.6328 131.353 49.7461C131.997 50.3613 132.583 51.2402 133.11 52.3828L134.912 53.5254V53.877L134.736 54.8438C134.736 55.4883 135.557 56.4258 137.197 57.6562C137.637 58.7695 138.12 59.3848 138.647 59.502L139.438 59.3262C139.731 59.3262 140.01 59.6045 140.273 60.1611C139.717 61.0693 139.438 61.6699 139.438 61.9629V62.2705C139.526 62.9443 139.688 63.2812 139.922 63.2812L141.064 63.1055C141.27 63.457 141.372 63.7354 141.372 63.9404C141.021 64.2627 140.757 64.4238 140.581 64.4238V64.7754C141.021 65.9473 141.24 66.9873 141.24 67.8955C141.24 68.1592 141.182 68.3789 141.064 68.5547C141.27 69.0234 141.372 69.3604 141.372 69.5654C141.284 70.8545 141.24 71.792 141.24 72.3779C141.328 73.3154 141.372 73.8574 141.372 74.0039C141.167 74.4141 141.064 74.8535 141.064 75.3223V75.498C141.064 76.0254 141.226 76.9629 141.548 78.3105C141.021 81.1523 140.757 83.0273 140.757 83.9355C141.841 84.0527 142.383 84.2725 142.383 84.5947V85.0781C142.148 85.5176 141.87 85.7373 141.548 85.7373C141.401 85.6201 141.138 85.5615 140.757 85.5615C140.757 85.6494 140.479 86.3086 139.922 87.5391C140.039 88.916 140.098 89.6338 140.098 89.6924C138.896 91.5381 138.296 93.0176 138.296 94.1309C138.179 94.1309 137.974 94.4678 137.681 95.1416L137.812 95.4492C137.402 97.8809 136.919 99.0967 136.362 99.0967C135.571 99.0967 135.029 99.9756 134.736 101.733L132.803 103.403C132.803 104.019 132.319 105 131.353 106.348C131.353 107.754 130.649 109.526 129.243 111.665C128.833 112.661 128.071 113.979 126.958 115.62C126.958 115.884 126.694 116.543 126.167 117.598C126.167 119.678 125.244 120.718 123.398 120.718C123.398 120.835 123.12 120.894 122.563 120.894C122.212 120.659 121.89 120.542 121.597 120.542C121.187 120.981 120.645 121.26 119.971 121.377C119.971 122.227 119.268 122.827 117.861 123.179C116.66 125.288 115.21 126.343 113.511 126.343C112.983 126.694 112.603 127.134 112.368 127.661C111.167 129.653 109.6 130.649 107.666 130.649C105.381 132.056 103.755 133.198 102.788 134.077C102.788 134.634 102.305 134.912 101.338 134.912C100.576 134.912 100.195 135.293 100.195 136.055C100.195 136.172 100.254 136.348 100.371 136.582C100.195 137.021 100.034 137.241 99.8877 137.241C99.7705 137.241 99.3311 137.124 98.5693 136.89H98.0859C97.4414 136.89 96.8994 137.446 96.46 138.56C94.9072 140.2 93.6768 141.021 92.7686 141.021C92.2998 141.899 91.9189 142.339 91.626 142.339L90.791 141.855H90.4834C90.0146 141.855 89.5312 142.295 89.0332 143.174H88.374L87.8906 142.822C87.0117 143.525 86.0303 143.921 84.9463 144.009C84.9463 144.595 84.1406 145.254 82.5293 145.986C81.8848 146.631 81.0791 146.953 80.1123 146.953L79.7607 146.821C78.8818 146.997 77.8125 147.876 76.5527 149.458C76.2891 149.458 75.6299 149.897 74.5752 150.776C74.4287 150.776 73.7842 151.538 72.6416 153.062C72.1729 153.267 71.6309 153.662 71.0156 154.248H70.708C70.4736 154.248 70.3564 154.131 70.3564 153.896V153.413L70.708 152.93V152.754C70.708 152.666 70.5469 152.505 70.2246 152.271C69.2285 153.12 68.4082 153.56 67.7637 153.589L66.6211 155.698C65.918 155.698 65.2295 156.255 64.5557 157.368C64.3213 157.485 64.1455 157.544 64.0283 157.544L63.0615 157.017L62.0947 157.192C61.8018 156.841 61.582 156.182 61.4355 155.215H61.1279C61.1279 155.654 60.9082 155.874 60.4688 155.874L59.8535 155.566C59.7363 155.566 58.916 156.226 57.3926 157.544L56.4258 157.192C56.25 157.192 55.9277 157.69 55.459 158.687L53.042 159.521L51.8994 159.346C51.8994 160.166 51.0791 160.605 49.4385 160.664C49.2041 161.426 48.6182 161.807 47.6807 161.807C46.7139 163.037 45.6885 163.652 44.6045 163.652H44.1211C43.5059 163.301 42.9053 163.125 42.3193 163.125L41.1768 163.301L40.0342 162.642L39.2432 162.817L38.4082 162.334H38.1006L37.4414 162.817H37.3096C36.8115 162.378 36.5332 162.158 36.4746 162.158C36.123 162.363 35.8008 162.466 35.5078 162.466C35.1562 162.466 34.8926 162.422 34.7168 162.334L33.7061 162.466C33.6182 162.466 33.1934 162.363 32.4316 162.158C31.7871 162.51 31.4648 162.729 31.4648 162.817L30.6299 162.642C29.1943 162.905 28.2861 163.184 27.9053 163.477C26.6748 163.154 25.9717 162.993 25.7959 162.993C25.7959 163.14 25.5176 163.403 24.9609 163.784H24.6533L23.6865 162.993C23.6865 163.198 23.5693 163.301 23.335 163.301H23.0273C22.9102 163.301 22.6904 162.861 22.3682 161.982H21.8848C21.7383 161.982 21.5771 162.144 21.4014 162.466V162.642C21.7236 162.642 21.8848 162.759 21.8848 162.993V163.301C21.8848 163.477 21.5039 163.755 20.7422 164.136H20.6104C19.7314 163.022 19.292 162.026 19.292 161.147C18.7354 161.147 17.9297 160.547 16.875 159.346C16.4355 159.346 16.2158 159.243 16.2158 159.038V158.379L16.5234 157.192C16.1133 157.017 15.9082 156.636 15.9082 156.05V155.874C15.9082 155.698 16.333 155.376 17.1826 154.907L16.6992 154.556H16.5234L16.04 154.907H15.7324C15.5859 154.907 15.4248 154.731 15.249 154.38C15.249 154.058 15.5713 153.896 16.2158 153.896V153.589C15.6006 153.589 15.1172 153.193 14.7656 152.402V151.919L15.0732 151.436V151.084C15.0732 150.85 14.5898 150.63 13.623 150.425L13.4473 150.117L14.1064 148.271V148.14C14.1064 148.022 14.0039 147.583 13.7988 146.821L14.2822 146.47H15.0732C15.3076 144.536 15.5273 143.218 15.7324 142.515C15.6152 141.021 15.5566 140.083 15.5566 139.702C16.1133 139.702 16.5967 139.102 17.0068 137.9C16.9189 137.695 16.875 137.476 16.875 137.241C16.875 136.978 17.0361 136.641 17.3584 136.23C17.2412 135.645 17.1826 135.205 17.1826 134.912C17.5049 134.15 17.7246 133.77 17.8418 133.77L17.666 133.418C18.0762 131.572 18.3545 130.649 18.501 130.649C19.292 130.649 19.7168 130.093 19.7754 128.979L21.2256 127.837L21.0938 127.002L22.3682 125.859L22.1924 124.365C22.8662 124.102 23.2031 123.882 23.2031 123.706C23.0859 123.091 23.0273 122.651 23.0273 122.388C23.5254 121.45 23.9062 120.674 24.1699 120.059L23.8184 119.399L24.8291 116.587V116.411C24.2725 116.353 23.9941 116.191 23.9941 115.928V115.62C24.1992 115.181 24.3604 114.961 24.4775 114.961L24.3018 114.126V113.95C24.3896 113.306 24.5654 112.983 24.8291 112.983H24.9609C25.0781 112.983 25.2979 113.203 25.6201 113.643C26.2646 113.643 26.8652 112.266 27.4219 109.512L27.5537 108.501C27.3486 108.472 27.1436 108.193 26.9385 107.666C27.4658 107.051 27.9492 106.069 28.3887 104.722C28.6816 104.722 29.0039 103.623 29.3555 101.426C29.4141 101.426 29.5166 101.25 29.6631 100.898L29.1797 98.6133C29.1797 98.0273 29.502 96.9287 30.1465 95.3174L30.0146 94.1309C30.1611 93.3398 30.3662 92.7393 30.6299 92.3291V92.0215C30.3076 91.6113 30.1465 91.2158 30.1465 90.835L30.6299 90V88.8574L29.8389 88.0225L30.498 87.2314V87.0557L29.8389 86.0449V85.9131C29.8389 84.7412 30.1611 83.9648 30.8057 83.584C31.0693 83.584 31.2305 82.4854 31.2891 80.2881C31.2012 80.2881 31.04 80.127 30.8057 79.8047L30.9814 78.9697L30.8057 77.959C31.0107 77.6074 31.1133 77.3438 31.1133 77.168C30.9668 77.168 30.7031 76.8896 30.3223 76.333V75.1465C31.4062 73.5938 31.9482 72.4951 31.9482 71.8506C31.9482 71.7627 31.8457 71.3232 31.6406 70.5322C31.6406 70.3564 31.7432 70.0781 31.9482 69.6973C31.5088 69.5508 31.1865 69.2871 30.9814 68.9062V68.0713C30.9814 67.9834 31.2451 67.7051 31.7725 67.2363V66.7529L31.1133 65.918V65.4346L31.6406 64.7754V64.292C31.084 63.7061 30.8057 63.252 30.8057 62.9297C31.5674 62.4316 31.9482 62.1094 31.9482 61.9629V61.7871C31.3916 61.3184 31.1133 60.2197 31.1133 58.4912C30.7031 58.2861 30.498 57.9639 30.498 57.5244L31.6406 54.3604C31.1426 53.7451 30.3223 52.9834 29.1797 52.0752C29.1797 51.0498 28.1543 50.1123 26.1035 49.2627H25.1367C25.1367 49.9072 24.8584 50.2295 24.3018 50.2295C23.833 49.9072 22.7637 49.4678 21.0938 48.9111C20.9473 48.9111 20.4053 48.9697 19.4678 49.0869C19.3799 49.0869 19.0576 49.0283 18.501 48.9111C18.0615 49.0283 17.6807 49.0869 17.3584 49.0869L16.6992 48.9111C15.9668 49.2334 15.3662 49.3945 14.8975 49.3945H14.7656C14.2676 49.3945 13.5645 49.0723 12.6562 48.4277C12.6562 48.3105 12.4951 48.252 12.1729 48.252C11.4111 48.8086 10.9717 49.0869 10.8545 49.0869C9.24316 48.8525 7.89551 48.5742 6.81152 48.252C5.84473 48.252 5.36133 47.8125 5.36133 46.9336V46.2744C5.36133 46.04 5.40527 45.8203 5.49316 45.6152C5.40527 45.4102 5.36133 45.249 5.36133 45.1318H4.52637C3.44238 44.2236 2.90039 43.7256 2.90039 43.6377V43.1543L3.38379 42.4951V42.3193C2.41699 41.1768 1.93359 40.2979 1.93359 39.6826L2.28516 38.54C1.8457 37.5732 1.62598 36.8555 1.62598 36.3867V36.0352L0.483398 36.2109C0.161133 35.7422 0 34.9658 0 33.8818C0.644531 33.8818 1.24512 32.4023 1.80176 29.4434C2.53418 29.4434 3.01758 28.623 3.25195 26.9824C3.45703 26.543 3.7207 26.3232 4.04297 26.3232L4.70215 26.6309C4.87793 26.0742 5.2002 25.7959 5.66895 25.7959V25.4883C5.72754 24.3164 6.37207 22.998 7.60254 21.5332L8.9209 20.6982C9.09668 20.8154 9.31641 20.874 9.58008 20.874L12.4805 17.5781L13.623 17.71C13.623 17.6221 13.6816 17.5781 13.7988 17.5781L13.623 16.7432C13.6523 16.5088 13.7549 16.3916 13.9307 16.3916H14.4141L14.8975 16.7432C15.3955 16.7432 15.9961 16.3037 16.6992 15.4248L17.666 15.5566C18.3984 14.9707 19.4238 14.4287 20.7422 13.9307C20.7422 13.5791 21.0205 13.2422 21.5771 12.9199C21.9287 13.1543 22.251 13.2715 22.5439 13.2715C23.042 13.2715 23.4229 13.1104 23.6865 12.7881L24.4775 12.9199H24.6533C25.1807 12.9199 25.8838 12.3779 26.7627 11.2939C27.1143 11.2939 27.8174 10.8545 28.8721 9.97559H29.0039C29.3555 10.1807 29.6338 10.2832 29.8389 10.2832C30.8936 10.0488 31.8164 9.44824 32.6074 8.48145C34.1602 7.69043 35.0244 7.08984 35.2002 6.67969C35.2002 6.50391 35.3613 6.32812 35.6836 6.15234L36.6504 6.32812L38.1006 4.1748C38.335 4.1748 38.9795 4.51172 40.0342 5.18555H40.3857C40.8838 5.18555 41.4258 4.80469 42.0117 4.04297C42.3926 4.04297 42.9346 3.70605 43.6377 3.03223ZM71.0156 39.1992C70.6641 38.9648 70.4004 38.8477 70.2246 38.8477C70.2246 38.9941 69.9463 39.2725 69.3896 39.6826H69.082C68.8477 39.6826 68.6279 39.624 68.4229 39.5068C67.6318 39.5068 66.665 40.0049 65.5225 41.001L65.6543 41.8359C65.5371 41.8359 65.0537 42.2754 64.2041 43.1543L64.3799 43.9893C63.6182 44.2822 63.2373 44.7656 63.2373 45.4395C62.5928 45.8789 62.2705 46.377 62.2705 46.9336L62.5781 47.7686C62.4902 48.9697 62.3291 49.6875 62.0947 49.9219V50.8887C62.0947 51.3867 62.4756 51.8848 63.2373 52.3828V52.8662C63.2373 53.2178 63.0176 53.7744 62.5781 54.5361C62.9297 56.7627 63.3105 58.0225 63.7207 58.3154V58.4912C63.7207 58.9307 63.3398 59.751 62.5781 60.9521V61.1279C62.9004 62.1826 63.0615 62.8418 63.0615 63.1055C62.2119 63.5449 61.626 64.2041 61.3037 65.083C59.8096 65.5225 58.7842 66.3574 58.2275 67.5879C58.2275 68.1738 57.7881 69.1113 56.9092 70.4004C56.9092 71.2793 56.5869 71.7188 55.9424 71.7188H55.7666V72.0264C56.3525 72.0264 56.8359 72.583 57.2168 73.6963C58.2129 73.6963 58.7109 73.8574 58.7109 74.1797V74.6631C58.3301 75.3369 57.832 75.6738 57.2168 75.6738V76.1572L57.5684 76.6406V77.2998L57.085 79.8047L57.2168 80.5957C56.8945 81.1523 56.7334 81.5918 56.7334 81.9141L56.9092 83.1006C56.8506 83.5693 56.3086 84.1113 55.2832 84.7266C55.1953 84.873 55.0928 85.6494 54.9756 87.0557C55.8252 87.0557 56.25 87.5977 56.25 88.6816L56.4258 90.3516V91.0107C56.9531 91.4502 57.2168 91.7285 57.2168 91.8457V92.9883C56.7773 93.75 55.5908 94.9072 53.6572 96.46C53.5693 97.251 53.5254 97.6904 53.5254 97.7783C54.6973 98.0713 55.2832 98.7305 55.2832 99.7559C54.7559 100.195 54.4922 100.474 54.4922 100.591C54.4922 101.47 55.2979 102.29 56.9092 103.052V103.228L56.7334 104.062L56.9092 105.205C56.9092 105.381 56.3232 105.981 55.1514 107.007V107.183C55.4736 107.593 55.6348 107.974 55.6348 108.325C55.6348 109.438 55.2539 109.995 54.4922 109.995C53.9355 108.999 53.6133 108.501 53.5254 108.501H53.1738C53.1738 108.618 52.6904 109.219 51.7236 110.303C51.7236 110.508 51.8262 110.845 52.0312 111.313C50.8301 112.837 50.1855 113.716 50.0977 113.95C50.2734 114.829 51.1377 115.269 52.6904 115.269C52.8662 116.382 53.3057 117.1 54.0088 117.422L54.1406 117.773L54.0088 118.564L54.624 119.751C54.5361 120.161 54.0527 121.143 53.1738 122.695V123.179C53.1738 123.325 53.6133 123.604 54.4922 124.014C54.8438 123.809 55.166 123.706 55.459 123.706H55.6348C56.3086 124.585 56.7334 125.024 56.9092 125.024C57.085 125.024 57.4072 124.907 57.876 124.673C58.3154 124.849 58.5352 125.024 58.5352 125.2C58.3301 125.962 58.2275 126.401 58.2275 126.519C58.2275 126.753 58.4912 126.914 59.0186 127.002C59.5166 126.709 60.4395 126.431 61.7871 126.167H62.4463C62.6514 126.167 62.8564 126.606 63.0615 127.485L63.4131 127.661C63.6182 127.632 63.9404 127.075 64.3799 125.991H64.6875L65.6543 126.826H66.0059C66.1523 126.826 66.3135 126.665 66.4893 126.343C66.3721 126.138 66.3135 125.977 66.3135 125.859L66.7969 125.508H67.2803C67.8955 125.508 68.6572 125.449 69.5654 125.332C69.7412 125.449 69.9609 125.508 70.2246 125.508L73.125 124.014L75.0586 124.189C75.4395 124.102 75.9814 123.662 76.6846 122.871C77.0654 122.871 77.3438 122.93 77.5195 123.047C78.3398 123.047 79.2041 122.607 80.1123 121.729C81.1377 121.348 82.1045 120.791 83.0127 120.059C83.9795 120.059 84.4629 119.619 84.4629 118.74C85.4004 118.447 86.3232 117.949 87.2314 117.246C88.6963 117.246 89.8828 116.646 90.791 115.444C91.6699 115.444 92.5342 114.844 93.3838 113.643C94.1748 113.262 95.4785 112.925 97.2949 112.632C97.2949 112.075 98.7012 110.977 101.514 109.336C101.514 108.867 102.217 108.311 103.623 107.666C104.678 106.084 106.025 104.707 107.666 103.535C108.105 102.656 108.75 102.056 109.6 101.733C109.6 101.47 109.98 100.811 110.742 99.7559C110.947 99.4043 111.05 99.082 111.05 98.7891L110.918 97.9541C111.68 97.6904 112.061 97.251 112.061 96.6357C112.061 96.3428 112.427 95.7861 113.159 94.9658V94.6582C113.159 94.541 113.115 94.1016 113.027 93.3398C113.379 91.9043 113.804 91.1865 114.302 91.1865C114.741 91.1865 114.961 90.8496 114.961 90.1758C114.434 90.1758 114.17 90.0146 114.17 89.6924V89.3408C115.02 88.6377 115.444 87.9785 115.444 87.3633V86.2207C115.444 85.957 115.884 85.7373 116.763 85.5615L116.895 85.2539V85.0781C116.572 84.6387 116.411 84.3018 116.411 84.0674L116.587 83.1006C115.62 82.7783 115.078 82.4414 114.961 82.0898V81.7822C115.312 81.7822 115.635 80.6836 115.928 78.4863C115.723 77.0508 115.342 76.333 114.785 76.333C114.639 76.333 114.434 76.1133 114.17 75.6738V75.3223C114.17 75 114.492 74.8389 115.137 74.8389V74.6631C113.936 73.5791 113.335 72.9785 113.335 72.8613L113.511 71.1914C113.071 71.0449 112.852 70.8838 112.852 70.708V70.0488C112.852 69.9316 112.91 69.873 113.027 69.873C112.91 69.375 112.31 68.877 111.226 68.3789C110.933 68.0273 110.713 67.1045 110.566 65.6104C110.303 65.376 110.039 65.2588 109.775 65.2588V64.7754H110.083V64.4238C109.292 63.6621 108.428 62.3438 107.49 60.4688L105.864 59.1504H105.381C105.381 59.8242 105.22 60.1611 104.897 60.1611L103.931 58.8428C103.198 58.8428 102.437 58.2275 101.646 56.9971C100.679 56.7041 100.195 56.3232 100.195 55.8545C100.195 55.7373 100.415 55.4004 100.854 54.8438C100.854 54.6387 100.752 54.5361 100.547 54.5361H100.195C99.8145 54.8584 99.4336 55.0195 99.0527 55.0195C97.002 54.4922 95.9766 53.7305 95.9766 52.7344C95.9766 52.5586 96.1377 52.3828 96.46 52.207L97.2949 52.3828V51.8994C97.2949 51.665 97.1777 51.5479 96.9434 51.5479H96.46C96.46 51.9873 96.2988 52.207 95.9766 52.207H95.4932C95.1709 52.207 94.8486 51.6064 94.5264 50.4053C94.6436 50.2588 94.7021 49.9805 94.7021 49.5703C94.3799 49.4531 94.2188 49.3506 94.2188 49.2627C93.7793 49.4092 93.5596 49.5703 93.5596 49.7461C93.999 49.9219 94.2188 50.083 94.2188 50.2295V50.7568C94.2188 50.9033 93.999 51.0645 93.5596 51.2402C93.1201 51.0645 92.9004 50.9033 92.9004 50.7568V50.2295L93.252 49.7461C93.2227 49.5996 92.9443 49.3799 92.417 49.0869L91.7578 49.5703H91.2744C91.04 49.5703 90.835 49.1309 90.6592 48.252C90.4834 48.252 90.2637 48.0322 90 47.5928C89.6484 47.8271 89.3262 47.9443 89.0332 47.9443H88.6816C88.418 47.9443 88.2568 47.7246 88.1982 47.2852C88.1982 47.1973 88.2568 46.8604 88.374 46.2744C88.374 45.4834 87.3486 44.9414 85.2979 44.6484C84.3311 43.8574 83.4668 43.4619 82.7051 43.4619C82.3535 43.6963 82.0312 43.8135 81.7383 43.8135C81.1523 43.8135 80.7129 43.5352 80.4199 42.9785V42.1436C79.0137 41.9385 78.3105 41.6602 78.3105 41.3086C78.3105 41.0156 78.0908 40.5322 77.6514 39.8584H76.377C76.2598 39.8584 75.8789 39.4629 75.2344 38.6719H75.0586V39.6826C75.0586 39.8291 74.8975 39.9902 74.5752 40.166H74.2676L71.9824 38.6719C71.5723 39.0234 71.25 39.1992 71.0156 39.1992ZM92.7686 45.6152V45.791H93.252V45.3076H93.0762C92.8711 45.3369 92.7686 45.4395 92.7686 45.6152ZM132.495 45.791C132.7 45.8203 132.803 45.9229 132.803 46.0986V46.2744C132.803 46.5088 132.7 46.626 132.495 46.626C132.261 46.626 132.144 46.5088 132.144 46.2744V46.0986C132.173 45.8936 132.29 45.791 132.495 45.791ZM136.67 49.3945H137.021C137.168 49.3945 137.329 49.5703 137.505 49.9219V50.2295C137.505 50.4053 137.344 50.5811 137.021 50.7568H136.67C136.523 50.7568 136.362 50.5811 136.187 50.2295V49.9219C136.187 49.7461 136.348 49.5703 136.67 49.3945ZM63.0615 49.9219H63.2373C63.4424 49.9512 63.5449 50.0537 63.5449 50.2295V50.7568C63.5449 50.9033 63.3838 51.0645 63.0615 51.2402C62.915 51.2402 62.7539 51.0791 62.5781 50.7568V50.4053C62.5781 50.2588 62.7393 50.0977 63.0615 49.9219ZM136.846 54.8438H137.021C137.168 54.8438 137.329 55.0195 137.505 55.3711V55.5029C137.505 55.7373 137.402 55.8545 137.197 55.8545H136.846C136.641 55.8545 136.538 55.7373 136.538 55.5029V55.1953C136.567 54.9609 136.67 54.8438 136.846 54.8438ZM29.8389 63.6328C30.0439 63.6621 30.1465 63.7646 30.1465 63.9404C30.1465 64.1748 30.0439 64.292 29.8389 64.292C29.6338 64.292 29.5312 64.1748 29.5312 63.9404C29.5605 63.7354 29.6631 63.6328 29.8389 63.6328ZM59.8535 66.4014H60.1611V66.5771H59.8535V66.4014ZM58.5352 71.3672H58.8428C59.0186 71.3672 59.1797 71.5283 59.3262 71.8506C59.1797 72.29 59.0186 72.5098 58.8428 72.5098H58.7109C58.5352 72.5098 58.374 72.3486 58.2275 72.0264V71.7188C58.2568 71.4844 58.3594 71.3672 58.5352 71.3672ZM62.4463 72.6855L62.5781 73.0371C62.5781 73.2422 62.4756 73.3447 62.2705 73.3447L62.0947 73.0371C62.124 72.8027 62.2412 72.6855 62.4463 72.6855ZM144.009 78.4863L144.141 78.7939L143.833 78.9697L143.657 78.6182L144.009 78.4863ZM57.7441 108.018H57.876C58.0518 108.018 58.2129 108.179 58.3594 108.501V108.853C58.3594 108.999 58.1982 109.16 57.876 109.336C57.4365 109.16 57.2168 108.999 57.2168 108.853V108.501C57.2168 108.354 57.3926 108.193 57.7441 108.018ZM56.6016 122.212H56.7334C56.9678 122.241 57.085 122.344 57.085 122.52V122.695C57.085 122.93 56.9678 123.047 56.7334 123.047H56.6016C56.3672 123.047 56.25 122.93 56.25 122.695V122.52C56.3086 122.314 56.4258 122.212 56.6016 122.212ZM21.4014 123.047C21.5479 123.047 21.709 123.208 21.8848 123.53V123.706C21.8848 123.911 21.7822 124.014 21.5771 124.014H21.4014C21.2549 124.014 21.0938 123.853 20.918 123.53C20.918 123.384 21.0791 123.223 21.4014 123.047ZM161.525 141.416V141.108C161.525 140.933 161.701 140.771 162.053 140.625L161.877 140.317V140.01C161.877 139.893 162.229 139.629 162.932 139.219C162.668 138.809 162.375 137.812 162.053 136.23C162.17 136.055 162.229 135.85 162.229 135.615V135.308C161.76 135.278 161.525 135.073 161.525 134.692C161.525 134.458 161.994 134.033 162.932 133.418C162.932 132.598 162.99 132.188 163.107 132.188C162.873 131.748 162.756 131.426 162.756 131.221L163.635 130.605L163.459 129.067C163.459 127.573 164.045 126.167 165.217 124.849C165.334 123.823 165.568 123.135 165.92 122.783C165.803 121.904 165.744 121.23 165.744 120.762C166.008 120.762 166.418 120.249 166.975 119.224C166.975 118.403 166.916 116.938 166.799 114.829C167.033 114.448 167.268 113.774 167.502 112.808C167.502 112.31 167.443 111.782 167.326 111.226C167.561 109.937 167.678 109.16 167.678 108.896C167.443 108.896 167.268 108.574 167.15 107.93C167.268 107.754 167.326 107.549 167.326 107.314C167.092 107.285 166.975 107.183 166.975 107.007V106.699C166.975 106.582 167.385 106.377 168.205 106.084L168.029 104.502C168.732 101.367 169.084 99.6973 169.084 99.4922C169.201 99.4922 169.26 99.3896 169.26 99.1846L169.084 97.7783L169.611 96.8555L169.436 95.9326C169.436 95.6982 169.846 95.0098 170.666 93.8672C170.9 93.1934 171.018 92.7246 171.018 92.4609V91.5381L171.369 91.0547C171.369 90.8203 171.311 90.6152 171.193 90.4395C171.516 89.9121 171.75 88.7695 171.896 87.0117C171.662 86.3672 171.545 85.9424 171.545 85.7373C171.545 85.6494 171.604 85.5029 171.721 85.2979C171.604 84.5654 171.545 83.9355 171.545 83.4082L171.721 82.002L171.018 80.9033C171.369 80.3174 171.604 79.8047 171.721 79.3652L171.193 78.5742V78.0908C171.545 77.6221 171.721 77.2559 171.721 76.9922C171.721 76.9043 171.486 76.1719 171.018 74.7949L171.369 74.3555C170.9 73.2422 170.666 72.3486 170.666 71.6748C171.018 71.5869 171.193 71.2793 171.193 70.752V70.5762C171.193 70.5176 170.9 70.2686 170.314 69.8291V69.6533C170.314 69.3311 170.549 69.1699 171.018 69.1699V68.7305C170.549 68.4082 170.314 68.1445 170.314 67.9395C170.549 67.2656 170.666 66.7969 170.666 66.5332V65.918C170.197 64.834 169.963 64.2041 169.963 64.0283H170.139L169.787 63.2373L169.963 62.4463C169.963 62.124 169.729 61.7139 169.26 61.2158V61.04C169.26 60.9814 169.67 60.7324 170.49 60.293C169.67 59.8828 169.26 59.6191 169.26 59.502L169.787 57.6123L169.611 56.9971C170.314 56.1768 170.959 54.9756 171.545 53.3936C171.076 53.3936 170.842 53.291 170.842 53.0859C171.545 52.6758 171.896 52.207 171.896 51.6797C172.951 51.2988 173.479 51.0352 173.479 50.8887V50.4492L172.951 49.79C173.684 47.6221 174.855 46.5381 176.467 46.5381L177.346 45.8789C176.877 45.7324 176.643 45.5859 176.643 45.4395C176.643 45.2637 176.877 45.0439 177.346 44.7803H177.521C177.785 44.7803 178.02 44.8389 178.225 44.9561C178.693 44.9561 179.104 44.3262 179.455 43.0664C180.422 43.0664 181.359 42.5977 182.268 41.6602C185.08 40.6348 187.014 40.1221 188.068 40.1221C188.801 40.6494 189.387 40.9131 189.826 40.9131L190.881 40.7373C191.613 42.3779 192.844 43.418 194.572 43.8574C195.568 44.5898 196.213 44.9561 196.506 44.9561V45.1318L196.154 45.5713V46.1865C196.916 46.9189 197.736 47.2852 198.615 47.2852L198.791 47.5928V47.7686C198.791 48.0908 198.439 48.252 197.736 48.252C197.736 48.3105 198.029 48.5742 198.615 49.043L198.439 49.79C199.26 50.2295 199.67 50.4932 199.67 50.5811C199.553 50.7568 199.494 50.9619 199.494 51.1963C200.197 51.46 200.549 52.0898 200.549 53.0859L200.9 53.877C200.9 54.0527 200.783 54.624 200.549 55.5908C200.666 55.5908 201.076 55.957 201.779 56.6895L201.076 57.7881C201.662 58.2861 201.955 58.8574 201.955 59.502C201.516 59.7656 201.164 60.3369 200.9 61.2158C200.783 61.2158 200.373 61.8896 199.67 63.2373L199.846 64.0283L199.67 64.8193L199.846 65.7422C198.791 66.0938 198.264 66.665 198.264 67.4561C199.201 67.8662 199.67 68.1299 199.67 68.2471L199.494 68.5547L198.615 68.4229H198.088C197.854 68.4229 197.736 68.5693 197.736 68.8623C197.854 69.0674 197.912 69.2285 197.912 69.3457C197.326 69.3457 196.916 70.2246 196.682 71.9824C195.217 72.7734 193.928 73.667 192.814 74.6631V75.7617C192.814 75.8496 192.697 76.2598 192.463 76.9922V78.2666L191.936 78.8818V79.4971C191.936 79.9365 191.877 80.5078 191.76 81.2109C191.994 81.5918 192.111 82.0166 192.111 82.4854C192.111 82.749 192.053 83.1592 191.936 83.7158L192.111 84.6387L191.584 85.4297V86.2207C192.17 86.7188 192.463 87.4951 192.463 88.5498C192.229 88.5498 191.994 89.4873 191.76 91.3623C192.258 92.0068 192.551 92.3291 192.639 92.3291C192.873 92.3291 192.99 92.4316 192.99 92.6367C192.053 93.0762 191.584 93.3838 191.584 93.5596C191.73 93.5596 192.023 93.8818 192.463 94.5264V95.4492C192.229 95.7129 192.111 95.918 192.111 96.0645L192.287 97.4707C191.818 98.4082 191.525 99.4043 191.408 100.459C190.588 100.459 190.178 101.074 190.178 102.305V102.48L190.354 103.579C189.416 103.931 188.947 104.663 188.947 105.776C188.947 106.802 189.24 107.578 189.826 108.105L190.178 107.93H190.354C190.529 107.93 190.705 108.091 190.881 108.413C190.881 108.56 190.412 108.765 189.475 109.028V109.512C189.914 109.512 190.324 109.878 190.705 110.61C189.943 110.874 189.533 111.138 189.475 111.401C189.475 111.636 190.354 112.31 192.111 113.423L192.639 115.005V115.444C191.936 116.06 191.584 116.689 191.584 117.334C192.053 117.539 192.287 117.803 192.287 118.125C191.35 119.238 190.881 119.854 190.881 119.971C190.881 120.732 191.115 121.157 191.584 121.245C191.613 121.04 191.73 120.938 191.936 120.938C192.17 120.938 192.287 121.04 192.287 121.245C192.111 121.245 191.877 121.45 191.584 121.86V122.036L191.76 122.344L192.639 122.168H192.99C193.166 122.168 193.4 122.373 193.693 122.783C193.693 122.93 193.518 123.091 193.166 123.267C192.961 123.149 192.727 123.091 192.463 123.091C192.346 123.442 192.287 123.867 192.287 124.365C192.873 124.453 193.166 124.614 193.166 124.849V125.156C192.346 125.801 191.936 126.27 191.936 126.562C192.639 126.797 192.99 127.061 192.99 127.354C192.756 127.676 192.639 127.983 192.639 128.276C192.727 128.804 192.902 129.067 193.166 129.067C193.166 128.921 193.459 128.657 194.045 128.276H194.396C194.572 128.276 194.807 128.481 195.1 128.892C195.1 129.448 194.807 129.873 194.221 130.166H194.045C193.957 130.166 193.664 129.902 193.166 129.375C193.166 129.463 193.107 129.507 192.99 129.507C193.166 130.356 193.342 130.781 193.518 130.781L194.748 130.605L194.924 130.913V131.88C195.627 131.88 196.389 132.29 197.209 133.11V133.286C197.209 133.403 197.092 133.975 196.857 135C197.268 135 197.561 135.264 197.736 135.791L197.561 136.406C197.766 136.875 198.176 137.388 198.791 137.944V138.428L198.615 139.219L199.846 139.043L200.197 139.526V140.142L199.846 140.625V142.163C199.641 142.544 199.289 142.808 198.791 142.954H197.912C197.736 143.364 197.561 143.569 197.385 143.569H197.209L195.979 143.438V143.569L196.682 144.229C196.682 144.404 196.037 144.712 194.748 145.151C194.748 145.356 194.689 145.459 194.572 145.459C195.041 146.279 195.334 146.748 195.451 146.865V147.349C195.451 147.7 194.631 148.11 192.99 148.579C192.99 148.931 192.639 149.15 191.936 149.238C191.936 149.736 191.584 149.985 190.881 149.985V150.161C190.881 150.396 190.939 150.601 191.057 150.776C191.057 151.187 190.471 151.45 189.299 151.567C189.299 151.655 188.947 151.86 188.244 152.183C188.127 152.183 187.951 152.139 187.717 152.051C184.67 152.637 183.146 153.208 183.146 153.765C183.146 154.028 182.678 154.233 181.74 154.38H181.564C181.506 154.38 181.213 154.175 180.686 153.765C179.514 154.263 178.752 154.512 178.4 154.512L177.17 154.38C176.789 154.585 176.496 154.688 176.291 154.688C176.145 153.955 175.969 153.589 175.764 153.589H175.412C174.299 153.911 173.596 154.219 173.303 154.512H172.775L170.49 152.798C169.992 152.798 169.348 152.329 168.557 151.392C168.322 151.392 168.205 151.143 168.205 150.645H167.502C167.502 150.938 167.385 151.084 167.15 151.084C166.945 151.084 166.77 150.615 166.623 149.678C166.389 149.678 166.154 149.209 165.92 148.271C164.924 148.271 164.279 147.334 163.986 145.459C163.986 144.463 163.4 143.628 162.229 142.954C162.111 142.778 162.053 142.573 162.053 142.339H162.229C162.229 142.251 161.994 141.943 161.525 141.416ZM168.029 14.2822C168.029 14.0479 168.498 13.8721 169.436 13.7549C169.465 13.374 169.816 12.9639 170.49 12.5244L171.193 11.1621L170.842 10.6348V10.5029C170.842 10.3271 171.369 10.0342 172.424 9.62402C172.424 8.9209 172.717 8.4668 173.303 8.26172C173.303 7.38281 174.006 6.57715 175.412 5.84473L175.236 4.96582V4.6582C175.471 4.36523 175.588 4.13086 175.588 3.95508C175.471 3.7207 175.412 3.54492 175.412 3.42773L175.764 3.25195H175.939C176.115 3.25195 176.291 3.42773 176.467 3.7793C178.459 3.16406 179.455 2.41699 179.455 1.53809L179.807 1.3623H180.51L181.564 2.24121C182.766 2.24121 183.645 1.88965 184.201 1.18652L185.959 1.3623H186.662L187.365 0.878906L188.596 1.01074L188.771 0.703125C188.654 0.703125 188.596 0.644531 188.596 0.527344L188.947 0.351562L189.123 0.703125C189.006 0.908203 188.947 1.06934 188.947 1.18652L189.299 1.3623C189.68 1.12793 189.973 1.01074 190.178 1.01074C190.559 1.24512 190.852 1.3623 191.057 1.3623L192.287 1.18652L192.99 2.90039L193.342 3.07617L193.693 2.90039L196.506 4.13086L196.857 3.95508C197.18 5.09766 197.824 5.66895 198.791 5.66895L199.67 5.84473V6.37207L199.318 6.85547V7.20703C200.051 7.58789 200.637 8.15918 201.076 8.9209C202.131 9.8291 202.951 10.9863 203.537 12.3926C203.947 12.3926 204.182 12.8467 204.24 13.7549L204.592 13.9307C204.738 13.9307 205.383 13.8135 206.525 13.5791C206.701 14.3701 206.994 14.7656 207.404 14.7656C207.785 14.5312 208.137 14.4141 208.459 14.4141L209.865 15.4688V15.9961C209.865 16.2305 209.748 16.3477 209.514 16.3477C209.045 15.8789 208.811 15.5273 208.811 15.293H208.283V15.4688C208.693 15.7617 209.221 16.626 209.865 18.0615C208.928 18.8525 208.4 19.8779 208.283 21.1377C207.375 21.1377 206.613 21.6504 205.998 22.6758H205.822V23.0273C205.881 23.0273 206.115 23.0859 206.525 23.2031C206.555 22.9687 206.672 22.8516 206.877 22.8516H207.229V23.0273C206.643 23.4082 206.174 23.9795 205.822 24.7412H205.471V25.0928L205.646 25.9717C204.797 26.9385 204.094 27.5684 203.537 27.8613C203.537 28.8867 203.244 29.3994 202.658 29.3994L201.428 30.9375V31.2891C201.955 31.2891 202.365 31.5674 202.658 32.124C202.658 32.3877 202.014 32.6807 200.725 33.0029H199.846V33.8379C199.846 34.0723 199.729 34.1895 199.494 34.1895H199.318C199.201 34.1895 199.143 34.1309 199.143 34.0137C198.908 34.1309 198.732 34.1895 198.615 34.1895L197.736 33.7061C196.682 33.7061 196.154 34.2773 196.154 35.4199L195.803 35.5957H195.451C195.07 35.5957 194.66 35.4199 194.221 35.0684C193.986 35.5957 193.752 35.874 193.518 35.9033H193.166L192.287 35.7275C192.287 35.9033 192.111 36.0791 191.76 36.2549H191.584C191.32 36.2549 191.086 36.1963 190.881 36.0791C190.5 36.3135 190.148 36.4307 189.826 36.4307C188.479 35.9619 187.717 35.7275 187.541 35.7275H187.365C186.955 36.0791 186.076 36.3135 184.729 36.4307L182.795 35.9033C181.77 36.0205 181.125 36.0791 180.861 36.0791C180.861 35.8154 180.393 35.5957 179.455 35.4199C179.279 34.834 178.869 34.541 178.225 34.541C177.902 34.043 177.199 33.5303 176.115 33.0029L175.412 33.5303H175.236C174.855 33.5303 174.621 32.9443 174.533 31.7725H174.357C173.918 32.124 173.508 32.2998 173.127 32.2998L172.951 31.9482V31.6406L173.83 30.2344C173.244 29.3262 172.6 28.8721 171.896 28.8721C171.896 28.667 171.311 28.2129 170.139 27.5098C170.139 26.748 170.021 26.001 169.787 25.2686H168.908C168.732 25.2686 168.498 25.0342 168.205 24.5654C168.205 24.3311 168.381 24.2139 168.732 24.2139L169.611 24.7412H170.139C170.139 23.7158 169.611 23.2031 168.557 23.2031C168.557 23.1445 168.498 22.9102 168.381 22.5C168.615 22.3828 168.791 22.3242 168.908 22.3242V22.1484C168.439 21.5625 168.205 21.0498 168.205 20.6104L168.557 20.127L168.205 19.5996C168.293 18.75 168.469 18.1787 168.732 17.8857V17.71L168.557 16.8311C168.996 16.8311 169.348 16.1426 169.611 14.7656C169.377 14.7363 169.26 14.6191 169.26 14.4141L168.381 14.5898C168.146 14.5605 168.029 14.458 168.029 14.2822ZM168.908 20.4346H169.436L169.611 19.7754L169.26 19.5996L168.908 20.127V20.4346ZM186.311 0.175781L186.662 0C186.896 0 187.014 0.117187 187.014 0.351562C187.014 0.585938 186.896 0.703125 186.662 0.703125L186.311 0.175781ZM191.936 119.839V119.663C191.965 119.458 192.082 119.355 192.287 119.355H192.463C192.697 119.355 192.814 119.458 192.814 119.663V119.839C192.814 120.044 192.697 120.146 192.463 120.146H192.287C192.053 120.117 191.936 120.015 191.936 119.839ZM192.99 1.71387V1.3623C193.02 1.12793 193.137 1.01074 193.342 1.01074C193.576 1.01074 193.693 1.12793 193.693 1.3623C193.693 1.59668 193.576 1.71387 193.342 1.71387H192.99ZM192.287 116.851V116.719C192.316 116.514 192.434 116.411 192.639 116.411H192.814C193.049 116.411 193.166 116.514 193.166 116.719V116.851C193.166 117.056 193.049 117.158 192.814 117.158H192.639C192.404 117.129 192.287 117.026 192.287 116.851ZM197.385 70.4443V70.2686C197.414 70.0635 197.531 69.9609 197.736 69.9609C197.971 69.9609 198.088 70.0635 198.088 70.2686V70.4443C198.088 70.6494 197.971 70.752 197.736 70.752C197.502 70.7227 197.385 70.6201 197.385 70.4443ZM205.295 29.2236C205.324 28.9893 205.441 28.8721 205.646 28.8721H205.822C206.057 28.8721 206.174 28.9893 206.174 29.2236C206.174 29.458 206.057 29.5752 205.822 29.5752H205.646C205.412 29.5166 205.295 29.3994 205.295 29.2236ZM338.915 119.224C338.71 120.044 338.607 120.645 338.607 121.025C338.695 122.314 338.739 123.076 338.739 123.311L336.366 130.122C335.81 130.122 335.268 131.133 334.74 133.154C334.506 133.594 333.495 134.648 331.708 136.318C331.825 138.105 331.884 139.175 331.884 139.526C331.708 139.526 331.488 139.717 331.225 140.098L331.532 141.152L331.049 141.46H330.917C330.36 141.46 329.818 141.211 329.291 140.713L327.709 140.889C327.504 140.889 326.918 140.786 325.951 140.581L324.501 140.713C323.563 140.625 323.036 140.581 322.919 140.581C321.776 140.64 321.073 140.786 320.81 141.021H320.678C320.385 141.021 320.062 140.918 319.711 140.713C318.51 140.918 317.704 141.226 317.294 141.636C316.913 141.636 315.58 141.475 313.295 141.152H312.68C312.387 141.416 310.673 141.68 307.538 141.943C307.421 142.207 306.308 142.764 304.198 143.613C303.114 143.496 302.265 143.438 301.649 143.438C300.155 144.258 298.925 144.814 297.958 145.107C297.196 145.02 296.771 144.976 296.684 144.976L292.509 146.47C292.509 146.704 292.084 146.909 291.234 147.085C290.18 146.968 289.374 146.909 288.817 146.909C286.854 147.729 284.145 148.286 280.688 148.579C278.607 149.341 276.952 149.795 275.722 149.941C275.722 150.234 275.18 150.439 274.096 150.557C273.041 150.439 272.25 150.381 271.723 150.381C270.961 151.406 269.73 151.919 268.031 151.919C267.885 152.065 266.552 152.373 264.032 152.842C264.032 152.93 263.974 152.974 263.856 152.974H263.241C263.036 152.974 262.494 152.871 261.615 152.666C260.941 152.871 260.458 152.974 260.165 152.974C259.228 152.681 258.598 152.534 258.275 152.534H256.342L255.551 152.974C255.434 152.974 255.111 152.769 254.584 152.358H254.408C254.057 152.358 253.793 152.417 253.617 152.534C253.295 152.534 251.64 152.08 248.651 151.172C247.216 151.172 245.941 150.82 244.828 150.117C243.217 150.117 241.986 149.751 241.137 149.019C240.639 149.019 239.687 148.623 238.28 147.832C237.284 147.832 236.156 147.334 234.896 146.338C234.252 146.338 233.666 145.781 233.139 144.668C232.084 144.551 231.557 144.038 231.557 143.13C231.381 143.13 231.161 142.925 230.897 142.515V142.383C230.897 142.148 230.956 141.943 231.073 141.768L229.931 139.966V139.658C230.165 138.926 230.282 138.516 230.282 138.428C228.788 135.762 228.041 134.15 228.041 133.594V133.022C228.041 132.583 228.144 132.173 228.349 131.792L227.865 131.045V130.122C227.865 128.247 228.026 126.943 228.349 126.211L228.173 125.112C228.495 124.614 228.656 124.219 228.656 123.926C228.656 123.691 228.612 123.486 228.524 123.311C229.052 119.443 229.521 117.173 229.931 116.499C229.931 116.353 229.887 115.649 229.799 114.39C229.799 114.214 230.004 113.657 230.414 112.72L230.282 111.665C230.282 110.991 230.868 109.175 232.04 106.216V106.084C231.483 106.084 231.205 105.981 231.205 105.776V105.469C231.967 104.883 232.348 104.531 232.348 104.414C232.23 103.857 232.172 103.447 232.172 103.184C232.934 101.455 233.314 100.298 233.314 99.7119C233.314 99.3018 233.256 98.7451 233.139 98.042C233.666 95.1123 233.93 93.3545 233.93 92.7686C234.252 92.7686 234.633 91.5088 235.072 88.9893C235.307 88.9893 235.629 87.6709 236.039 85.0342C236.684 84.0967 237.006 83.4375 237.006 83.0566V81.6943C237.387 81.3721 237.855 80.2734 238.412 78.3984C238.822 78.1934 239.101 77.8857 239.247 77.4756C239.247 77.3877 239.188 77.0801 239.071 76.5527C239.071 76.2305 239.438 75.5713 240.17 74.5752C240.17 73.5205 241.078 71.9092 242.895 69.7412L242.763 68.9941V68.8623C243.026 68.335 243.451 68.0713 244.037 68.0713V67.8076L243.554 67.1924C243.788 67.1924 244.433 66.4893 245.487 65.083C245.78 64.9658 246.146 64.4092 246.586 63.4131C247.025 63.4131 247.289 63.0029 247.377 62.1826C247.289 61.6553 247.245 61.1572 247.245 60.6885C247.509 60.6885 248.036 59.9707 248.827 58.5352C249.091 58.5352 249.516 58.0371 250.102 57.041C251.713 55.2832 252.519 53.9795 252.519 53.1299C252.841 53.042 253.207 52.3828 253.617 51.1523C254.027 50.1563 254.511 49.3506 255.067 48.7354C255.507 46.4795 256.093 45.1172 256.825 44.6484C256.825 44.3555 257.514 43.7402 258.891 42.8027L259.066 42.2314C258.949 41.8213 258.891 41.4697 258.891 41.1768C260.707 39.5361 261.615 38.3203 261.615 37.5293C263.109 36.416 263.856 34.9951 263.856 33.2666C264.267 33.2666 264.691 32.666 265.131 31.4648C265.893 31.4648 266.273 30.7031 266.273 29.1797C266.684 28.6816 266.889 28.3887 266.889 28.3008C266.479 28.125 266.273 27.7734 266.273 27.2461C267.416 26.4258 268.002 25.8105 268.031 25.4004L267.855 24.8291C267.855 24.3018 268.559 23.54 269.965 22.5439V22.4121C269.965 22.2363 269.687 21.8701 269.13 21.3135C269.306 21.3135 269.892 21.0645 270.888 20.5664L270.756 19.8193V19.2041C271.049 18.7061 271.679 18.252 272.646 17.8418C273.349 16.4355 274.052 15.7324 274.755 15.7324C274.901 14.9121 276.073 13.6963 278.271 12.085C278.417 11.3818 278.578 11.0303 278.754 11.0303H280.512C280.512 10.4736 282.431 10.0195 286.269 9.66797C288.554 9.58008 289.989 9.43359 290.575 9.22852H290.751C291.278 9.55078 291.542 9.75586 291.542 9.84375L291.85 9.66797H292.509C293.358 10.7813 294.691 11.3379 296.508 11.3379C297.211 11.3379 297.855 11.748 298.441 12.5684C299.086 11.6602 299.511 11.2061 299.716 11.2061H300.023C300.199 11.2061 300.58 11.7041 301.166 12.7002C301.488 12.7002 301.649 12.8027 301.649 13.0078L301.474 13.7549C301.591 13.7549 301.649 13.8135 301.649 13.9307L301.957 13.7549C304.008 14.0186 305.443 14.4287 306.264 14.9854C306.264 15.3662 307.23 15.7617 309.164 16.1719C309.164 16.377 309.633 16.7871 310.57 17.4023C310.57 18.6035 311.01 19.2041 311.889 19.2041C312.445 19.2041 312.914 20.2148 313.295 22.2363C314.027 22.2363 314.569 22.8369 314.921 24.0381L316.02 25.2686V25.708L315.404 26.3232L315.536 27.3779L313.954 29.6631L314.13 30.542C313.485 31.6846 313.104 32.7979 312.987 33.8818C313.192 34.2334 313.295 34.541 313.295 34.8047V34.9365C313.295 35.2881 313.031 35.8008 312.504 36.4746C312.826 36.9727 312.987 37.3242 312.987 37.5293C312.987 38.4668 312.621 39.4189 311.889 40.3857C312.094 41.7627 312.196 42.627 312.196 42.9785C311.874 43.2715 311.493 43.8721 311.054 44.7803V45.2197L311.537 47.373C311.449 48.252 311.405 48.8086 311.405 49.043C311.493 49.2188 311.537 49.3652 311.537 49.4824C311.039 49.4824 310.614 50.2881 310.263 51.8994C310.468 52.2217 310.57 52.5293 310.57 52.8223C310.57 52.998 310.468 53.291 310.263 53.7012C310.468 54.1113 310.57 54.4189 310.57 54.624L310.438 55.6787C310.644 56.0303 310.805 56.5283 310.922 57.1729C310.922 57.3779 310.541 58.1396 309.779 59.458C309.779 59.5752 309.838 59.6338 309.955 59.6338L309.779 60.2051C309.896 62.1387 310.058 63.3984 310.263 63.9844L309.955 64.7754L310.131 65.8301L309.955 66.8848C310.277 67.4707 310.438 67.9688 310.438 68.3789C310.438 68.7305 310.277 69.1406 309.955 69.6094V71.8506C309.955 72.0264 309.735 72.583 309.296 73.5205C309.296 73.6377 309.516 73.9453 309.955 74.4434V75.8057L308.812 76.7285V77.4756C308.812 77.5342 308.974 78.0908 309.296 79.1455C308.563 79.5264 308.197 79.9805 308.197 80.5078C308.52 81.2402 308.681 82.0898 308.681 83.0566C308.446 84.1113 308.021 84.7266 307.406 84.9023C307.289 85.0781 307.23 85.2686 307.23 85.4736C307.23 85.5615 307.289 85.8691 307.406 86.3965C307.025 87.4512 306.586 88.2129 306.088 88.6816V89.8682L306.571 90.4834V90.791L304.198 93.6475L304.506 94.3945C304.477 94.7461 304.11 95.1562 303.407 95.625C302.47 96.6504 301.503 97.4121 300.507 97.9102C300.507 98.4961 299.599 99.4043 297.782 100.635C296.991 100.635 295.761 100.986 294.091 101.689C293.856 101.689 293.388 101.938 292.685 102.437C291.952 102.437 291.088 102.744 290.092 103.359H289.608C289.433 103.359 288.905 103.154 288.026 102.744L287.235 102.876L284.818 100.942C284.643 100.942 284.276 100.327 283.72 99.0967C283.28 99.0967 282.958 98.8916 282.753 98.4814C282.753 98.2764 282.812 98.0859 282.929 97.9102C282.929 97.6758 282.445 97.2217 281.479 96.5479C281.244 96.2256 281.127 95.9619 281.127 95.7568H280.995L280.512 96.0645H280.336C280.131 96.0645 280.028 95.9619 280.028 95.7568V95.625C280.028 95.4785 280.189 95.332 280.512 95.1855C279.545 93.5742 279.062 92.3584 279.062 91.5381C278.915 91.5381 278.754 91.3916 278.578 91.0986V90.4834C278.9 90.1611 279.062 89.9121 279.062 89.7363C277.89 88.2422 277.304 87.1729 277.304 86.5283C277.304 86.3818 277.685 85.6348 278.446 84.2871C278.183 83.2617 277.743 82.5 277.128 82.002V81.8701L277.304 80.9473C277.099 80.625 276.996 80.3174 276.996 80.0244C276.996 79.9365 277.04 79.8926 277.128 79.8926L276.688 78.9697L277.963 76.7285C277.729 76.2598 277.611 75.8057 277.611 75.3662C277.875 75.3662 278.036 75.1611 278.095 74.751C278.095 73.9893 277.729 73.2275 276.996 72.4658C276.996 72.1436 276.674 71.9385 276.029 71.8506C276.029 71.4697 275.927 71.2793 275.722 71.2793C275.722 71.8652 275.604 72.1582 275.37 72.1582H275.062L274.447 71.2793H273.612C273.612 72.1875 272.982 72.6416 271.723 72.6416C271.723 74.6631 270.551 76.4209 268.207 77.915C267.943 78.9404 267.665 79.4531 267.372 79.4531C266.845 79.4531 266.581 79.5557 266.581 79.7607L266.757 80.5078C266.757 80.7422 266.273 81.1963 265.307 81.8701C265.307 82.0459 265.409 82.5439 265.614 83.3643C264.677 83.3643 264.208 83.877 264.208 84.9023C263.798 85.8105 263.256 86.2646 262.582 86.2646L261.967 87.8906C261.498 87.8906 261.059 88.7109 260.648 90.3516C259.916 90.3516 259.55 90.542 259.55 90.9229C259.55 91.9482 259.169 92.4609 258.407 92.4609C257.968 92.4609 257.704 93.0615 257.616 94.2627C257.089 94.7607 256.825 95.1123 256.825 95.3174L257.001 96.3721C256.854 96.3721 256.576 96.6211 256.166 97.1191V98.7891C255.492 100.166 255.023 100.928 254.76 101.074C254.76 102.188 254.481 102.744 253.925 102.744C253.925 103.945 253.397 104.546 252.343 104.546C252.021 104.546 251.815 105 251.728 105.908C251.2 105.908 250.761 107.021 250.409 109.248V109.863C250.409 109.98 250.526 110.537 250.761 111.533V111.665C250.761 111.782 250.38 112.031 249.618 112.412L249.794 113.159C249.618 114.067 249.457 114.521 249.311 114.521C249.311 114.639 249.516 114.946 249.926 115.444V115.752C249.252 116.221 248.827 116.821 248.651 117.554C248.534 117.554 248.329 118.11 248.036 119.224L248.344 119.839C248.227 120.864 248.168 121.67 248.168 122.256C248.168 122.432 248.227 123.032 248.344 124.058C247.904 124.058 247.538 124.922 247.245 126.65C247.978 127.383 248.344 127.983 248.344 128.452C248.344 130.444 249.354 131.704 251.376 132.231C251.669 133.052 251.991 133.462 252.343 133.462L252.65 133.286L255.375 134.517C256.225 134.517 256.869 134.912 257.309 135.703L258.1 135.264H258.275L260.165 135.571C261.044 135.571 262.069 135.527 263.241 135.439C263.798 135.527 264.325 135.571 264.823 135.571C264.823 135.278 265.409 135.132 266.581 135.132H267.064C267.504 135.513 267.826 135.703 268.031 135.703C268.764 135 270.521 134.502 273.305 134.209L274.271 134.341C275.062 134.341 275.707 133.989 276.205 133.286H276.513L277.304 133.77C277.392 133.77 278.08 133.521 279.369 133.022C279.984 133.403 280.365 133.594 280.512 133.594C284.057 132.979 286.562 132.378 288.026 131.792L290.268 130.737C291.205 130.825 291.732 130.869 291.85 130.869C293.783 130.869 294.75 130.371 294.75 129.375C294.955 129.258 295.116 129.199 295.233 129.199L296.024 129.683C296.171 129.683 296.391 129.331 296.684 128.628L297.782 128.76H297.958C298.31 127.998 299.481 127.295 301.474 126.65C301.474 126.533 302.001 125.669 303.056 124.058C303.056 123.12 303.539 122.563 304.506 122.388C304.506 121.714 305.575 120.557 307.714 118.916C307.714 118.096 308.358 117.539 309.647 117.246H309.779L311.405 117.729C311.552 116.792 312.079 116.03 312.987 115.444C313.134 115.444 313.822 114.946 315.053 113.95C315.258 113.833 315.419 113.774 315.536 113.774V113.95C315.712 113.95 315.99 113.643 316.371 113.027C316.752 113.232 317.221 113.335 317.777 113.335L319.535 111.973C319.447 111.768 319.403 111.621 319.403 111.533L319.711 111.357L320.194 111.665L322.436 111.533C322.992 111.826 323.637 111.973 324.369 111.973C324.604 111.973 324.911 111.826 325.292 111.533H325.468C325.585 111.533 325.849 111.826 326.259 112.412L329.291 112.104C330.17 112.837 331.562 113.291 333.466 113.467C334.315 113.965 334.74 114.272 334.74 114.39C335.092 114.185 335.414 114.082 335.707 114.082H335.883L338.607 115.884V116.191C338.373 117.188 338.256 117.744 338.256 117.861C338.666 118.33 338.886 118.784 338.915 119.224ZM311.054 116.367C311.024 116.572 310.922 116.675 310.746 116.675H309.472C309.325 116.675 309.164 116.514 308.988 116.191V116.06C308.988 115.913 309.149 115.767 309.472 115.62C310.526 115.796 311.054 116.045 311.054 116.367ZM288.026 108.018C287.88 108.428 287.719 108.633 287.543 108.633H286.576C286.371 108.633 286.269 108.53 286.269 108.325V108.018C286.444 107.637 286.811 107.446 287.367 107.446H287.543C287.807 107.446 287.968 107.637 288.026 108.018ZM356.959 141.416V141.108C356.959 140.933 357.135 140.771 357.486 140.625L357.311 140.317V140.01C357.311 139.893 357.662 139.629 358.365 139.219C358.102 138.809 357.809 137.812 357.486 136.23C357.604 136.055 357.662 135.85 357.662 135.615V135.308C357.193 135.278 356.959 135.073 356.959 134.692C356.959 134.458 357.428 134.033 358.365 133.418C358.365 132.598 358.424 132.188 358.541 132.188C358.307 131.748 358.189 131.426 358.189 131.221L359.068 130.605L358.893 129.067C358.893 127.573 359.479 126.167 360.65 124.849C360.768 123.823 361.002 123.135 361.354 122.783C361.236 121.904 361.178 121.23 361.178 120.762C361.441 120.762 361.852 120.249 362.408 119.224C362.408 118.403 362.35 116.938 362.232 114.829C362.467 114.448 362.701 113.774 362.936 112.808C362.936 112.31 362.877 111.782 362.76 111.226C362.994 109.937 363.111 109.16 363.111 108.896C362.877 108.896 362.701 108.574 362.584 107.93C362.701 107.754 362.76 107.549 362.76 107.314C362.525 107.285 362.408 107.183 362.408 107.007V106.699C362.408 106.582 362.818 106.377 363.639 106.084L363.463 104.502C364.166 101.367 364.518 99.6973 364.518 99.4922C364.635 99.4922 364.693 99.3896 364.693 99.1846L364.518 97.7783L365.045 96.8555L364.869 95.9326C364.869 95.6982 365.279 95.0098 366.1 93.8672C366.334 93.1934 366.451 92.7246 366.451 92.4609V91.5381L366.803 91.0547C366.803 90.8203 366.744 90.6152 366.627 90.4395C366.949 89.9121 367.184 88.7695 367.33 87.0117C367.096 86.3672 366.979 85.9424 366.979 85.7373C366.979 85.6494 367.037 85.5029 367.154 85.2979C367.037 84.5654 366.979 83.9355 366.979 83.4082L367.154 82.002L366.451 80.9033C366.803 80.3174 367.037 79.8047 367.154 79.3652L366.627 78.5742V78.0908C366.979 77.6221 367.154 77.2559 367.154 76.9922C367.154 76.9043 366.92 76.1719 366.451 74.7949L366.803 74.3555C366.334 73.2422 366.1 72.3486 366.1 71.6748C366.451 71.5869 366.627 71.2793 366.627 70.752V70.5762C366.627 70.5176 366.334 70.2686 365.748 69.8291V69.6533C365.748 69.3311 365.982 69.1699 366.451 69.1699V68.7305C365.982 68.4082 365.748 68.1445 365.748 67.9395C365.982 67.2656 366.1 66.7969 366.1 66.5332V65.918C365.631 64.834 365.396 64.2041 365.396 64.0283H365.572L365.221 63.2373L365.396 62.4463C365.396 62.124 365.162 61.7139 364.693 61.2158V61.04C364.693 60.9814 365.104 60.7324 365.924 60.293C365.104 59.8828 364.693 59.6191 364.693 59.502L365.221 57.6123L365.045 56.9971C365.748 56.1768 366.393 54.9756 366.979 53.3936C366.51 53.3936 366.275 53.291 366.275 53.0859C366.979 52.6758 367.33 52.207 367.33 51.6797C368.385 51.2988 368.912 51.0352 368.912 50.8887V50.4492L368.385 49.79C369.117 47.6221 370.289 46.5381 371.9 46.5381L372.779 45.8789C372.311 45.7324 372.076 45.5859 372.076 45.4395C372.076 45.2637 372.311 45.0439 372.779 44.7803H372.955C373.219 44.7803 373.453 44.8389 373.658 44.9561C374.127 44.9561 374.537 44.3262 374.889 43.0664C375.855 43.0664 376.793 42.5977 377.701 41.6602C380.514 40.6348 382.447 40.1221 383.502 40.1221C384.234 40.6494 384.82 40.9131 385.26 40.9131L386.314 40.7373C387.047 42.3779 388.277 43.418 390.006 43.8574C391.002 44.5898 391.646 44.9561 391.939 44.9561V45.1318L391.588 45.5713V46.1865C392.35 46.9189 393.17 47.2852 394.049 47.2852L394.225 47.5928V47.7686C394.225 48.0908 393.873 48.252 393.17 48.252C393.17 48.3105 393.463 48.5742 394.049 49.043L393.873 49.79C394.693 50.2295 395.104 50.4932 395.104 50.5811C394.986 50.7568 394.928 50.9619 394.928 51.1963C395.631 51.46 395.982 52.0898 395.982 53.0859L396.334 53.877C396.334 54.0527 396.217 54.624 395.982 55.5908C396.1 55.5908 396.51 55.957 397.213 56.6895L396.51 57.7881C397.096 58.2861 397.389 58.8574 397.389 59.502C396.949 59.7656 396.598 60.3369 396.334 61.2158C396.217 61.2158 395.807 61.8896 395.104 63.2373L395.279 64.0283L395.104 64.8193L395.279 65.7422C394.225 66.0938 393.697 66.665 393.697 67.4561C394.635 67.8662 395.104 68.1299 395.104 68.2471L394.928 68.5547L394.049 68.4229H393.521C393.287 68.4229 393.17 68.5693 393.17 68.8623C393.287 69.0674 393.346 69.2285 393.346 69.3457C392.76 69.3457 392.35 70.2246 392.115 71.9824C390.65 72.7734 389.361 73.667 388.248 74.6631V75.7617C388.248 75.8496 388.131 76.2598 387.896 76.9922V78.2666L387.369 78.8818V79.4971C387.369 79.9365 387.311 80.5078 387.193 81.2109C387.428 81.5918 387.545 82.0166 387.545 82.4854C387.545 82.749 387.486 83.1592 387.369 83.7158L387.545 84.6387L387.018 85.4297V86.2207C387.604 86.7188 387.896 87.4951 387.896 88.5498C387.662 88.5498 387.428 89.4873 387.193 91.3623C387.691 92.0068 387.984 92.3291 388.072 92.3291C388.307 92.3291 388.424 92.4316 388.424 92.6367C387.486 93.0762 387.018 93.3838 387.018 93.5596C387.164 93.5596 387.457 93.8818 387.896 94.5264V95.4492C387.662 95.7129 387.545 95.918 387.545 96.0645L387.721 97.4707C387.252 98.4082 386.959 99.4043 386.842 100.459C386.021 100.459 385.611 101.074 385.611 102.305V102.48L385.787 103.579C384.85 103.931 384.381 104.663 384.381 105.776C384.381 106.802 384.674 107.578 385.26 108.105L385.611 107.93H385.787C385.963 107.93 386.139 108.091 386.314 108.413C386.314 108.56 385.846 108.765 384.908 109.028V109.512C385.348 109.512 385.758 109.878 386.139 110.61C385.377 110.874 384.967 111.138 384.908 111.401C384.908 111.636 385.787 112.31 387.545 113.423L388.072 115.005V115.444C387.369 116.06 387.018 116.689 387.018 117.334C387.486 117.539 387.721 117.803 387.721 118.125C386.783 119.238 386.314 119.854 386.314 119.971C386.314 120.732 386.549 121.157 387.018 121.245C387.047 121.04 387.164 120.938 387.369 120.938C387.604 120.938 387.721 121.04 387.721 121.245C387.545 121.245 387.311 121.45 387.018 121.86V122.036L387.193 122.344L388.072 122.168H388.424C388.6 122.168 388.834 122.373 389.127 122.783C389.127 122.93 388.951 123.091 388.6 123.267C388.395 123.149 388.16 123.091 387.896 123.091C387.779 123.442 387.721 123.867 387.721 124.365C388.307 124.453 388.6 124.614 388.6 124.849V125.156C387.779 125.801 387.369 126.27 387.369 126.562C388.072 126.797 388.424 127.061 388.424 127.354C388.189 127.676 388.072 127.983 388.072 128.276C388.16 128.804 388.336 129.067 388.6 129.067C388.6 128.921 388.893 128.657 389.479 128.276H389.83C390.006 128.276 390.24 128.481 390.533 128.892C390.533 129.448 390.24 129.873 389.654 130.166H389.479C389.391 130.166 389.098 129.902 388.6 129.375C388.6 129.463 388.541 129.507 388.424 129.507C388.6 130.356 388.775 130.781 388.951 130.781L390.182 130.605L390.357 130.913V131.88C391.061 131.88 391.822 132.29 392.643 133.11V133.286C392.643 133.403 392.525 133.975 392.291 135C392.701 135 392.994 135.264 393.17 135.791L392.994 136.406C393.199 136.875 393.609 137.388 394.225 137.944V138.428L394.049 139.219L395.279 139.043L395.631 139.526V140.142L395.279 140.625V142.163C395.074 142.544 394.723 142.808 394.225 142.954H393.346C393.17 143.364 392.994 143.569 392.818 143.569H392.643L391.412 143.438V143.569L392.115 144.229C392.115 144.404 391.471 144.712 390.182 145.151C390.182 145.356 390.123 145.459 390.006 145.459C390.475 146.279 390.768 146.748 390.885 146.865V147.349C390.885 147.7 390.064 148.11 388.424 148.579C388.424 148.931 388.072 149.15 387.369 149.238C387.369 149.736 387.018 149.985 386.314 149.985V150.161C386.314 150.396 386.373 150.601 386.49 150.776C386.49 151.187 385.904 151.45 384.732 151.567C384.732 151.655 384.381 151.86 383.678 152.183C383.561 152.183 383.385 152.139 383.15 152.051C380.104 152.637 378.58 153.208 378.58 153.765C378.58 154.028 378.111 154.233 377.174 154.38H376.998C376.939 154.38 376.646 154.175 376.119 153.765C374.947 154.263 374.186 154.512 373.834 154.512L372.604 154.38C372.223 154.585 371.93 154.688 371.725 154.688C371.578 153.955 371.402 153.589 371.197 153.589H370.846C369.732 153.911 369.029 154.219 368.736 154.512H368.209L365.924 152.798C365.426 152.798 364.781 152.329 363.99 151.392C363.756 151.392 363.639 151.143 363.639 150.645H362.936C362.936 150.938 362.818 151.084 362.584 151.084C362.379 151.084 362.203 150.615 362.057 149.678C361.822 149.678 361.588 149.209 361.354 148.271C360.357 148.271 359.713 147.334 359.42 145.459C359.42 144.463 358.834 143.628 357.662 142.954C357.545 142.778 357.486 142.573 357.486 142.339H357.662C357.662 142.251 357.428 141.943 356.959 141.416ZM363.463 14.2822C363.463 14.0479 363.932 13.8721 364.869 13.7549C364.898 13.374 365.25 12.9639 365.924 12.5244L366.627 11.1621L366.275 10.6348V10.5029C366.275 10.3271 366.803 10.0342 367.857 9.62402C367.857 8.9209 368.15 8.4668 368.736 8.26172C368.736 7.38281 369.439 6.57715 370.846 5.84473L370.67 4.96582V4.6582C370.904 4.36523 371.021 4.13086 371.021 3.95508C370.904 3.7207 370.846 3.54492 370.846 3.42773L371.197 3.25195H371.373C371.549 3.25195 371.725 3.42773 371.9 3.7793C373.893 3.16406 374.889 2.41699 374.889 1.53809L375.24 1.3623H375.943L376.998 2.24121C378.199 2.24121 379.078 1.88965 379.635 1.18652L381.393 1.3623H382.096L382.799 0.878906L384.029 1.01074L384.205 0.703125C384.088 0.703125 384.029 0.644531 384.029 0.527344L384.381 0.351562L384.557 0.703125C384.439 0.908203 384.381 1.06934 384.381 1.18652L384.732 1.3623C385.113 1.12793 385.406 1.01074 385.611 1.01074C385.992 1.24512 386.285 1.3623 386.49 1.3623L387.721 1.18652L388.424 2.90039L388.775 3.07617L389.127 2.90039L391.939 4.13086L392.291 3.95508C392.613 5.09766 393.258 5.66895 394.225 5.66895L395.104 5.84473V6.37207L394.752 6.85547V7.20703C395.484 7.58789 396.07 8.15918 396.51 8.9209C397.564 9.8291 398.385 10.9863 398.971 12.3926C399.381 12.3926 399.615 12.8467 399.674 13.7549L400.025 13.9307C400.172 13.9307 400.816 13.8135 401.959 13.5791C402.135 14.3701 402.428 14.7656 402.838 14.7656C403.219 14.5312 403.57 14.4141 403.893 14.4141L405.299 15.4688V15.9961C405.299 16.2305 405.182 16.3477 404.947 16.3477C404.479 15.8789 404.244 15.5273 404.244 15.293H403.717V15.4688C404.127 15.7617 404.654 16.626 405.299 18.0615C404.361 18.8525 403.834 19.8779 403.717 21.1377C402.809 21.1377 402.047 21.6504 401.432 22.6758H401.256V23.0273C401.314 23.0273 401.549 23.0859 401.959 23.2031C401.988 22.9687 402.105 22.8516 402.311 22.8516H402.662V23.0273C402.076 23.4082 401.607 23.9795 401.256 24.7412H400.904V25.0928L401.08 25.9717C400.23 26.9385 399.527 27.5684 398.971 27.8613C398.971 28.8867 398.678 29.3994 398.092 29.3994L396.861 30.9375V31.2891C397.389 31.2891 397.799 31.5674 398.092 32.124C398.092 32.3877 397.447 32.6807 396.158 33.0029H395.279V33.8379C395.279 34.0723 395.162 34.1895 394.928 34.1895H394.752C394.635 34.1895 394.576 34.1309 394.576 34.0137C394.342 34.1309 394.166 34.1895 394.049 34.1895L393.17 33.7061C392.115 33.7061 391.588 34.2773 391.588 35.4199L391.236 35.5957H390.885C390.504 35.5957 390.094 35.4199 389.654 35.0684C389.42 35.5957 389.186 35.874 388.951 35.9033H388.6L387.721 35.7275C387.721 35.9033 387.545 36.0791 387.193 36.2549H387.018C386.754 36.2549 386.52 36.1963 386.314 36.0791C385.934 36.3135 385.582 36.4307 385.26 36.4307C383.912 35.9619 383.15 35.7275 382.975 35.7275H382.799C382.389 36.0791 381.51 36.3135 380.162 36.4307L378.229 35.9033C377.203 36.0205 376.559 36.0791 376.295 36.0791C376.295 35.8154 375.826 35.5957 374.889 35.4199C374.713 34.834 374.303 34.541 373.658 34.541C373.336 34.043 372.633 33.5303 371.549 33.0029L370.846 33.5303H370.67C370.289 33.5303 370.055 32.9443 369.967 31.7725H369.791C369.352 32.124 368.941 32.2998 368.561 32.2998L368.385 31.9482V31.6406L369.264 30.2344C368.678 29.3262 368.033 28.8721 367.33 28.8721C367.33 28.667 366.744 28.2129 365.572 27.5098C365.572 26.748 365.455 26.001 365.221 25.2686H364.342C364.166 25.2686 363.932 25.0342 363.639 24.5654C363.639 24.3311 363.814 24.2139 364.166 24.2139L365.045 24.7412H365.572C365.572 23.7158 365.045 23.2031 363.99 23.2031C363.99 23.1445 363.932 22.9102 363.814 22.5C364.049 22.3828 364.225 22.3242 364.342 22.3242V22.1484C363.873 21.5625 363.639 21.0498 363.639 20.6104L363.99 20.127L363.639 19.5996C363.727 18.75 363.902 18.1787 364.166 17.8857V17.71L363.99 16.8311C364.43 16.8311 364.781 16.1426 365.045 14.7656C364.811 14.7363 364.693 14.6191 364.693 14.4141L363.814 14.5898C363.58 14.5605 363.463 14.458 363.463 14.2822ZM364.342 20.4346H364.869L365.045 19.7754L364.693 19.5996L364.342 20.127V20.4346ZM381.744 0.175781L382.096 0C382.33 0 382.447 0.117187 382.447 0.351562C382.447 0.585938 382.33 0.703125 382.096 0.703125L381.744 0.175781ZM387.369 119.839V119.663C387.398 119.458 387.516 119.355 387.721 119.355H387.896C388.131 119.355 388.248 119.458 388.248 119.663V119.839C388.248 120.044 388.131 120.146 387.896 120.146H387.721C387.486 120.117 387.369 120.015 387.369 119.839ZM388.424 1.71387V1.3623C388.453 1.12793 388.57 1.01074 388.775 1.01074C389.01 1.01074 389.127 1.12793 389.127 1.3623C389.127 1.59668 389.01 1.71387 388.775 1.71387H388.424ZM387.721 116.851V116.719C387.75 116.514 387.867 116.411 388.072 116.411H388.248C388.482 116.411 388.6 116.514 388.6 116.719V116.851C388.6 117.056 388.482 117.158 388.248 117.158H388.072C387.838 117.129 387.721 117.026 387.721 116.851ZM392.818 70.4443V70.2686C392.848 70.0635 392.965 69.9609 393.17 69.9609C393.404 69.9609 393.521 70.0635 393.521 70.2686V70.4443C393.521 70.6494 393.404 70.752 393.17 70.752C392.936 70.7227 392.818 70.6201 392.818 70.4443ZM400.729 29.2236C400.758 28.9893 400.875 28.8721 401.08 28.8721H401.256C401.49 28.8721 401.607 28.9893 401.607 29.2236C401.607 29.458 401.49 29.5752 401.256 29.5752H401.08C400.846 29.5166 400.729 29.3994 400.729 29.2236ZM434.109 4.74609H434.417C434.651 4.74609 434.812 5.02441 434.9 5.58105L434.417 5.93262H434.109C433.934 5.93262 433.758 5.75684 433.582 5.40527C433.758 4.96582 433.934 4.74609 434.109 4.74609ZM440.921 5.40527H441.053C441.287 5.46387 441.404 5.58105 441.404 5.75684C441.404 5.96191 441.287 6.06445 441.053 6.06445H440.921C440.687 6.06445 440.569 5.96191 440.569 5.75684C440.599 5.52246 440.716 5.40527 440.921 5.40527ZM459.729 3.03223H460.696C461.487 3.99902 462.396 4.6582 463.421 5.00977C463.421 6.06445 464.505 6.72363 466.673 6.9873C467.464 7.86621 468.226 8.30566 468.958 8.30566L469.749 7.82227H470.232C470.76 8.29102 471.258 8.67188 471.727 8.96484H471.858C472.21 8.64258 472.488 8.48145 472.693 8.48145C474.627 8.48145 475.594 8.8623 475.594 9.62402C475.828 9.62402 475.945 9.68262 475.945 9.7998L476.253 9.62402H476.561C478.846 10.1807 480.853 10.7959 482.581 11.4697C482.581 11.6162 482.742 11.7773 483.064 11.9531L483.855 11.4697H484.339C485.335 12.3486 487.4 13.0518 490.535 13.5791C490.535 13.7549 491.502 14.0918 493.436 14.5898L496.204 15.9082C496.204 15.6445 496.468 15.4834 496.995 15.4248C497.757 15.9521 498.621 16.2744 499.588 16.3916C499.588 16.9189 501.536 17.5781 505.433 18.3691C506.253 19.1895 507.176 19.6875 508.201 19.8633C508.318 19.8633 508.479 19.8047 508.685 19.6875C509.71 20.332 510.677 20.7715 511.585 21.0059C512.991 22.0313 514.236 22.5879 515.32 22.6758C515.408 22.1191 515.569 21.8408 515.804 21.8408H516.155C516.478 21.8408 516.639 22.0605 516.639 22.5L516.463 23.335C519.715 24.9756 521.502 25.7959 521.824 25.7959C522.469 25.7959 523.172 26.2939 523.934 27.29C525.486 27.6709 526.614 28.4912 527.317 29.751C527.317 29.9854 527.918 30.4834 529.119 31.2451C529.881 32.124 531.17 33.0615 532.986 34.0576C532.986 34.5264 533.689 35.3027 535.096 36.3867C536.004 36.8262 537.19 37.9248 538.655 39.6826C539.681 40.0049 540.662 40.6055 541.6 41.4844C542.449 41.4844 542.874 42.1436 542.874 43.4619L543.709 43.2861C543.885 43.2861 544.104 44.0625 544.368 45.6152C546.419 47.2559 547.444 48.6328 547.444 49.7461C548.089 50.3613 548.675 51.2402 549.202 52.3828L551.004 53.5254V53.877L550.828 54.8438C550.828 55.4883 551.648 56.4258 553.289 57.6562C553.729 58.7695 554.212 59.3848 554.739 59.502L555.53 59.3262C555.823 59.3262 556.102 59.6045 556.365 60.1611C555.809 61.0693 555.53 61.6699 555.53 61.9629V62.2705C555.618 62.9443 555.779 63.2812 556.014 63.2812L557.156 63.1055C557.361 63.457 557.464 63.7354 557.464 63.9404C557.112 64.2627 556.849 64.4238 556.673 64.4238V64.7754C557.112 65.9473 557.332 66.9873 557.332 67.8955C557.332 68.1592 557.273 68.3789 557.156 68.5547C557.361 69.0234 557.464 69.3604 557.464 69.5654C557.376 70.8545 557.332 71.792 557.332 72.3779C557.42 73.3154 557.464 73.8574 557.464 74.0039C557.259 74.4141 557.156 74.8535 557.156 75.3223V75.498C557.156 76.0254 557.317 76.9629 557.64 78.3105C557.112 81.1523 556.849 83.0273 556.849 83.9355C557.933 84.0527 558.475 84.2725 558.475 84.5947V85.0781C558.24 85.5176 557.962 85.7373 557.64 85.7373C557.493 85.6201 557.229 85.5615 556.849 85.5615C556.849 85.6494 556.57 86.3086 556.014 87.5391C556.131 88.916 556.189 89.6338 556.189 89.6924C554.988 91.5381 554.388 93.0176 554.388 94.1309C554.271 94.1309 554.065 94.4678 553.772 95.1416L553.904 95.4492C553.494 97.8809 553.011 99.0967 552.454 99.0967C551.663 99.0967 551.121 99.9756 550.828 101.733L548.895 103.403C548.895 104.019 548.411 105 547.444 106.348C547.444 107.754 546.741 109.526 545.335 111.665C544.925 112.661 544.163 113.979 543.05 115.62C543.05 115.884 542.786 116.543 542.259 117.598C542.259 119.678 541.336 120.718 539.49 120.718C539.49 120.835 539.212 120.894 538.655 120.894C538.304 120.659 537.981 120.542 537.688 120.542C537.278 120.981 536.736 121.26 536.062 121.377C536.062 122.227 535.359 122.827 533.953 123.179C532.752 125.288 531.302 126.343 529.603 126.343C529.075 126.694 528.694 127.134 528.46 127.661C527.259 129.653 525.691 130.649 523.758 130.649C521.473 132.056 519.847 133.198 518.88 134.077C518.88 134.634 518.396 134.912 517.43 134.912C516.668 134.912 516.287 135.293 516.287 136.055C516.287 136.172 516.346 136.348 516.463 136.582C516.287 137.021 516.126 137.241 515.979 137.241C515.862 137.241 515.423 137.124 514.661 136.89H514.178C513.533 136.89 512.991 137.446 512.552 138.56C510.999 140.2 509.769 141.021 508.86 141.021C508.392 141.899 508.011 142.339 507.718 142.339L506.883 141.855H506.575C506.106 141.855 505.623 142.295 505.125 143.174H504.466L503.982 142.822C503.104 143.525 502.122 143.921 501.038 144.009C501.038 144.595 500.232 145.254 498.621 145.986C497.977 146.631 497.171 146.953 496.204 146.953L495.853 146.821C494.974 146.997 493.904 147.876 492.645 149.458C492.381 149.458 491.722 149.897 490.667 150.776C490.521 150.776 489.876 151.538 488.733 153.062C488.265 153.267 487.723 153.662 487.107 154.248H486.8C486.565 154.248 486.448 154.131 486.448 153.896V153.413L486.8 152.93V152.754C486.8 152.666 486.639 152.505 486.316 152.271C485.32 153.12 484.5 153.56 483.855 153.589L482.713 155.698C482.01 155.698 481.321 156.255 480.647 157.368C480.413 157.485 480.237 157.544 480.12 157.544L479.153 157.017L478.187 157.192C477.894 156.841 477.674 156.182 477.527 155.215H477.22C477.22 155.654 477 155.874 476.561 155.874L475.945 155.566C475.828 155.566 475.008 156.226 473.484 157.544L472.518 157.192C472.342 157.192 472.02 157.69 471.551 158.687L469.134 159.521L467.991 159.346C467.991 160.166 467.171 160.605 465.53 160.664C465.296 161.426 464.71 161.807 463.772 161.807C462.806 163.037 461.78 163.652 460.696 163.652H460.213C459.598 163.301 458.997 163.125 458.411 163.125L457.269 163.301L456.126 162.642L455.335 162.817L454.5 162.334H454.192L453.533 162.817H453.401C452.903 162.378 452.625 162.158 452.566 162.158C452.215 162.363 451.893 162.466 451.6 162.466C451.248 162.466 450.984 162.422 450.809 162.334L449.798 162.466C449.71 162.466 449.285 162.363 448.523 162.158C447.879 162.51 447.557 162.729 447.557 162.817L446.722 162.642C445.286 162.905 444.378 163.184 443.997 163.477C442.767 163.154 442.063 162.993 441.888 162.993C441.888 163.14 441.609 163.403 441.053 163.784H440.745L439.778 162.993C439.778 163.198 439.661 163.301 439.427 163.301H439.119C439.002 163.301 438.782 162.861 438.46 161.982H437.977C437.83 161.982 437.669 162.144 437.493 162.466V162.642C437.815 162.642 437.977 162.759 437.977 162.993V163.301C437.977 163.477 437.596 163.755 436.834 164.136H436.702C435.823 163.022 435.384 162.026 435.384 161.147C434.827 161.147 434.021 160.547 432.967 159.346C432.527 159.346 432.308 159.243 432.308 159.038V158.379L432.615 157.192C432.205 157.017 432 156.636 432 156.05V155.874C432 155.698 432.425 155.376 433.274 154.907L432.791 154.556H432.615L432.132 154.907H431.824C431.678 154.907 431.517 154.731 431.341 154.38C431.341 154.058 431.663 153.896 432.308 153.896V153.589C431.692 153.589 431.209 153.193 430.857 152.402V151.919L431.165 151.436V151.084C431.165 150.85 430.682 150.63 429.715 150.425L429.539 150.117L430.198 148.271V148.14C430.198 148.022 430.096 147.583 429.891 146.821L430.374 146.47H431.165C431.399 144.536 431.619 143.218 431.824 142.515C431.707 141.021 431.648 140.083 431.648 139.702C432.205 139.702 432.688 139.102 433.099 137.9C433.011 137.695 432.967 137.476 432.967 137.241C432.967 136.978 433.128 136.641 433.45 136.23C433.333 135.645 433.274 135.205 433.274 134.912C433.597 134.15 433.816 133.77 433.934 133.77L433.758 133.418C434.168 131.572 434.446 130.649 434.593 130.649C435.384 130.649 435.809 130.093 435.867 128.979L437.317 127.837L437.186 127.002L438.46 125.859L438.284 124.365C438.958 124.102 439.295 123.882 439.295 123.706C439.178 123.091 439.119 122.651 439.119 122.388C439.617 121.45 439.998 120.674 440.262 120.059L439.91 119.399L440.921 116.587V116.411C440.364 116.353 440.086 116.191 440.086 115.928V115.62C440.291 115.181 440.452 114.961 440.569 114.961L440.394 114.126V113.95C440.481 113.306 440.657 112.983 440.921 112.983H441.053C441.17 112.983 441.39 113.203 441.712 113.643C442.356 113.643 442.957 112.266 443.514 109.512L443.646 108.501C443.44 108.472 443.235 108.193 443.03 107.666C443.558 107.051 444.041 106.069 444.48 104.722C444.773 104.722 445.096 103.623 445.447 101.426C445.506 101.426 445.608 101.25 445.755 100.898L445.271 98.6133C445.271 98.0273 445.594 96.9287 446.238 95.3174L446.106 94.1309C446.253 93.3398 446.458 92.7393 446.722 92.3291V92.0215C446.399 91.6113 446.238 91.2158 446.238 90.835L446.722 90V88.8574L445.931 88.0225L446.59 87.2314V87.0557L445.931 86.0449V85.9131C445.931 84.7412 446.253 83.9648 446.897 83.584C447.161 83.584 447.322 82.4854 447.381 80.2881C447.293 80.2881 447.132 80.127 446.897 79.8047L447.073 78.9697L446.897 77.959C447.103 77.6074 447.205 77.3438 447.205 77.168C447.059 77.168 446.795 76.8896 446.414 76.333V75.1465C447.498 73.5938 448.04 72.4951 448.04 71.8506C448.04 71.7627 447.938 71.3232 447.732 70.5322C447.732 70.3564 447.835 70.0781 448.04 69.6973C447.601 69.5508 447.278 69.2871 447.073 68.9062V68.0713C447.073 67.9834 447.337 67.7051 447.864 67.2363V66.7529L447.205 65.918V65.4346L447.732 64.7754V64.292C447.176 63.7061 446.897 63.252 446.897 62.9297C447.659 62.4316 448.04 62.1094 448.04 61.9629V61.7871C447.483 61.3184 447.205 60.2197 447.205 58.4912C446.795 58.2861 446.59 57.9639 446.59 57.5244L447.732 54.3604C447.234 53.7451 446.414 52.9834 445.271 52.0752C445.271 51.0498 444.246 50.1123 442.195 49.2627H441.229C441.229 49.9072 440.95 50.2295 440.394 50.2295C439.925 49.9072 438.855 49.4678 437.186 48.9111C437.039 48.9111 436.497 48.9697 435.56 49.0869C435.472 49.0869 435.149 49.0283 434.593 48.9111C434.153 49.0283 433.772 49.0869 433.45 49.0869L432.791 48.9111C432.059 49.2334 431.458 49.3945 430.989 49.3945H430.857C430.359 49.3945 429.656 49.0723 428.748 48.4277C428.748 48.3105 428.587 48.252 428.265 48.252C427.503 48.8086 427.063 49.0869 426.946 49.0869C425.335 48.8525 423.987 48.5742 422.903 48.252C421.937 48.252 421.453 47.8125 421.453 46.9336V46.2744C421.453 46.04 421.497 45.8203 421.585 45.6152C421.497 45.4102 421.453 45.249 421.453 45.1318H420.618C419.534 44.2236 418.992 43.7256 418.992 43.6377V43.1543L419.476 42.4951V42.3193C418.509 41.1768 418.025 40.2979 418.025 39.6826L418.377 38.54C417.938 37.5732 417.718 36.8555 417.718 36.3867V36.0352L416.575 36.2109C416.253 35.7422 416.092 34.9658 416.092 33.8818C416.736 33.8818 417.337 32.4023 417.894 29.4434C418.626 29.4434 419.109 28.623 419.344 26.9824C419.549 26.543 419.812 26.3232 420.135 26.3232L420.794 26.6309C420.97 26.0742 421.292 25.7959 421.761 25.7959V25.4883C421.819 24.3164 422.464 22.998 423.694 21.5332L425.013 20.6982C425.188 20.8154 425.408 20.874 425.672 20.874L428.572 17.5781L429.715 17.71C429.715 17.6221 429.773 17.5781 429.891 17.5781L429.715 16.7432C429.744 16.5088 429.847 16.3916 430.022 16.3916H430.506L430.989 16.7432C431.487 16.7432 432.088 16.3037 432.791 15.4248L433.758 15.5566C434.49 14.9707 435.516 14.4287 436.834 13.9307C436.834 13.5791 437.112 13.2422 437.669 12.9199C438.021 13.1543 438.343 13.2715 438.636 13.2715C439.134 13.2715 439.515 13.1104 439.778 12.7881L440.569 12.9199H440.745C441.272 12.9199 441.976 12.3779 442.854 11.2939C443.206 11.2939 443.909 10.8545 444.964 9.97559H445.096C445.447 10.1807 445.726 10.2832 445.931 10.2832C446.985 10.0488 447.908 9.44824 448.699 8.48145C450.252 7.69043 451.116 7.08984 451.292 6.67969C451.292 6.50391 451.453 6.32812 451.775 6.15234L452.742 6.32812L454.192 4.1748C454.427 4.1748 455.071 4.51172 456.126 5.18555H456.478C456.976 5.18555 457.518 4.80469 458.104 4.04297C458.484 4.04297 459.026 3.70605 459.729 3.03223ZM487.107 39.1992C486.756 38.9648 486.492 38.8477 486.316 38.8477C486.316 38.9941 486.038 39.2725 485.481 39.6826H485.174C484.939 39.6826 484.72 39.624 484.515 39.5068C483.724 39.5068 482.757 40.0049 481.614 41.001L481.746 41.8359C481.629 41.8359 481.146 42.2754 480.296 43.1543L480.472 43.9893C479.71 44.2822 479.329 44.7656 479.329 45.4395C478.685 45.8789 478.362 46.377 478.362 46.9336L478.67 47.7686C478.582 48.9697 478.421 49.6875 478.187 49.9219V50.8887C478.187 51.3867 478.567 51.8848 479.329 52.3828V52.8662C479.329 53.2178 479.109 53.7744 478.67 54.5361C479.021 56.7627 479.402 58.0225 479.812 58.3154V58.4912C479.812 58.9307 479.432 59.751 478.67 60.9521V61.1279C478.992 62.1826 479.153 62.8418 479.153 63.1055C478.304 63.5449 477.718 64.2041 477.396 65.083C475.901 65.5225 474.876 66.3574 474.319 67.5879C474.319 68.1738 473.88 69.1113 473.001 70.4004C473.001 71.2793 472.679 71.7188 472.034 71.7188H471.858V72.0264C472.444 72.0264 472.928 72.583 473.309 73.6963C474.305 73.6963 474.803 73.8574 474.803 74.1797V74.6631C474.422 75.3369 473.924 75.6738 473.309 75.6738V76.1572L473.66 76.6406V77.2998L473.177 79.8047L473.309 80.5957C472.986 81.1523 472.825 81.5918 472.825 81.9141L473.001 83.1006C472.942 83.5693 472.4 84.1113 471.375 84.7266C471.287 84.873 471.185 85.6494 471.067 87.0557C471.917 87.0557 472.342 87.5977 472.342 88.6816L472.518 90.3516V91.0107C473.045 91.4502 473.309 91.7285 473.309 91.8457V92.9883C472.869 93.75 471.683 94.9072 469.749 96.46C469.661 97.251 469.617 97.6904 469.617 97.7783C470.789 98.0713 471.375 98.7305 471.375 99.7559C470.848 100.195 470.584 100.474 470.584 100.591C470.584 101.47 471.39 102.29 473.001 103.052V103.228L472.825 104.062L473.001 105.205C473.001 105.381 472.415 105.981 471.243 107.007V107.183C471.565 107.593 471.727 107.974 471.727 108.325C471.727 109.438 471.346 109.995 470.584 109.995C470.027 108.999 469.705 108.501 469.617 108.501H469.266C469.266 108.618 468.782 109.219 467.815 110.303C467.815 110.508 467.918 110.845 468.123 111.313C466.922 112.837 466.277 113.716 466.189 113.95C466.365 114.829 467.229 115.269 468.782 115.269C468.958 116.382 469.397 117.1 470.101 117.422L470.232 117.773L470.101 118.564L470.716 119.751C470.628 120.161 470.145 121.143 469.266 122.695V123.179C469.266 123.325 469.705 123.604 470.584 124.014C470.936 123.809 471.258 123.706 471.551 123.706H471.727C472.4 124.585 472.825 125.024 473.001 125.024C473.177 125.024 473.499 124.907 473.968 124.673C474.407 124.849 474.627 125.024 474.627 125.2C474.422 125.962 474.319 126.401 474.319 126.519C474.319 126.753 474.583 126.914 475.11 127.002C475.608 126.709 476.531 126.431 477.879 126.167H478.538C478.743 126.167 478.948 126.606 479.153 127.485L479.505 127.661C479.71 127.632 480.032 127.075 480.472 125.991H480.779L481.746 126.826H482.098C482.244 126.826 482.405 126.665 482.581 126.343C482.464 126.138 482.405 125.977 482.405 125.859L482.889 125.508H483.372C483.987 125.508 484.749 125.449 485.657 125.332C485.833 125.449 486.053 125.508 486.316 125.508L489.217 124.014L491.15 124.189C491.531 124.102 492.073 123.662 492.776 122.871C493.157 122.871 493.436 122.93 493.611 123.047C494.432 123.047 495.296 122.607 496.204 121.729C497.229 121.348 498.196 120.791 499.104 120.059C500.071 120.059 500.555 119.619 500.555 118.74C501.492 118.447 502.415 117.949 503.323 117.246C504.788 117.246 505.975 116.646 506.883 115.444C507.762 115.444 508.626 114.844 509.476 113.643C510.267 113.262 511.57 112.925 513.387 112.632C513.387 112.075 514.793 110.977 517.605 109.336C517.605 108.867 518.309 108.311 519.715 107.666C520.77 106.084 522.117 104.707 523.758 103.535C524.197 102.656 524.842 102.056 525.691 101.733C525.691 101.47 526.072 100.811 526.834 99.7559C527.039 99.4043 527.142 99.082 527.142 98.7891L527.01 97.9541C527.771 97.6904 528.152 97.251 528.152 96.6357C528.152 96.3428 528.519 95.7861 529.251 94.9658V94.6582C529.251 94.541 529.207 94.1016 529.119 93.3398C529.471 91.9043 529.896 91.1865 530.394 91.1865C530.833 91.1865 531.053 90.8496 531.053 90.1758C530.525 90.1758 530.262 90.0146 530.262 89.6924V89.3408C531.111 88.6377 531.536 87.9785 531.536 87.3633V86.2207C531.536 85.957 531.976 85.7373 532.854 85.5615L532.986 85.2539V85.0781C532.664 84.6387 532.503 84.3018 532.503 84.0674L532.679 83.1006C531.712 82.7783 531.17 82.4414 531.053 82.0898V81.7822C531.404 81.7822 531.727 80.6836 532.02 78.4863C531.814 77.0508 531.434 76.333 530.877 76.333C530.73 76.333 530.525 76.1133 530.262 75.6738V75.3223C530.262 75 530.584 74.8389 531.229 74.8389V74.6631C530.027 73.5791 529.427 72.9785 529.427 72.8613L529.603 71.1914C529.163 71.0449 528.943 70.8838 528.943 70.708V70.0488C528.943 69.9316 529.002 69.873 529.119 69.873C529.002 69.375 528.401 68.877 527.317 68.3789C527.024 68.0273 526.805 67.1045 526.658 65.6104C526.395 65.376 526.131 65.2588 525.867 65.2588V64.7754H526.175V64.4238C525.384 63.6621 524.52 62.3438 523.582 60.4688L521.956 59.1504H521.473C521.473 59.8242 521.312 60.1611 520.989 60.1611L520.022 58.8428C519.29 58.8428 518.528 58.2275 517.737 56.9971C516.771 56.7041 516.287 56.3232 516.287 55.8545C516.287 55.7373 516.507 55.4004 516.946 54.8438C516.946 54.6387 516.844 54.5361 516.639 54.5361H516.287C515.906 54.8584 515.525 55.0195 515.145 55.0195C513.094 54.4922 512.068 53.7305 512.068 52.7344C512.068 52.5586 512.229 52.3828 512.552 52.207L513.387 52.3828V51.8994C513.387 51.665 513.27 51.5479 513.035 51.5479H512.552C512.552 51.9873 512.391 52.207 512.068 52.207H511.585C511.263 52.207 510.94 51.6064 510.618 50.4053C510.735 50.2588 510.794 49.9805 510.794 49.5703C510.472 49.4531 510.311 49.3506 510.311 49.2627C509.871 49.4092 509.651 49.5703 509.651 49.7461C510.091 49.9219 510.311 50.083 510.311 50.2295V50.7568C510.311 50.9033 510.091 51.0645 509.651 51.2402C509.212 51.0645 508.992 50.9033 508.992 50.7568V50.2295L509.344 49.7461C509.314 49.5996 509.036 49.3799 508.509 49.0869L507.85 49.5703H507.366C507.132 49.5703 506.927 49.1309 506.751 48.252C506.575 48.252 506.355 48.0322 506.092 47.5928C505.74 47.8271 505.418 47.9443 505.125 47.9443H504.773C504.51 47.9443 504.349 47.7246 504.29 47.2852C504.29 47.1973 504.349 46.8604 504.466 46.2744C504.466 45.4834 503.44 44.9414 501.39 44.6484C500.423 43.8574 499.559 43.4619 498.797 43.4619C498.445 43.6963 498.123 43.8135 497.83 43.8135C497.244 43.8135 496.805 43.5352 496.512 42.9785V42.1436C495.105 41.9385 494.402 41.6602 494.402 41.3086C494.402 41.0156 494.183 40.5322 493.743 39.8584H492.469C492.352 39.8584 491.971 39.4629 491.326 38.6719H491.15V39.6826C491.15 39.8291 490.989 39.9902 490.667 40.166H490.359L488.074 38.6719C487.664 39.0234 487.342 39.1992 487.107 39.1992ZM508.86 45.6152V45.791H509.344V45.3076H509.168C508.963 45.3369 508.86 45.4395 508.86 45.6152ZM548.587 45.791C548.792 45.8203 548.895 45.9229 548.895 46.0986V46.2744C548.895 46.5088 548.792 46.626 548.587 46.626C548.353 46.626 548.235 46.5088 548.235 46.2744V46.0986C548.265 45.8936 548.382 45.791 548.587 45.791ZM552.762 49.3945H553.113C553.26 49.3945 553.421 49.5703 553.597 49.9219V50.2295C553.597 50.4053 553.436 50.5811 553.113 50.7568H552.762C552.615 50.7568 552.454 50.5811 552.278 50.2295V49.9219C552.278 49.7461 552.439 49.5703 552.762 49.3945ZM479.153 49.9219H479.329C479.534 49.9512 479.637 50.0537 479.637 50.2295V50.7568C479.637 50.9033 479.476 51.0645 479.153 51.2402C479.007 51.2402 478.846 51.0791 478.67 50.7568V50.4053C478.67 50.2588 478.831 50.0977 479.153 49.9219ZM552.938 54.8438H553.113C553.26 54.8438 553.421 55.0195 553.597 55.3711V55.5029C553.597 55.7373 553.494 55.8545 553.289 55.8545H552.938C552.732 55.8545 552.63 55.7373 552.63 55.5029V55.1953C552.659 54.9609 552.762 54.8438 552.938 54.8438ZM445.931 63.6328C446.136 63.6621 446.238 63.7646 446.238 63.9404C446.238 64.1748 446.136 64.292 445.931 64.292C445.726 64.292 445.623 64.1748 445.623 63.9404C445.652 63.7354 445.755 63.6328 445.931 63.6328ZM475.945 66.4014H476.253V66.5771H475.945V66.4014ZM474.627 71.3672H474.935C475.11 71.3672 475.271 71.5283 475.418 71.8506C475.271 72.29 475.11 72.5098 474.935 72.5098H474.803C474.627 72.5098 474.466 72.3486 474.319 72.0264V71.7188C474.349 71.4844 474.451 71.3672 474.627 71.3672ZM478.538 72.6855L478.67 73.0371C478.67 73.2422 478.567 73.3447 478.362 73.3447L478.187 73.0371C478.216 72.8027 478.333 72.6855 478.538 72.6855ZM560.101 78.4863L560.232 78.7939L559.925 78.9697L559.749 78.6182L560.101 78.4863ZM473.836 108.018H473.968C474.144 108.018 474.305 108.179 474.451 108.501V108.853C474.451 108.999 474.29 109.16 473.968 109.336C473.528 109.16 473.309 108.999 473.309 108.853V108.501C473.309 108.354 473.484 108.193 473.836 108.018ZM472.693 122.212H472.825C473.06 122.241 473.177 122.344 473.177 122.52V122.695C473.177 122.93 473.06 123.047 472.825 123.047H472.693C472.459 123.047 472.342 122.93 472.342 122.695V122.52C472.4 122.314 472.518 122.212 472.693 122.212ZM437.493 123.047C437.64 123.047 437.801 123.208 437.977 123.53V123.706C437.977 123.911 437.874 124.014 437.669 124.014H437.493C437.347 124.014 437.186 123.853 437.01 123.53C437.01 123.384 437.171 123.223 437.493 123.047Z" fill="black"/>
</svg>
